<svg version="1.1" id="Vrstva_1" xmlns="http://www.w3.org/2000/svg" xmlns:xlink="http://www.w3.org/1999/xlink" x="0px" y="0px"
	 viewBox="0 0 204 86" style="enable-background:new 0 0 204 86;" xml:space="preserve" width="184" height="78.933">
<style type="text/css">
	.st0{fill:#1D1D1B;}
</style>
<g>
	<g>
		<path class="st0" d="M58.9,66.3c0,0-3.4-0.8-5.4-1.7c-2-0.9-6.1-3.6-6.1-3.6s1.6,3.1,4.4,4.2C54.6,66.4,58.9,66.3,58.9,66.3z"/>
		<path class="st0" d="M41,12.8c0.2-1.9-1.4-4.1-1.4-4.1s0.2,0.7,0.3,2.4c0.2,2.5-0.7,3.1-1.3,3.8c-1,1-3.8,1.6-3.8,1.6
			s2.1,0.2,3.5-0.3C39.7,15.8,40.8,14.8,41,12.8z"/>
		<path class="st0" d="M68,37.3c-0.7-0.7-1.9-1.6-2.9-2.2c-0.9-0.5-2-1.4-1.9-1.4c0,0-0.1,0-0.3,0.2c-0.1,0.1-0.2,0.1-0.2,0.1L62,34
			l0-0.7c0,0,0.4-0.2,0.5-0.3c0.2-0.1,0.5-0.5,0.7-0.8c0.1-0.3,0.1-1,0.1-1.4c0.2,0,0.3,0,0.3-0.1C64,30.4,64,30,64,30
			s-0.3-0.1-0.8-0.1c0.1-0.3,0.3-0.4,0.5-0.6c0.7-0.9,0-1.6-0.3-1.9C63,27,63,27.1,63,27c0,0,0,0,0,0c0,0-0.1,0.1-0.5,0.6
			c-0.6,0.5-2,1.4-2.3,1.4c0,0,0.9,0,2.1,0.3c0.5,0.1,0.7,0.3,0.5,0.7c-0.2,0-0.4,0.1-0.5,0.1c-0.6,0.2-1.3,0.7-1.9,1.2
			c-0.4,0.4-1.2,1.3-1.7,1.6c-0.5,0.3-1.1,0.9-1.1,0.9s1.2-0.3,1.5-0.5c0.4-0.2,1.1-0.6,1.8-1.2c0.6-0.6,1.2-1,1.5-1.2
			c0.1,0,0.1,0.5,0.1,0.8c0,0.4-0.2,0.6-0.7,1.2c-0.5,0.5-2.1,1.4-2.2,1.4c0,0,0,0,0,0l-0.5,0.3c0,0-0.4,0.3-0.9,0.2
			c-0.6-0.1-0.9,0-0.9,0s0.6,0.3,1.5,0.3c-0.6,0.4-2,0.9-2,0.9s0.4,0,1.1-0.2c0.2-0.1,0.6-0.2,1-0.4c-0.3,0.5-0.6,0.9-1,1.3
			c-0.1,0.1,0.8-0.4,1-0.7c0.2-0.2,0.5-0.6,0.6-0.8c0,0,0.1,0,0.1,0c0.3,0.2,0.5,0.5,0.9,0.7c0.8,0.6,1.5,0.6,1.5,0.6
			s0.2,0.8,0.2,0.9c0,0,0.6-0.3,0.6-0.8c0-0.6,0.1-0.9,0.4-1.1C64,35,68.4,38,68.4,38S68.7,38,68,37.3z M62.1,34.9
			c-0.2,0.3-0.3,0.6-0.2,0.9c-0.3,0-0.6,0-1.1-0.2c-0.3-0.1-0.7-0.6-1-0.9C62,34.2,62.2,34.8,62.1,34.9
			C62.2,34.8,62.3,34.7,62.1,34.9z"/>
		<path class="st0" d="M39.9,20.7c0,0,0.2,0.3,0.9,0.1c1-0.4,1.3-1.3,0.9-2.2c-0.4-0.9-2-1.6-2-1.6s1.3,1.3,1.2,2.5
			C40.7,20.3,39.9,20.7,39.9,20.7z"/>
		<path class="st0" d="M42.9,22.2c0.4-0.6,0.5-1.3,0.1-2c-0.3-0.7-0.7-1.1-0.7-1.1s0.1,1.3-0.3,2.3c-0.3,1-1.7,1.7-1.7,1.7
			s0.7,0,1.1-0.1C41.9,22.9,42.5,22.7,42.9,22.2z"/>
		<path class="st0" d="M20.7,30.6c-1.7,0.7-2.6,1.4-3.4,2.7c-1.3,2.2-1.2,5.8-1.2,5.8s1.1-3.5,1.8-4.7c0.7-1.2,3.5-3.3,3.5-3.3
			l0.3,2.1c0,0,0.5-0.7,0.9-1.7c0.4-1-0.3-3.3-0.3-3.3S22.3,29.9,20.7,30.6z"/>
		<path class="st0" d="M27.5,15.1c2.3-0.1,4,0.8,4,0.7c0-0.1-1.5-1.5-3.5-1.6c-2.6-0.1-4.8,0.4-7.1,2c-1.4,0.9-3.2,2.3-4.1,4
			c-1,1.8-1.9,4.3-1.9,5.8c1.4-2.6,1.5-3,2.6-4.4c1.3-1.7,4.1-4.1,5.5-5.1C23.7,16,25.3,15.2,27.5,15.1z"/>
		<path class="st0" d="M63,38.7c-0.6-1-2.3-0.8-2.8-0.8c2,1.1,2.4,1.2,3.1,4.3C63.4,42.2,63.8,39.9,63,38.7z"/>
		<path class="st0" d="M33.2,54.5c2.4,1.9,6,2.6,8.4,2.8c1.1,0.1,2.3,0.2,3.6-0.5c0.6-0.3,1.1-1.1,1.6-0.5c0.3,0.4,0.8,1.3,1.3,1.7
			c-0.4-1.2-0.9-2.7-1.5-3.8c-0.6-1.1-1.7-2.4-2.3-3.5c-0.7-1.3-1.8-2.1-2.1-2.2c-0.1,0,1.3,2.1,2.4,3.9c0.8,1.3,1.8,2.4,0,3.4
			c-0.5,0.2-1.4,0.4-1.9,0.4c-3.2-0.2-6.2-0.8-9.1-2.9c-1.7-1.3-3.3-2.3-4.8-3.8c0,0-0.9-1.1-1.2-1.7l0,0c0,0,0,0-0.4-0.9
			c-0.2-0.4-0.4-1.1-0.5-1.6c-0.1-0.3-0.1-0.6-0.1-0.8c-0.1-1,0.2-2.1,0.7-2.9c1.3-1.9,2.9-3,5.3-3c1.5,0,1.9-2.9,1.9-2.9
			s-1,1.8-4.7,2.5c-3.2,0.6-4.6,3.6-4.3,6.9C26,50,31.2,52.8,33.2,54.5z"/>
		<path class="st0" d="M14.4,34.8c0.2,0.7,0.7,2.3,0.4,4.1c-0.3,1.8-1.1,2.5-1.4,4.2c-0.2,1.5-0.1,2.6,0.2,3.8
			c1,3.8,3.2,6.3,3.2,6.3s-1.7-0.9-2.9-2.7c-0.5-0.8-1.8-2.9-1.9-5.4c-0.1-1.8,0.2-2.8,0.6-3.9c0.6-1.9,1-2.2,1.3-3.4
			C14.1,36.9,14.4,34.6,14.4,34.8z"/>
		<path class="st0" d="M19.1,39.8c0,0-1,1.1-1.1,2.2c0,0.4-0.1,1.3,0.4,2.3c0.8,1.7,2.3,2.1,2.3,2.1s-0.9-1.3-1.3-3.4
			C19,41.1,19.1,39.8,19.1,39.8z"/>
		<path class="st0" d="M24.7,28c-0.2-0.2,1-1.2,2.3-3c0.7-1.1,1.2-2,1.5-2.7c0,0.4,0.3,1.1,0.2,1.8c-0.1,0.5-0.2,1-0.8,1.8
			c-0.5,0.7-1.4,1.5-1.7,1.6C26,27.6,24.8,28.2,24.7,28z"/>
		<path class="st0" d="M32.3,34.7c-0.1-0.2,1.3-0.6,2.6-1.8c0.8-0.7,1.3-1.3,1.6-1.8c0,0.3,0.1,0.9-0.1,1.6
			c-0.4,1.2-1.4,1.7-1.8,1.9C33.6,35,32.3,34.9,32.3,34.7z"/>
		<path class="st0" d="M35.4,27.1c0.2,0.1-0.6,2.1-2.1,3.8c-0.5,0.5-1.6,1.4-4,3c-0.9,0.6-1.5,1.1-2.3,1.9c-0.7,0.8-1.1,1.5-1.4,2
			c0.1-0.6,0.1-1.6,0.7-2.5c0.5-0.8,0.9-1.2,3-3c3.1-2.6,3.3-2.8,4.2-3.8C34.6,27.6,35.3,27,35.4,27.1z"/>
		<path class="st0" d="M38.8,23.7c0.1,0,0.5,1.6,0.2,2.8c-0.4,1.7-1.4,2.4-1.6,2.7c-0.5,0.6-1.4,1.1-1.8,1.3c0.6-0.8,1.4-2,2.1-3.6
			C38.4,25.1,38.6,23.7,38.8,23.7z"/>
		<path class="st0" d="M26.9,28.2c0.1,0,0.1,1.5-0.5,2.6c-0.4,0.7-0.6,0.7-1.2,1.6c-0.7,1.1-1,1.9-1.1,2c-0.2,0.5-0.4,0.8-0.5,1.7
			c-0.1-1.2,0-2.1,0.1-2.7c0.2-1,0.3-1.6,0.8-2.2c0.6-0.7,0.9-0.7,1.6-1.5C26.6,28.9,26.8,28.2,26.9,28.2z"/>
		<path class="st0" d="M21,44.4c0.1,1.3,0.5,2,0.6,2.1c0.6,1.2,2,2.3,2.5,2.6c-0.4-0.8-1-1.9-1.4-3c-0.4-1.1-0.5-1.7-0.4-3
			c0.1-0.8,0.1-1.6,0.1-1.6S20.8,42.8,21,44.4z"/>
		<path class="st0" d="M33.3,17.3c0.2-0.1,1.2,1,1.1,2.3c-0.1,1-0.8,1.8-1.6,2.2c-0.4,0.1-0.7,0.2-0.9,0.2c0.5-0.6,0.8-1.1,1-1.5
			c0.2-0.4,0.5-0.9,0.5-1.6C33.5,17.8,33.2,17.3,33.3,17.3z"/>
		<path class="st0" d="M25.3,60.2c0,0,0.1,1.5,1.4,2.9c1.3,1.4,3.9,1.8,4.9,2.1c-0.8-0.7-2.8-1.9-4.1-3.1
			C25.8,60.4,25.3,60.2,25.3,60.2z"/>
		<path class="st0" d="M73,39.3c-2.4-2.4-4.7-4.6-7.7-6.2c-0.2-0.1-0.4-0.9-0.4-1.1c0-0.2,0-0.6,0.3-0.8c0.4-0.3,1.4-1.2,1.4-2.1
			c0-2.1-0.8-2.2-2-3.6c-2.1-2.5-5.9-3.4-7.3-7.1c-0.4-1.2-1.2-2.3-2.1-2.9C54.8,15,55,14.1,55,13.1l0-0.2c0.1-2.2-0.4-4.8-2.9-6.7
			c-0.6-0.5-1.2-0.8-1.8-1c-1-0.3-1.8-0.6-2.8-0.8c-1.9-0.4-3.1-0.4-3.1-0.4L44.9,5l-4.3-1.2L41,4.5c-1.2-0.6-2.5-0.9-3.8-0.9
			c-0.5,0-1,0-1.6,0.1c-1.1,0.1-2.2,0.2-3.3,0.3l-0.7,0.1c-0.4,0-0.9,0.1-1.3,0.1c-1.2,0.1-2.3,0.2-3.4,0.3c-1.1,0-2.2,0.3-3.2,0.5
			c-0.9,0.2-1.7,0.4-2.5,0.5c-3.7,0.2-6.7,1.8-8.7,4.5l-0.2,0.2c-0.5,0.6-0.9,1.3-1.4,1.9c-2.1,2.5-3.8,4.7-5,7.5
			C4.4,23.2,4,27.1,4.8,31.8c0.4,2.4,1.3,4.7,2.1,6.8c0.3,0.8,0.8,1.7,1,2.6C11.4,55.1,14.3,57,14.3,57l2.7,9.6
			c0.6,0.1,1.2,0.2,1.9,0.3c-0.1-0.1-3.1-10.5-3.3-10.6c-2.6-1.6-6.2-14-6.5-15.1C8,37.5,6.5,35.1,6,31.8c-0.6-3.7-0.5-7.1,0.9-10.7
			c1.2-2.9,3-5.4,5-7.7c0.7-0.8,1.2-1.6,1.9-2.4c2-2.5,4.8-3.7,7.8-3.8c1.9-0.1,3.6-1,5.4-1c1.6,0,3.2-0.3,4.8-0.4
			c1.8-0.2,3.6-0.3,5.4-0.5c2.1-0.2,3.6,0.5,5.2,1.6c0.2,0.1,0.7,0.6,1.2,0.8c-0.2-0.6-0.4-1-0.6-1.5c1.3,0.3,2.5,0.6,4,0.9
			c-0.4-0.5-0.6-0.8-0.9-1.1c5.2,0.2,8.6,2.9,7.5,9c0,0-2.4-1.6-3.9-2.1c-0.8-0.3-3.2-1-3.8-1.2c-0.5-0.2-0.9-0.7-1.3-1
			c-0.1-0.1-0.2-0.2-0.3-0.3c-0.9-1.3-2.9-3.4-4.9-3.8c-0.7-0.1,2.1,0.8,3,3.4c0.5,1.5,0.5,2,0.3,3.5c-0.1,1-0.6,2.6-0.6,2.6
			s1.4-0.8,1.6-2.3c0.1-0.5,0.2-1.7,0.2-1.9c0-0.1,0-0.1,0-0.1s0.3,0.4,0.8,0.9c0.6,0.5,1.6,0.7,2,0.7c1.7,0.2,4.5,1,5.7,1.7
			c0.5,0.3,1.1,0.6,1.5,0.8c1.4,1,2.2,2.6,3,4.1c0.8,1.4,2.1,2.6,3.3,3.7c0.8,0.7,1.5,1.3,2.2,2c0.9,0.8,1.8,1.7,2.2,2.1
			c0.7,0.9,0.8,1.9,0.2,2.4c-0.4,0.4-0.8,0.8-1,1.3c-0.7,2,1.2,2.7,2.4,3.4c2.1,1.1,3.5,2.6,5.1,4.2c0.7,0.7,1.5,1.5,2.1,2.3
			c0.6,0.8,0.9,1.6,0.7,2.9c-0.1,0.5-0.3,0.9-0.7,1.4c-0.5,0.6-1.7-0.2-2.3-0.3c-0.7-0.2-1.4,0.2-2.1,0.5c-0.7,0.3-1,0.5-1.3,0.4
			c0,0,0,0,0,0c-0.2-0.2-0.2-0.4-0.3-0.7c0-0.1-0.1-0.4-0.3-0.8c-0.1-0.3-0.1-0.3-0.2-0.4c-0.2-0.4-0.2-0.8-0.3-1
			c-0.1-0.7-0.2-1.5,0.2-1.9c0.3-0.3,0.6-0.4,1.1-0.4c0.8,0,1.2,0.1,1.7,0.5c0.3,0.2,0.3,0.3,0.7,0.6c0.2,0.1,0.6,0.4,0.8,0.3
			c0.2-0.1,0.3-0.5,0.2-0.8c-0.1-0.3-0.7-0.5-1.6-0.8c-1.7-0.5-2.9-0.6-3.4,0c-1,1.2,0.4,3.8,0.4,5.2c0,0.8-0.2,1.3-0.4,2.2
			c2-2.1,2.7-1.2,3.1,0.4c0.2,1,0.9,2-0.2,3.3c-0.4,0.5-0.8,0.7-1.5,1.1c-1.3,0.7-1.2-0.1-1.2,0c-0.2,0.5,0.1,2.5-0.3,5.1
			c0.1-0.2,1-2.7,1-2.9c0.4-1.3,0-0.9,1.7-1.5c0.7-0.3,1.8-0.8,1.8-0.8c0.9,0.8,0.2,1.5,0,1.6c-0.9,0.5-1.2,0.7-0.7,2.2
			c0.3,1-2.3,1-2.4,1.1c0.6,0.6,1.3,1.2,2,1.7c0,0,0.3-1.8,1-1c0.5,0.7,0.7,2.3,0.8,3.3c0.1,0.7-0.3,2-0.8,2.4
			c-1.8,1.7-5.4,1.4-5.5,1.4c-0.2,0.4-1,0.9-2.3,1.6c-0.5,0.2-1.9,0.7-3.6,1c1.6,0.3,2.8,0.2,4.5-0.3c-0.5,0.8-8.1,11.3-8.9,12.3
			c-0.1,0.2-9.3-5.3-16.1-7c9.3,4.9,11.2,6,15.7,9.4c0.9-1.1,9-13.4,11.7-15.6l0.7-0.4c0.2,0,0.4-0.1,0.6-0.2
			c0.6-0.1,0.9-0.1,1.5-0.3c2.1-0.6,3.6-2.5,3.4-4.8c-0.1-0.8-0.9-3-1-3.3c-0.1-0.8-0.4-2.5,0-3.3c0.2-0.4,0.7-0.7,0.3-1.7
			c-0.2-0.6-1-1-1.4-1c-0.1,0-0.2,0-0.2,0c0,0,0.7-1,0.9-1.2c0.2-0.4,0.2-0.8,0.1-1.1c-0.1-0.5-0.9-0.8-1-1.3
			c-0.1-0.7-0.2-0.3-0.3-1.4c0-0.2,2.2-0.2,2.5-0.2c1.4,0,2.7-1.2,3-2.8C75.9,41.8,74.1,40.3,73,39.3z"/>
		<path class="st0" d="M37.8,51.8c0.4,0-0.3,0.4-1.8,1.2c-0.4-0.1-1-0.3-1.6-0.6c-1.8-0.8-2.9-2.1-3.6-2.9c-0.7-0.8-1.3-1.5-1.8-2.6
			c-0.4-0.9-0.7-1.8-0.5-2.9c0.3-1.5,1.6-2.4,1.9-2.6c1.3-0.9,2.6-0.8,3-0.8c0.7,0.1,1.5,0.5,3,1.3c0.2,0.1,0.4,0.2,0.6,0.6
			c0.1,0.2,0.1,0.4,0,0.9c-0.1,1.1-0.2,1.4-0.2,1.7c0,0.4,0,0.5,0,0.8c0.1,0.4,0.2,0.6,0.2,0.7c-0.1,0.1-0.5,0-0.7-0.1
			c-0.3-0.3-0.3-0.7-0.5-0.7c-0.3-0.1-0.7,0.5-0.9,0.9c-0.4,0.8-0.3,1.6-0.3,1.9c0.1,0.6,0.3,1.1,0.5,1.5c-0.3-0.1-0.9-0.3-1.3-0.8
			c-0.4-0.5-0.5-1.1-0.5-1.1c0-0.2,0-0.5-0.2-0.9c-0.1-0.3-0.1-0.4-0.2-0.5c-0.2-0.2-0.4-0.1-0.6-0.3c-0.2-0.2-0.1-0.6,0.1-0.8
			c0.1-0.1,0.4-0.2,0.6-0.1c0.3,0.1,0.3,0.3,0.6,0.4c0.2,0.1,0.4,0,0.5,0c0.3-0.1,0.5-0.3,1.1-1.2c0.5-0.8,0.7-1.2,0.6-1.5
			c-0.1-0.4-0.4-0.8-0.6-0.9c-0.4-0.1-0.8,0.3-1.2,0.4c-0.5,0.1-0.9,0.1-1.1-0.3c-0.2-0.3-0.9-0.7-1.3-0.4c-0.1,0-0.3,0.1-0.2,0.7
			c0.1,0.8,0.2,0.9,0.2,1.2c0.1,0.6-0.6,1.2-1.1,1.4C30,45.5,30,46.2,30,46.4c0.1,0.8,0.7,1.6,0.9,1.9c0.1,0.2,0.8,1.2,2.3,2.3
			c1,0.7,1.5,1.1,2.3,1.2C36.8,52.1,37.7,51.8,37.8,51.8z"/>
		<path class="st0" d="M37.8,46.3c-0.1,0,0,0.4-0.2,0.8c0,0-0.3,0.6-0.9,0.7c-0.5,0.1-0.8-0.2-0.9,0c-0.1,0.1,0,0.2,0.1,0.7
			c0,0.1,0.2,0.7,0.2,1.3c0.1,0.6,0,0.8,0.2,0.9c0.2,0.1,0.5,0,0.6,0c0.4-0.1,0.4-0.4,0.8-0.6c0.1-0.1,0.5-0.3,0.9-0.2
			c0.5,0.1,0.6,0.4,1.1,0.6c0.1,0,0.9,0.3,1.3-0.1c0.3-0.3,0.3-0.7,0.3-1c-0.1-0.4-0.4-0.6-0.5-0.7c-0.5-0.3-0.6-0.2-1.2-0.3
			c-0.1,0-0.7-0.3-1-0.9C38.2,46.7,37.9,46.3,37.8,46.3z"/>
		<path class="st0" d="M44.3,72.3c-0.1,0.1,2,1.6,4.3,2.9c2,1.1,4.4,2.2,4.4,2.1c0.1-0.1-2.3-1.7-3.4-2.4
			C47.3,73.6,44.4,72.2,44.3,72.3z"/>
		<path class="st0" d="M37.7,61.7c0.1-0.1,2,0.9,5.1,2.9c3.3,2.1,4.7,3.1,4.6,3.2c-0.1,0.2-3.2-1.4-6.1-3.1
			C39.4,63.6,37.6,61.8,37.7,61.7z"/>
		<path class="st0" d="M43.5,68.8c0-0.1,0.5,0.2,5.2,2.6c1.5,0.8,1.9,1,1.9,1c0,0.1-2.1-0.4-4-1.4C44.8,70.1,43.4,68.9,43.5,68.8z"
			/>
		<path class="st0" d="M13.5,28.9c0.1,1.2,0,2.7-0.8,4.2c-0.9,1.6-2.1,2.5-3.2,3.1c0.8-1.2,1.7-2.4,2.4-3.9
			C12.6,31.2,13,29.9,13.5,28.9z"/>
		<path class="st0" d="M55.1,25.7c0,0.2,1.4-0.9,1.7-1.7c0.1-0.2,0.1-0.5,0.1-0.7c0-0.4-0.2-0.7-0.4-0.8c-0.3-0.4-0.9-0.7-1.1-0.8
			c0.2,0.3,0.3,1,0.4,1.6C55.9,24.6,55.2,25.5,55.1,25.7z"/>
		<path class="st0" d="M16.7,56.6c0.5-0.3,1-0.7,1.2-1.3c0.2-0.8-0.3-2-0.3-2s2.2,1.3,4.8,1.4c0.6,0,1.7,0.1,2.9-0.5
			c0.9-0.4,1.5-1,1.6-0.9c0.1,0.1-0.7,1-1.7,1.7c-2.6,1.5-5,1.4-6.3,0.1C18.9,56.4,17.4,56.8,16.7,56.6z"/>
		<path class="st0" d="M17.9,59.1c0,0,1.9,2.6,4.4,4.1c-0.4,0-1.6,0.2-2.6-0.5C17.7,61.4,17.9,59.1,17.9,59.1z"/>
	</g>
	<g>
		<g>
			<path class="st0" d="M107.7,11v14.5h-3.1L98.7,16v9.5h-3V11h3.1l6,9.4V11H107.7z"/>
			<path class="st0" d="M121.5,22.8h-5.7l-1,2.7h-3.3l6.1-14.5h2.3l6.1,14.5h-3.3L121.5,22.8z M120.5,20.1l-1.8-4.7l-1.8,4.7H120.5z
				"/>
			<path class="st0" d="M129.6,11h4.4c5,0,7.8,2.7,7.8,7.4c0,4.6-2.8,7.1-7.8,7.1h-4.4V11z M133.7,22.8c3.4,0,5.1-1.1,5.1-4.6
				c0-3.3-1.7-4.6-4.8-4.6h-1.3v9.1H133.7z"/>
			<path class="st0" d="M153.9,22.8h-5.7l-1,2.7h-3.3l6.1-14.5h2.3l6.1,14.5h-3.3L153.9,22.8z M152.8,20.1l-1.8-4.7l-1.8,4.7H152.8z
				"/>
			<path class="st0" d="M160.2,18.2c0-4.6,2.9-7.6,7.4-7.6c3.2,0,5.7,1.6,6.8,4.3l-2.8,1.1c-0.6-1.7-2-2.6-4-2.6
				c-2.7,0-4.3,1.7-4.3,4.8c0,3.1,1.6,4.8,4.4,4.8c2,0,3.4-0.9,3.9-2.7l2.8,1c-1.1,2.8-3.5,4.4-6.8,4.4
				C163.1,25.8,160.2,22.8,160.2,18.2z"/>
			<path class="st0" d="M178.4,11h10v2.7h-7v3h6.5v2.7h-6.5v3.4h7v2.7h-10V11z"/>
			<path class="st0" d="M99,38.6h-4.5v-2.7h12.1v2.7h-4.5v11.8h-3V38.6z"/>
			<path class="st0" d="M108.3,43.1c0-4.6,2.9-7.6,7.2-7.6c4.3,0,7.2,3,7.2,7.6c0,4.6-3,7.6-7.2,7.6
				C111.2,50.7,108.3,47.7,108.3,43.1z M119.7,43.1c0-3-1.6-4.8-4.2-4.8c-2.6,0-4.2,1.8-4.2,4.8c0,3,1.7,4.8,4.2,4.8
				C118.1,47.9,119.7,46.1,119.7,43.1z"/>
			<path class="st0" d="M142.2,35.9v14.5h-3V40l-3.4,9.1h-2.9l-3.4-9v10.3h-3V35.9h4.3l3.5,9.7l3.6-9.7H142.2z"/>
			<path class="st0" d="M156.2,47.6h-5.7l-1,2.7h-3.3l6.1-14.5h2.3l6.1,14.5h-3.3L156.2,47.6z M155.2,44.9l-1.8-4.7l-1.8,4.7H155.2z
				"/>
			<path class="st0" d="M178.4,35.9h10v2.7h-7v3h6.5v2.7h-6.5v3.4h7v2.7h-10V35.9z"/>
			<path class="st0" d="M95.6,60.7h5.4c3,0,4.8,1.4,4.8,3.7c0,1.3-0.6,2.4-1.5,3c1.6,0.6,2.4,1.8,2.4,3.6c0,2.7-1.9,4.3-4.9,4.3
				h-6.1V60.7z M101,66.3c1.2,0,1.8-0.5,1.8-1.5c0-1-0.7-1.4-1.8-1.4h-2.4v2.9H101z M101.5,72.5c1.4,0,2.1-0.7,2.1-1.8
				c0-1.4-1.1-1.7-2.1-1.7h-2.9v3.5H101.5z"/>
			<path class="st0" d="M119.1,72.5h-5.7l-1,2.7H109l6.1-14.5h2.3l6.1,14.5h-3.3L119.1,72.5z M118.1,69.8l-1.8-4.7l-1.8,4.7H118.1z"
				/>
			<path class="st0" d="M128.5,63.4H124v-2.7h12.1v2.7h-4.5v11.8h-3V63.4z"/>
			<path class="st0" d="M140.4,60.7h3v14.5h-3V60.7z"/>
			<path class="st0" d="M171.2,42.3l-2.2-0.8c-1.6-0.6-2.2-1.2-2.2-2c0-0.9,0.7-1.4,1.9-1.4c1.4,0,2.2,0.7,2.2,2.1v0.3h3v-0.3
				c0-2.8-2.1-4.6-5.1-4.6c-2.9,0-5,1.7-5,4.1c0,1.9,1,3.2,3,4l2.4,0.9c1.5,0.6,2,1,2,1.9c0,1.4-1.2,1.7-2.2,1.7
				c-1.6,0-2.6-1-2.6-2.6v-0.3h-3v0.3c0,3.3,2.1,5.2,5.6,5.2c3.1,0,5.2-1.7,5.2-4.3C174.2,44.4,173.2,43.1,171.2,42.3z"/>
			<rect x="150.7" y="31.9" transform="matrix(0.908 -0.419 0.419 0.908 0.3473 67.2483)" class="st0" width="5.1" height="1.9"/>
			<polygon class="st0" points="167.1,30.9 165.7,32.2 168.8,34.7 171.9,32.1 170.5,30.8 168.8,32.3 			"/>
		</g>
		<g>
			<path class="st0" d="M151.6,66.9c-0.5-0.3-0.9-0.7-1.1-1.2c-0.3-0.5-0.4-1.1-0.4-1.7c0-0.6,0.1-1.2,0.4-1.7s0.6-0.9,1.1-1.2
				c0.5-0.3,1.1-0.4,1.7-0.4s1.2,0.1,1.7,0.4s0.9,0.7,1.1,1.2c0.3,0.5,0.4,1.1,0.4,1.7c0,0.6-0.1,1.2-0.4,1.7
				c-0.3,0.5-0.6,0.9-1.1,1.2c-0.5,0.3-1.1,0.4-1.7,0.4S152.1,67.2,151.6,66.9z M154.6,66.3c0.4-0.2,0.7-0.6,0.9-1
				c0.2-0.4,0.3-0.8,0.3-1.3c0-0.5-0.1-0.9-0.3-1.3c-0.2-0.4-0.5-0.7-0.9-1c-0.4-0.2-0.8-0.4-1.3-0.4s-0.9,0.1-1.3,0.4
				c-0.4,0.2-0.7,0.6-0.9,1c-0.2,0.4-0.3,0.8-0.3,1.3c0,0.5,0.1,0.9,0.3,1.3c0.2,0.4,0.5,0.7,0.9,1c0.4,0.2,0.8,0.4,1.3,0.4
				S154.3,66.5,154.6,66.3z M152.1,62.3h1.4c0.4,0,0.6,0.1,0.9,0.4c0.2,0.2,0.3,0.5,0.3,0.9c0,0.2-0.1,0.5-0.2,0.7
				c-0.1,0.2-0.3,0.3-0.5,0.4l0.7,1.1H154l-0.6-1h-0.6v1h-0.6V62.3z M153.5,64.1c0.2,0,0.3-0.1,0.4-0.2c0.1-0.1,0.2-0.3,0.2-0.4
				c0-0.2-0.1-0.3-0.2-0.5c-0.1-0.1-0.2-0.2-0.4-0.2h-0.7v1.3H153.5z"/>
		</g>
	</g>
</g>
</svg>
