<svg width="112" height="84" viewBox="0 0 112 84" fill="none" xmlns="http://www.w3.org/2000/svg">
<path d="M107.791 82.3725C108.542 82.926 109.575 82.24 109.356 81.3329L106.807 70.7655C106.699 70.3164 106.297 70 105.835 70L94.0429 70C93.0776 70 92.6726 71.2324 93.4497 71.8051L107.791 82.3725Z" fill="#DCA15F"/>
<rect x="54" y="31" width="58" height="42" rx="3" fill="#DCA15F"/>
<circle cx="71.0327" cy="59.0327" r="4.03268" fill="#234526"/>
<circle cx="83.5014" cy="59.0327" r="4.03268" fill="#234526"/>
<circle cx="95.9663" cy="59.0327" r="4.03268" fill="#234526"/>
<rect width="74" height="51" rx="3" fill="#6A994E"/>
<path d="M8.2137 64.7782C7.47161 65.3554 6.41542 64.6825 6.6249 63.7661L9.82236 49.7772C9.92629 49.3225 10.3308 49 10.7972 49L25.5855 49C26.5376 49 26.951 50.2048 26.1994 50.7894L8.2137 64.7782Z" fill="#6A994E"/>
<circle cx="21.2547" cy="34.2547" r="5.2547" fill="#DDA15E"/>
<circle cx="37.5008" cy="34.2547" r="5.2547" fill="#DDA15E"/>
<circle cx="53.7469" cy="34.2547" r="5.2547" fill="#DDA15E"/>
</svg>
