<svg width="111" height="113" viewBox="0 0 111 113" fill="none" xmlns="http://www.w3.org/2000/svg">
<g clip-path="url(#clip0_58_558)">
<path d="M37.5061 56.2573C37.7437 45.9651 45.8325 37.6992 55.7842 37.6992C65.7312 37.6992 73.8199 45.9651 74.0623 56.2573L37.5109 56.2573L37.5061 56.2573Z" fill="#234526"/>
<path d="M37.5061 56.2583C37.7437 66.1102 45.8325 74.0258 55.7842 74.0258C65.7359 74.0258 73.8199 66.1102 74.0623 56.2583L37.5109 56.2583L37.5061 56.2583Z" fill="#BC6C25"/>
<path d="M0.160767 56.0147L55.3463 113C24.8663 113 0.160767 87.4855 0.160767 56.0147Z" fill="#DDA15E"/>
<path d="M0.160767 56.0147L55.3463 113C55.3463 81.5292 30.636 56.0147 0.160767 56.0147Z" fill="#6A984D"/>
<path d="M111 55.7531L55.7814 113C86.2802 113 111 87.3714 111 55.7531Z" fill="#6A994E"/>
<path d="M111 55.7531L55.7814 113C55.7814 81.3864 80.5058 55.7531 111 55.7531Z" fill="#DDA15E"/>
<path d="M55.7814 64.1643C60.2869 64.1643 63.9393 60.4901 63.9393 55.9577C63.9393 51.4252 60.2869 47.751 55.7814 47.751C51.2758 47.751 47.6234 51.4252 47.6234 55.9577C47.6234 60.4901 51.2758 64.1643 55.7814 64.1643Z" fill="#FEFAE0"/>
</g>
<defs>
<clipPath id="clip0_58_558">
<rect width="111" height="113" fill="white"/>
</clipPath>
</defs>
</svg>
