<?xml version="1.0" encoding="utf-8"?>
<!-- Generator: Adobe Illustrator 28.0.0, SVG Export Plug-In . SVG Version: 6.00 Build 0)  -->
<svg version="1.1" id="Layer_1" xmlns="http://www.w3.org/2000/svg" xmlns:xlink="http://www.w3.org/1999/xlink" x="0px" y="0px"
	 viewBox="0 0 350 350" style="enable-background:new 0 0 350 350;" xml:space="preserve">
<style type="text/css">
	.st0{fill:#D25D18;}
	.st1{fill:#E6791C;}
	.st2{fill:#F68E1B;}
	.st3{fill:#FFB947;}
	.st4{fill:#8E3316;}
	.st5{fill:#722611;}
	.st6{fill:#A34229;}
	.st7{fill:#FFDA72;}
</style>
<g>
	<path class="st0" d="M311.9,153.6c2,10.1,3.9,24.4,1.7,33.9c-2.1,8.8-8.2,16.5-10.9,25.3c-3,9.9-3.5,18.4-9.9,27
		c-2.8,3.8-7.2,6.4-9.8,10.1c-4.7,6.5-6.5,14.3-12.2,20.6c-3.4,3.8-9.1,10-14,11.6c-5.1,1.6-9.3-1.8-15.1,0.9
		c-6.7,3.1-5,7.1-9.1,11.6c-3.7,4-8.6,5.9-13.9,7.9c-22,8-37.9,4.6-59-2.1c-28.3-8.9-55.1-3.2-79.1-24.4
		c-13.1-11.6-23.1-24.3-28.4-41.1c-3.2-10.1-4.5-17.5-9.1-26.8c-4-8-7.4-15.7-7.3-24.7c0.1-6.2,3.8-12.4,3.9-18.3
		c0.2-14.6-4.3-25.8,2-40.4c6.1-14,15.8-27.7,26.1-39c12.9-14.1,26.6-16.3,42.2-24.8c7.9-4.3,12.3-11.8,21-15.1
		c6.6-2.5,13.3-1.5,20.1-2.4c14.5-1.9,24.9-3.1,39.1,0.5c9,2.3,15.2,3.9,24.4,5.1c7.7,1,16.6,5,23.3,8.8c6,3.5,5.8,5.9,11,9.5
		c5.7,4,13.1,5.4,19.1,9.3c18.3,11.7,23.5,30,32.7,48.1C305,133.3,309.8,143.4,311.9,153.6z"/>
	<path class="st1" d="M82.2,81.1c0,0-25.4,24.8-29.9,34.3c-4.5,9.5-8.3,24.2-8.3,31.2c0,7,1.3,12.1,4.5,13.4
		c3.2,1.3,14.6-7.6,14.6-7.6s-14,14-16.5,24.8s0.6,15.9,3.8,22.3c3.2,6.4,10.2,14.6,10.8,29.3c0.6,14.6,28,45.8,42.6,49.6
		c14.6,3.8,38.8-3.2,57.2,8.9c18.4,12.1,43.3,12.7,56.6,3.8c13.4-8.9,6.4-14,12.1-21c5.7-7,17-5.2,22.9-5.1
		c17.8,0.2,11.9-26.9,26.1-32.4c10.9-4.2,15.9-20.4,15.9-32.4c0-12.1,10.2-26.7,7.6-40.1c-2.5-13.4-14.6-65.5-38.2-78.9
		c-23.5-13.4-34.3-1.3-40.1-12.7c-5.7-11.4-12.7-14.6-28.6-14c-15.9,0.6-5.1-7.6-29.3-5.7s-33.7-2.5-39.4,8.3
		c-5.7,10.8-14,14-21.6,14.6S82.2,81.1,82.2,81.1z"/>
	<path class="st2" d="M63.1,152.3c5.4-0.5,0.6,12.7-3.2,18.4c-3.8,5.7-8.9,17.8-3.8,25.4c5.1,7.6,17.8,10.8,16.5,26.1
		c-1.3,15.3,12.1,34.3,19.7,38.2c7.6,3.8,31.2-4.5,47.1,1.9c15.9,6.4,34.3,25.4,45.8,25.4c11.4,0,27.4-0.6,31.2-12.1
		c3.8-11.4,22.9-21.6,32.4-21c9.5,0.6,8.6-21.5,20.2-29.8c11.6-8.3,22.4-3.3,18-27.4s9.5-15.9,7.6-31.8
		c-1.9-15.9-10.8-66.8-30.5-78.2c-19.7-11.4-34.3-5.1-42-14c-7.6-8.9-6.4-15.9-25.4-15.3c-19.1,0.6-8.3-2.5-24.8-5.1
		c-16.5-2.5-31.2-3.8-38.2,1.9c-7,5.7-4.5,15.3-13.4,17.2c-8.9,1.9-23.2,2.1-32.6,9.6c-9.4,7.6-23.4,21.5-29.8,36.2
		C51.7,132.6,44.1,154.2,63.1,152.3z"/>
	<path class="st3" d="M156.9,183.5c-1.2,1.5-2.7,2.9-3.1,4.8c-0.6,2.9,1.7,5.4,3.6,7.6c3.6,4.2,6.8,9.5,5.8,14.9
		c-0.3,1.7-1.1,3.4-1,5.2c0.2,4.1,4.8,6.4,8.7,7.8c2.4,0.9,5.1,1.7,7.3,0.5c1.7-1,2.6-3,3.3-4.8c2.4-6.9,4.9-13.4,5.8-20.7
		c0.5-4.1,0.8-11.4-0.6-15.3c-0.8-2.3-2.2-4.3-3.8-6.1c-2.4-2.9-13.5-11.3-17.9-9.6C160.9,169.3,162.8,176.1,156.9,183.5z"/>
	<path class="st3" d="M190.8,154.1c0.1,1.1,1,2,2,2.6c3.1,1.9,7.2,1.6,10.4,3.3c5.5,2.9,6.1,10.4,6.7,16.6
		c0.7,7.8-8.1,16.1-4.2,24.2c3.8,7.9,19.2,4.3,26.5-0.5c2.1-1.4,3.9-3.2,5.9-4.8c2.8-2.2,6.2-3.7,9.6-4.4c1.5-0.3,3.1-0.5,4.2-1.6
		c1.3-1.2,1.5-3.3,1.4-5.1c-0.6-10.1-7.7-19.6-17.2-23c-6.6-2.4-9.4-1.9-12.5-8.3c-3.1-6.3-10-9.4-17.1-9
		C203.7,144.1,190.4,150.7,190.8,154.1z"/>
	<path class="st3" d="M125.9,160.7c-5.3,7.7-2.2,18.6,3.7,25.9c4.1,5.1,9.8,10.5,8.3,16.9c-0.5,2.2-2,4.2-3.4,6
		c-2.9,3.9-5.9,7.8-8.8,11.7c-1.7,2.2-4.3,4.7-6.8,3.4c-2-1-2.1-3.8-3.4-5.6c-2.2-3.2-7-2.9-10.8-1.8c-3.7,1.1-7.9,2.7-11.4,0.8
		c-5-2.7-4.4-10.2-1.6-15.2c2.7-5,6.9-9.6,6.9-15.3c0-3.4-1.8-6.8-4.5-8.9c-2.1-1.5-4.7-2.3-6.9-3.7c-6-4-7.4-12.7-5.1-19.5
		c3.5-10.6,15.1-26.6,24.8-13.1c1.6,2.2,3.4,4.4,6,4.9c2.7,0.6,5.2-1,7.7-2.1c4.7-2.1,11.1-16.7,16.2-12.9
		c5.1,3.8,17.8,14,15.3,19.7s-8.9,2.5-14,3.2C133.1,155.5,127.7,158.2,125.9,160.7z"/>
	<path class="st3" d="M149.6,119.3c0.7,1.5,2.7,2.1,4.3,2.6c3.7,1.1,7.5-1.1,11.3-2.1c4.2-1.1,8.7-0.8,12.7,0.8
		c5.2,2.1,10.2,7.8,15.4,5.8c4.8-1.9,10.2-8.4,15.4-1.5c0.9,1.2,1.7,2.6,3.1,3.1c2.7,1,5.1-2.3,5.7-5.1
		c2.5-11.3-10.5-22.7-21.7-25.5c-4.1-1-8.3,1.3-11.4,4.3c-3,3-5.3,6.6-8.6,9.3c-1.1,0.9-2.4,1.7-3.8,1.7c-2.7,0-4.6-3-4.4-5.7
		c0.1-2.7,1.6-5.1,2.9-7.5c0.5-0.9,1.9-6.1,1.7-7.1c-0.3-1.1-1.5-1.8-2.5-2.2c-5.8-2.4-13.7,6.7-19.9,6.1c-10.6-1.1-17.2-7.6-20.4,0
		c-3.2,7.6-3.2,17.2,3.2,15.9C138.8,111,147.7,114.9,149.6,119.3z"/>
	<path class="st3" d="M93.7,96.4c-7.3,3.2-11.9,7.3-11.4,20.4c0.1,4.5-8.3,9.2-10.7,5.4c-0.7-1.2-0.9-2.6-1-3.9
		c-0.8-17.4,14.2-34.5,36.5-37.7c14.5-2.1,24.2-8.9,28-15.3c3.8-6.4,6.4,5.1,6.4,5.1l-2.5,5.1c0,0-12.1-1.9-16.5,7.6
		c-4.5,9.5-3.2,12.1-10.8,13.4C103.9,97.6,99.4,93.8,93.7,96.4z"/>
	<path class="st3" d="M245.3,104.5c-4.5,0.8-8.2,5.1-8.3,9.7c-0.2,4.6,3.2,9.1,7.6,10.2c2.6,0.7,5.3,0.3,8,0.8
		c5.6,1,10,5.5,12.3,10.6s2.9,10.9,3.2,16.5c0.3,3.8,0.5,7.8,2.3,11.2c1.8,3.4,5.7,6,9.4,5.1c4.8-1.2,6.5-7.1,6.7-12
		c0.4-12.6-4.1-24.7-8.5-36.5c-3.6-9.5-7.7-20.3-15.8-26.9C250.3,83.4,242.6,89.7,245.3,104.5z"/>
	<path class="st1" d="M93.5,238.5c4.9-2.8,9.4-6,13.6-9.7c-0.2,4.8,0,10.5,3.9,13.4c4.2,3.1,10.4,1.1,13.9-2.8
		c3.4-3.9,4.9-9.1,6.7-14c1.8-4.9,4.5-9.9,9.2-12.1c3.3-1.5,7.7-1.8,9.4-5c1.1-2,0.7-4.5,0-6.6c-1.7-5.3-4.9-10-7.1-15.1
		c-2.2-5.1-3.3-11.2-0.8-16.2c1.5-3.1,6.1-5.4,8.3-2.7c-5.8,5-5,14.3-1.8,21.2c3.1,6.9,8.1,13.2,9.5,20.7c0.2,1,0.3,2-0.1,3
		c-1.1,3.1-5.4,2.7-8.7,3.1c-7.3,0.8-12.3,7.7-15.2,14.5s-4.9,14.2-10.3,19.2c-0.9,0.9-2,1.7-2.6,2.8c-0.7,1.3-0.8,2.8-0.8,4.3
		c0.2,5.1,1.9,10.2,4.9,14.4c-4.8-6.6-18.2,4.6-21.9-5.5c-1.2-3.4,1-9.2-0.7-13.6C101.1,246.7,97,242.4,93.5,238.5z"/>
	<path class="st1" d="M67,213.6c5.1-7.1,6.9-16.5,4.9-25c-0.2-0.7-0.3-1.4,0.1-2c0.4-0.5,1.1-0.6,1.7-0.7c5.5-0.6,12.3-0.5,14.9,4.4
		c-4.4,2.3-7.4,7.2-7.4,12.1c0,2.5,0.7,5,0.6,7.5c-0.1,9.3-9.6,16.1-11.3,25.3c-1.2-7.6-2.5-15.2-3.7-22.8L67,213.6z"/>
	<path class="st1" d="M76.5,140.2c4.8-6.3,6.7-14.6,12.3-20.1c8.1-8,22.2-8.5,28.9-17.7c3.8-5.3,4.4-12.4,8.4-17.6
		c0.8,7.7-2.3,15.2-5.3,22.3c-3,7.1-6.9,15-14.3,16.9c-3.4,0.9-7.1,0.2-10.5,1.2c-8.9,2.6-11.2,13.8-16.4,21.5
		c-6.6,9.9-18.9,14.5-26.3,23.8c0-7.5-2-15.4,3.8-19.9C63.1,146.1,71,147.7,76.5,140.2z"/>
	<path class="st1" d="M173.4,164.6c8.7,5.2,17.2,6.5,19.5,16.3c3.2,13.7-9.1,33.5-1.3,45.3c1.7,2.6,4.4,4.5,6.5,6.9
		c7.7,8.7,7.1,22.4,1.8,32.7c-5.4,10.3-14.5,18-23.5,25.3c9.5,0.4,19,0.9,28.5,1.3c-4.8-0.4-6.4-7.1-4.5-11.5
		c1.9-4.4,5.7-7.8,7.5-12.3c2-5,1.1-10.7,2.6-15.9c1.7-5.6,6-10,8-15.5c3.8-10.2-2.4-22.9-12.7-26.2c-1.6-0.5-3.4-0.9-4.6-2
		c-1.9-1.6-2.1-4.4-2.1-6.9c0.1-10.9,9.8-21.9,3.4-30.7c-5-6.9-20.7-10.3-28.1-14.5c-7.1-4-13.3-12.5-9.6-20.7
		c-7.9-4.1-9.6,3.7-8.4,9.5C158.2,153.8,166.7,160.6,173.4,164.6z"/>
	<path class="st1" d="M273,182.8c6,1.4,11.4,5.2,14.8,10.3c2-4.3,4.2-8.5,6.6-12.6c-6.1,0.6-12.3,1.2-18.3-0.4
		c-5.9-1.6-11.5-5.9-12.8-11.9c-1.5-6.6,2.4-13.7,0.3-20.1c-3.5-10.5-18.7-10.4-26.9-17.8c-5-4.5-7.1-11.6-6.9-18.4
		c0.2-6.8,2.3-13.3,4.5-19.7c-4.1,2.7-9.5-0.5-12.8-4.2c-3.3-3.6-6.4-8.2-11.2-8.9c-3-0.4-6,0.8-8.9,2.1
		c-12,5.3-25.6,12.7-27.2,25.7c6.3-7.1,13.9-13,22.2-17.5c2.7-1.4,5.9-2.7,8.6-1.4c2.3,1.1,3.3,3.6,4.7,5.7
		c3.3,4.9,9.1,7.2,14.8,7.5c-4,13.3-3.2,42.8,7.3,53.9c6.2,6.5,16.5,3.9,22.8,9.3C264.2,172.8,258.1,179.3,273,182.8z"/>
	<path class="st1" d="M238.5,226c1.6,0.1,3.3,0.2,4.8-0.4c1.6-0.5,2.8-1.7,4-2.9c3.2-3.4,5.6-7.4,7.1-11.8c0.8-2.4,1.5-5.1,3.7-6.3
		c2.2-1.3,4.9-0.5,7.2,0.5c2.3,1,4.7,2.2,7.2,1.8c2.5-0.4,4.6-3.5,3.1-5.5c2.4,3.3,10.8-2.1,11.5-15.5c0.8,7.7,7,28-9.3,39.7
		c-2.6,1.9-2.4,0.7-5.1-0.9c-1.8-1.1-5.5-2.5-9.3-3.2c-3.4-0.6-6.7,0.9-9.2,3.3c-2.4,2.4-4.4,5.3-7.3,7.1c-3.3,2-7.3,2.4-11.1,2.5
		c-8.6,0.2-17.3-0.4-25.8-2c-1-4.5-2.1-9-3.1-13.5C206.9,225.5,235.6,225.8,238.5,226z"/>
	<path class="st1" d="M145.8,122.2c-2.4-2.7-5-6.2-8.7-6.2c-3.2,0.1-5.6,2.9-7.4,5.5c-4.9,6.8-9.5,13.8-13.8,21
		c6.2-5.5,12.4-11,18.5-16.5c0.6-0.5,1.2-1,1.9-1c0.6,0,1.1,0.4,1.6,0.8c8.7,6.9,17.3,14.6,26.6,20.6
		C168,130.4,154.4,131.9,145.8,122.2z"/>
	<path class="st1" d="M233.4,149.1c-0.3,0.4,0.8,0.4,0.7,0c-0.1-0.5-0.7-0.7-1.2-0.7c-9.4-1.4-18.4-5.4-25.8-11.4
		c-4.4,5.4-12.9,5-18.4,9.2c-5.7,4.4-6.8,12.4-7.5,19.6c-3.3-3.6-8.6-5.1-11.9-8.6c-0.4-0.4-0.8-0.9-1-1.5c-0.2-0.8,0.3-1.6,0.7-2.3
		c3.4-5.8,6.1-12.1,8.1-18.5c9,5,21.9,0.4,25.6-9.2c9.1,8.9,20.5,15.4,32.8,18.5C235.6,145.9,233.3,147.3,233.4,149.1z"/>
	<path class="st4" d="M61.4,183.7c0.7,4.3,2.9,8.2,5.5,11.7c1.6,2.1,3.5,4.2,6,5.1c2.5,0.9,5.7,0.2,7-2.1c1.2-2.1,0.7-5.3,2.9-6.4
		c1.8-0.9,4.3,0.5,5.9-0.8c1.4-1.2,0.6-3.5-0.9-4.6c-1.4-1.1-3.3-1.5-4.8-2.5c-3.2-2.2-4-6.5-6.1-9.8c-1.2-2-3-3.6-5-4.7
		C63,165,60.3,177.6,61.4,183.7z"/>
	<path class="st4" d="M115.5,247.2c-0.5-6.2-1-12.4-1.5-18.6c-0.1-1-0.2-2-0.6-2.9c-1.5-2.9-5.1-4.4-8.2-3.4
		c-4.3,1.3-8.5,7.5-12.5,9.6c-1.3,0.6-2.6,1.4-3.3,2.7c-1.1,2.4,0.9,5.1,3.4,6.1c2.4,1,5.2,0.8,7.7,1.6c4.4,1.2,7.7,4.9,11.5,7.4
		c0.8,0.5,1.8,1,2.7,0.5C115.5,249.6,115.5,248.3,115.5,247.2z"/>
	<path class="st4" d="M154.5,261.3c1.5,0.6,3.1,0.6,4.6,0.9c3.7,0.7,7.1,3,8.8,6.2c0.6,1,1,2.2,1.9,3c1.7,1.6,4.8,1.4,6.7,0.1
		c2-1.4,3-3.6,3.6-5.8c1.8-6.8-0.5-14.6-6.4-18.8C160.3,237.4,142.5,256.4,154.5,261.3z"/>
	<path class="st4" d="M252.8,205.4c1.6,4.8,5.4,8.7,10.1,10.5c4.7,1.7,10.2,1.2,14.5-1.4c1.7-1.1,3.3-2.5,4.1-4.4
		c1.8-4.4-1.4-9.1-4.7-12.5c-1.9-1.9-4-3.7-6.6-4.3C262.2,191.7,249.7,195.9,252.8,205.4z"/>
	<path class="st4" d="M131,171c0.1,4.2,2.7,7.9,5.5,10.9c2.2,2.3,4.8,4.5,7.9,4.6c2.8,0.1,5.4-1.5,7.2-3.6c1.7-2.2,2.7-4.8,3.5-7.5
		c1.1-3.8,1.7-8.3-1-11.2c-1.4-1.5-3.5-2.3-5.6-2.7C141.8,160.3,130.9,161.8,131,171z"/>
	<path class="st1" d="M103.2,159.3c-3.3-2.2-9.5,12.7-5.7,14C101.3,174.6,108.9,163.2,103.2,159.3z"/>
	<path class="st1" d="M115.3,151.7c-5.5-1.6-4.5,11.4-0.6,9.5C118.5,159.3,119.8,153,115.3,151.7z"/>
	<path class="st1" d="M247,240.1c-3.8-3.8-10.8,1.3-8.3,5.1C241.3,249,250.8,243.9,247,240.1z"/>
	<path class="st1" d="M235.5,192.4c-5,0.8-10.2-9.5-5.7-11.4C234.3,179.1,239.3,191.8,235.5,192.4z"/>
	<path class="st2" d="M233,163.8c-4,0-3.8,7.6,0,7.6C236.8,171.4,236.8,163.8,233,163.8z"/>
	<path class="st2" d="M263,117.2c-2.2-0.4-4.8,5.7-2.2,6.1C263.5,123.7,265.7,117.6,263,117.2z"/>
	<path class="st2" d="M114.7,176.5c-3-1.2-2.5,6.4,0.6,6.4S117.8,177.8,114.7,176.5z"/>
	<path class="st1" d="M147.1,222.3c-4.1,2.1,0,10.2,3.8,8.3C154.7,228.7,150.9,220.4,147.1,222.3z"/>
	<path class="st1" d="M269.9,163.8c0,0,6.4,12.1,12.7,8.9c6.4-3.2,3.8-21,3.8-21s-1.9,14-5.7,15.9
		C274.8,170.5,269.9,163.8,269.9,163.8z"/>
	<path class="st1" d="M65.1,122.4c-3.9,5.1-0.2,34.6-6.6,34.1C48.4,155.9,61.6,126.9,65.1,122.4z"/>
	<path class="st4" d="M92.2,101.8c-3.8,4.1-6,9.7-6.2,15.3c-0.1,1.4,0.1,3,0.9,4.2c1.5,2.1,4.7,2.1,7.3,1.5
		c5.2-1.1,10.1-3.5,14.3-6.8c2.4-1.9,4.8-4.7,4.2-7.7c-0.4-2.6-2.8-4.4-5.2-5.5c-4.6-2.1-10-2.5-14.9-1.1L92.2,101.8z"/>
	<path class="st5" d="M87.9,186.7c0.6,2.4-2,2.5-6.4,3.1c-4.4,0.7-1.2,5.7-8.2,5.8c-7,0.1-12-16.9-12-16.9l0,0
		c-0.2,1.8-0.1,3.5,0.1,4.9c0.7,4.3,2.9,8.2,5.5,11.7c1.6,2.1,3.5,4.2,6,5.1c2.5,0.9,5.7,0.2,7-2.1c1.2-2.1,0.7-5.3,2.9-6.4
		c1.8-0.9,4.3,0.5,5.9-0.8C90,190.1,89.3,187.8,87.9,186.7z"/>
	<path class="st5" d="M113.9,228.8c-0.5,4.4-1.1,8.9-1.6,13.3c0,0.3-0.1,0.7-0.3,1c-0.7,1-2.3,0.4-3.2-0.4c-2.5-2.1-4.6-4.9-7.8-5.7
		c-2.2-0.5-4.5,0-6.7-0.5c-1.8-0.4-3.5-1.9-3.6-3.6c-0.6,0.4-1,0.9-1.4,1.5c-1.1,2.4,0.9,5.1,3.4,6.1c2.4,1,5.2,0.8,7.7,1.6
		c4.4,1.2,7.7,4.9,11.5,7.4c0.8,0.5,1.8,1,2.7,0.5c0.9-0.5,1-1.8,0.9-2.9C115,241.1,114.4,234.9,113.9,228.8z"/>
	<path class="st5" d="M172.3,267.1c-3.6-1.2-4.5-6-7.7-8.1c-3.6-2.3-9.6-0.7-11.8-4.4c-0.5-0.9-0.7-2-0.6-3.2
		c-2.5,3.7-2.5,7.9,2.3,9.9c1.5,0.6,3.1,0.6,4.6,0.9c3.7,0.7,7.1,3,8.8,6.2c0.6,1,1,2.2,1.9,3c1.7,1.6,4.8,1.4,6.7,0.1
		c2-1.4,3-3.6,3.6-5.8c0.5-1.7,0.6-3.5,0.6-5.3c-0.4,1.4-1,2.7-1.8,3.9C177.5,266.4,174.8,267.9,172.3,267.1z"/>
	<path class="st5" d="M156.1,170.3c0-0.6-0.1-1.2-0.1-1.8c-0.1-0.6-0.2-1.3-0.4-1.9c-1.1,3.1-2.8,6-4.8,8.5c-1.6,2-3.7,3.9-6.3,4.4
		c-3.7,0.6-7.1-2-9.4-4.9c-1.1-1.4-2.1-3-2.5-4.7c-0.2-0.8,0-2.6-0.1-4c-0.9,1.4-1.5,3-1.4,5.1c0.1,4.2,2.7,7.9,5.5,10.9
		c2.2,2.3,4.8,4.5,7.9,4.6c2.8,0.1,5.4-1.5,7.2-3.6c1.7-2.2,2.7-4.8,3.5-7.5C155.6,173.8,156,172,156.1,170.3z"/>
	<path class="st5" d="M111,105.1c-0.1,1.3-0.6,2.5-1.3,3.6c-1.1,1.6-2.7,2.8-4.2,4c-3.4,2.6-7.4,5.4-11.6,4.4
		c-1-0.3-2.1-0.8-2.7-1.6c-0.6-0.8-0.8-1.9-0.9-2.9c-0.4-3.8,2.1-7.7,2.4-10.8c0,0,0,0-0.1,0l-0.3,0.2c-3.8,4.1-6,9.7-6.2,15.3
		c-0.1,1.4,0.1,3,0.9,4.2c1.5,2.1,4.7,2.1,7.3,1.5c5.2-1.1,10.1-3.5,14.3-6.8c2.4-1.9,4.8-4.7,4.2-7.7
		C112.5,107,111.8,106,111,105.1z"/>
	<path class="st5" d="M274.4,195.6c1,2,1.9,4.1,2.1,6.3c0.3,2.9-0.7,6.2-3.3,7.7c-1.3,0.7-2.8,1-4.2,1c-4.3,0.1-8.4-1.7-11.5-4.6
		c-1.8-1.6-3-4.3-4.6-6.5c-0.8,1.7-0.9,3.6-0.2,5.9c1.6,4.8,5.4,8.7,10.1,10.5c4.7,1.7,10.2,1.2,14.5-1.4c1.7-1.1,3.3-2.5,4.1-4.4
		c1.8-4.4-1.4-9.1-4.7-12.5C276,196.9,275.2,196.2,274.4,195.6z"/>
	<path class="st6" d="M94.9,104.8c-1.8,3.6,10.6,5.9,11.9,3C108.1,104.8,96.6,101.5,94.9,104.8z"/>
	<path class="st6" d="M134.8,168c-0.5,2.9,14.9,3.6,15.7-0.3C151.3,163.8,135.7,162.9,134.8,168z"/>
	<path class="st6" d="M67,172.3c-3,2.5,5.5,17,9.3,14.4C80.1,184.1,69.9,169.7,67,172.3z"/>
	<path class="st6" d="M105.1,224.9c-3.6,1.5,1.3,13.6,3.8,12.7C111.5,236.7,110.2,222.7,105.1,224.9z"/>
	<path class="st6" d="M158.6,250.7c0.3,3,5.5-0.8,9.3,1.7c3.8,2.5,5.5,9.8,7.6,7.6c2.1-2.1,2.1-9.3-5.1-11.4
		C163.2,246.5,158.1,246.5,158.6,250.7z"/>
	<path class="st6" d="M256.1,200.3c0.7,2.8,7.2-3,11-0.4c3.8,2.5,4.7,3.8,6.4,3c1.7-0.8,0-5.5-4.2-6.4
		C265,195.6,255.2,196.9,256.1,200.3z"/>
	<path class="st0" d="M182.7,140c0,0,6.8,0.4,12.3-2.1c5.5-2.5,9.3-5.9,9.3-5.9s-3.8,6.4-9.8,8.9c-5.9,2.5-13.1,3.4-13.1,3.4
		L182.7,140z"/>
	<path class="st0" d="M170.4,154.5c0,0-0.4,5.5,5.5,8.1s16.1,8.9,18.7,12.7c2.5,3.8,1.3,18.7,0,25c0,0,6.8-20.4,4.2-24.6
		c-2.5-4.2-15.7-12.7-20.4-14.8c-4.7-2.1-4.7-8.1-4.7-8.1L170.4,154.5z"/>
	<path class="st0" d="M106,281.3c0,0,8.1-11,7.6-14.8c-0.4-3.8-4.2-13.1-4.2-13.1s8.1,9.3,8.1,12.7s-2.1,16.1-2.1,16.1L106,281.3z"
		/>
	<path class="st0" d="M46.6,160.4c0,0,6.4-1.7,9.3-4.7c3-3,4.2-14.8,4.2-14.8s1.3,14-2.5,18.7c-3.8,4.7-10.2,8.5-10.2,8.5
		L46.6,160.4z"/>
	<path class="st0" d="M228.1,95.5c0,0-8.5,2.1-12.3-2.1c-3.8-4.2-7.2-9.8-10.2-9.3c-3,0.4-10.6,3.8-10.6,3.8s10.2-5.9,13.6-5.9
		c3.4,0,5.1,5.5,7.6,6.4c2.5,0.8,8.5,1.3,8.5,1.3L228.1,95.5z"/>
	<path class="st0" d="M246.3,152.3c0,0,7.6,3.4,9.8,5.9c2.1,2.5,3.4,8.1,5.1,10.2c0,0,0.4-10.2-1.7-13.6c-2.1-3.4-9.8-9.3-9.8-9.3
		L246.3,152.3z"/>
	<path class="st0" d="M202.2,239.3c0,0,3.4,11.4-0.4,19.9c-3.8,8.5-9.3,17.4-9.3,17.4s10.2-9.3,12.7-18.2c2.5-8.9,2.1-18.7,2.1-18.7
		L202.2,239.3z"/>
	<g>
		<path class="st4" d="M188.3,226.7c1.4,5.2,5.6,9.2,10.2,12c3.9,2.4,8.9,4,13.1,2.1c4.9-2.3,6.5-8.5,6.9-13.9
			c0.2-3.6,0.1-7.4-1.6-10.6C209.1,202,183.5,209.6,188.3,226.7z"/>
		<path class="st5" d="M218.4,226.8c0.1-1.9,0.1-3.9-0.1-5.8c-0.5,2.1-1.1,4.2-2.1,6.1c-1.5,3-3.9,5.6-7,6.7
			c-5.5,1.8-11.4-1.6-15.1-6c-2.7-3.3-4.5-7-4.1-11.3c0-0.5,0.1-0.9,0.2-1.4c-2.2,3-3.2,7-1.9,11.6c1.5,5.2,5.6,9.2,10.2,12
			c3.9,2.4,8.9,4,13.1,2.1C216.4,238.4,218,232.2,218.4,226.8z"/>
		<path class="st6" d="M193.3,217.6c-1.7,3.9,6.4,7.2,10.2,2.5c3.8-4.7,10.2,6.8,10.2,1.7c0-5.1-3-9.8-9.3-9.3
			C198,213,194.6,214.7,193.3,217.6z"/>
	</g>
	<g>
		<path class="st4" d="M155.2,144.7c1.9,5.1,6.6,8.7,11.7,10.6c2.6,0.9,5.6,1.4,7.9-0.1c2.5-1.7,3-5.2,5.1-7.4
			c1.2-1.3,2.8-2.1,4-3.3c3.4-3.4,3.1-9.5,0-13.2C174.2,119.6,148.7,127.4,155.2,144.7z"/>
		<path class="st5" d="M184.2,137.3c-0.6,2.2-2.1,4.2-4.3,4.8c-1.2,0.3-2.6,0.2-3.6,0.8c-1,0.6-1.4,1.8-2.1,2.7
			c-3,4.4-10.2,3.9-13.9,0c-2.9-3-3.8-7.1-4-11.1c0-0.6-0.1-1.2-0.1-1.7c-2,3.1-2.6,7.1-0.8,11.8c1.9,5.1,6.6,8.7,11.7,10.6
			c2.6,0.9,5.6,1.4,7.9-0.1c2.5-1.7,3-5.2,5.1-7.4c1.2-1.3,2.8-2.1,4-3.3c3.2-3.1,3.1-8.5,0.7-12.2
			C184.7,133.9,184.7,135.7,184.2,137.3z"/>
		<path class="st6" d="M159.4,137.9c-3-2.7,2.1-9.3,11.4-8.9c9.3,0.4,12.3,4.7,9.8,7.6c-2.5,3-5.1-3.4-9.8-3
			C166.2,134.1,163.6,141.7,159.4,137.9z"/>
	</g>
	<g>
		<path class="st4" d="M229.3,145.7c1.8,4.6,5.9,7.8,10.4,9.9c2.8,1.3,6.5,2.1,8.6-0.1c0.8-0.8,1.2-2,1.6-3
			c1.4-3.7,2.7-7.4,4.1-11.1c0.4-1.2,0.9-2.4,0.7-3.7c-0.4-3.3-4.4-4.6-7.7-5C238.1,131.8,224.1,132.6,229.3,145.7z"/>
		<path class="st5" d="M249.9,152.4c1.4-3.7,2.7-7.4,4.1-11.1c0.4-1.2,0.9-2.4,0.7-3.7c-0.2-1.3-0.9-2.3-1.9-3
			c0.1,1.3-0.6,2.7-1.5,3.7c-1.2,1.3-2.8,2.3-3.6,3.9c-1.2,2.2-0.9,5.2-2.5,7.2c-2.2,2.6-6.5,1.7-9.2-0.4c-4.1-3.1-6.4-8.7-5.4-13.6
			c-2.3,2-3.2,5.2-1.2,10.3c1.8,4.6,5.9,7.8,10.4,9.9c2.8,1.3,6.5,2.1,8.6-0.1C249.1,154.6,249.5,153.5,249.9,152.4z"/>
		<path class="st6" d="M232.8,138.3c-0.2,2.6,2.1,7.2,6.4,5.9c4.2-1.3,0-4.7,3.4-5.5c3.4-0.8,7.2,0.4,6.4-1.7
			C248,135,233.2,133.7,232.8,138.3z"/>
	</g>
	<g>
		<path class="st4" d="M242.2,81.3c0-2.2-0.9-4-4.8-4.8c-2.6-0.5-5.7,1.1-8.1-0.2c-2.3-1.3-4.5-3.2-7.1-3.4c-4-0.3-7.3,3.7-7.5,7.7
			c-0.1,4,2.1,7.7,4.9,10.6c4,4.3,9.3,7.4,15,9c1.5,0.4,3.4,0.6,4.3-0.6c1.3-1.6-0.2-3.8-0.6-5.8c-0.4-2.2,0.6-4.3,1.7-6.2
			C241,85.5,242.2,83.5,242.2,81.3z"/>
		<path class="st5" d="M238.6,84.1c-0.7,0.3-1.4,0.3-2.1,0.7c-1.7,0.8-1.9,3.1-2,4.9c-0.1,1.9-0.7,4.1-2.5,4.5
			c-0.9,0.2-1.8-0.2-2.7-0.6c-5.9-2.9-9.8-7.8-12.5-13.6c-0.6-1.2-0.9-2-1.3-2.7c-0.5,1-0.8,2.1-0.8,3.3c-0.1,4,2.1,7.7,4.9,10.6
			c4,4.3,9.3,7.4,15,9c1.5,0.4,3.4,0.6,4.3-0.6c1.3-1.6-0.2-3.8-0.6-5.8c-0.4-2.2,0.6-4.3,1.7-6.2c1.1-1.9,2.3-3.9,2.2-6.1
			c0-1.1-0.2-2.1-1-3c-0.3-0.3-0.7-0.5-1-0.8C240.7,79.9,240.8,83,238.6,84.1z"/>
		<path class="st6" d="M220.5,77.7c-2.2,3.1,2.5,11,6.4,10.2c3.8-0.8-0.4-4.7,2.5-5.1c3-0.4,7.6-0.4,6.8-2.1
			c-0.8-1.7-6.8,0.4-9.3-1.7C224.3,76.9,222.6,74.7,220.5,77.7z"/>
	</g>
	<path class="st3" d="M134.4,76c-2.6-4.8-2.5-17.2,6.4-20.4c8.9-3.2,27.4-2.5,38.2,1.9c6.1,2.5,9.5,3.2,16.5,3.2
		c7,0,12.7-0.6,15.9,3.2c3.2,3.8-2.5,12.1-9.5,13.4c-7,1.3-10.8-6.4-15.9-10.8c-5.1-4.5-11.4-6.4-15.9-4.5
		c-4.5,1.9-2.5,9.5-13.4,10.8C145.8,74.1,138.8,84.3,134.4,76z"/>
	<g>
		<path class="st1" d="M162.4,87.9c3-0.8,6.4-4.2,7.2-5.5c1-1.7,0.7-3.5,1.3-5.4c1.1-3.8,6.4-4.4,10.1-3.1c3.7,1.4,7.1,4,11.1,4.1
			c-3.1-2.5-6.2-5-9.3-7.5c-3.3-2.6-7.6-5.4-11.4-3.7c-3.4,1.6-5.3,6.4-9,6.3c-11.1-0.2-22.6-25.6-24.4-0.7
			C136.4,94.3,146.6,92.4,162.4,87.9z"/>
		<path class="st4" d="M158.9,74.2c-3.6-2.8-6.7-6.2-9.2-9.9c-1.7-2.6-3.9-5.8-7-5.4c-2.5,0.3-4,2.8-5.1,5c-1.9,4-3.6,8.2-3.5,12.7
			c0.1,4.4,2.5,9,6.6,10.6c2.1,0.8,4.5,0.8,6.7,0.6C157.1,87,171,83.6,158.9,74.2z"/>
		<path class="st5" d="M158.9,74.2c-2.6-2.1-5-4.4-7.1-7c0.7,1.9,1.6,3.6,2.6,5.3c1,1.6,2.2,3.3,2.1,5.2c-0.4,5.9-8.7,6.2-12.7,5.5
			c-3.8-0.7-6.8-3.4-9.6-7.9c0,0.4,0,0.9,0,1.3c0.1,4.4,2.5,9,6.6,10.6c2.1,0.8,4.5,0.8,6.7,0.6C157.1,87,171,83.6,158.9,74.2z"/>
		<path class="st6" d="M142.4,62.4c-1.8,1.1-3.4,15.7,0.4,15.3c3.8-0.4,8.1-0.4,7.6-3.4C150.1,71.3,144.6,61.2,142.4,62.4z"/>
	</g>
	<path class="st7" d="M150.3,56.9c0.6,3.2,7,5.1,15.9,2.5c8.9-2.5,23.5,5.1,27.4,7.6c3.8,2.5,10.2,3.8,8.9,0.6
		c-1.3-3.2-20.4-8.9-28-10.8C166.8,55,149.7,53.7,150.3,56.9z"/>
	<path class="st7" d="M250.8,91.9c-1.3,1.9,10.8,9.5,20.4,29.9c9.5,20.4,6.4,33.7,9.5,33.7s-1.9-24.2-7-38.8
		C268.6,102.1,253.3,88.1,250.8,91.9z"/>
	<path class="st1" d="M251.4,100.8c-2.6,2.6,3.8,12.1,5.7,8.9C259.1,106.5,254.6,97.6,251.4,100.8z"/>
	<path class="st7" d="M75.2,109.7c-3.4,0,7-17.8,14.6-21c7.6-3.2,20.4-4.5,24.8-6.4c4.5-1.9,8.3,1.9-0.6,4.5
		c-8.9,2.5-17.2,1.3-26.1,8.3C79,102.1,78.4,109.7,75.2,109.7z"/>
	<path class="st7" d="M195.5,154.9c-1.7-2.8,14.5-9.2,17.2-3.8C213.9,153.6,197.4,158.1,195.5,154.9z"/>
	<path class="st7" d="M135,135.8c-2.7,3.6,8.9,15.9,10.8,14C147.7,147.9,136.9,133.3,135,135.8z"/>
	<path class="st7" d="M131.8,97.6c-0.5,3.2,17.2,8.3,23.5,7c6.4-1.3,12.7-6.4,10.8-8.3c-1.9-1.9-7.6,2.5-13.4,3.2
		C147.1,100.2,132.5,93.8,131.8,97.6z"/>
	<path class="st7" d="M159.2,188c0.6,2.2,16.5-3.8,15.3-8.9c-1.3-5.1-7.6-12.1-8.3-7.6C165.6,175.9,158.6,185.4,159.2,188z"/>
	<path class="st7" d="M98.8,142.8c-3.9,0-8.3,5.1-10.2,10.2c-1.9,5.1-3.8,11.4-1.3,12.1c2.5,0.6,1.9-5.1,5.1-8.9
		c3.2-3.8,10.8-2.5,12.1-5.1C105.8,148.5,102.6,142.8,98.8,142.8z"/>
</g>
</svg>
