<svg width="280" height="267" viewBox="0 0 280 267" fill="none" xmlns="http://www.w3.org/2000/svg">
<path d="M276.899 112.6C278.899 122.7 280.799 137 278.599 146.5C276.499 155.3 270.399 163 267.699 171.8C264.699 181.7 264.199 190.2 257.799 198.8C254.999 202.6 250.599 205.2 247.999 208.9C243.299 215.4 241.499 223.2 235.799 229.5C232.399 233.3 226.699 239.5 221.799 241.1C216.699 242.7 212.499 239.3 206.699 242C199.999 245.1 201.699 249.1 197.599 253.6C193.899 257.6 188.999 259.5 183.699 261.5C161.699 269.5 145.799 266.1 124.699 259.4C96.399 250.5 69.599 256.2 45.599 235C32.499 223.4 22.499 210.7 17.199 193.9C13.999 183.8 12.699 176.4 8.09903 167.1C4.09903 159.1 0.699026 151.4 0.799026 142.4C0.899026 136.2 4.59903 130 4.69903 124.1C4.89903 109.5 0.399028 98.2998 6.69903 83.6998C12.799 69.6998 22.499 55.9998 32.799 44.6998C45.699 30.5998 59.399 28.3998 74.999 19.8998C82.899 15.5998 87.299 8.09982 95.999 4.79982C102.599 2.29982 109.299 3.29983 116.099 2.39983C130.599 0.499826 140.999 -0.700174 155.199 2.89983C164.199 5.19983 170.399 6.79982 179.599 7.99982C187.299 8.99982 196.199 12.9998 202.899 16.7998C208.899 20.2998 208.699 22.6998 213.899 26.2998C219.599 30.2998 226.999 31.6998 232.999 35.5998C251.299 47.2998 256.499 65.5998 265.699 83.6998C269.999 92.2998 274.799 102.4 276.899 112.6Z" fill="#D25D18"/>
<path d="M47.2 40.1C47.2 40.1 21.8 64.9 17.3 74.4C12.8 83.9 9 98.6 9 105.6C9 112.6 10.3 117.7 13.5 119C16.7 120.3 28.1 111.4 28.1 111.4C28.1 111.4 14.1 125.4 11.6 136.2C9.1 147 12.2 152.1 15.4 158.5C18.6 164.9 25.6 173.1 26.2 187.8C26.8 202.4 54.2 233.6 68.8 237.4C83.4 241.2 107.6 234.2 126 246.3C144.4 258.4 169.3 259 182.6 250.1C196 241.2 189 236.1 194.7 229.1C200.4 222.1 211.7 223.9 217.6 224C235.4 224.2 229.5 197.1 243.7 191.6C254.6 187.4 259.6 171.2 259.6 159.2C259.6 147.1 269.8 132.5 267.2 119.1C264.7 105.7 252.6 53.6 229 40.2C205.5 26.8 194.7 38.9 188.9 27.5C183.2 16.1 176.2 12.9 160.3 13.5C144.4 14.1 155.2 5.90001 131 7.80001C106.8 9.70001 97.3 5.30001 91.6 16.1C85.9 26.9 77.6 30.1 70 30.7C62.4 31.3 47.2 40.1 47.2 40.1Z" fill="#E6791C"/>
<path d="M28.0984 111.3C33.4984 110.8 28.6984 124 24.8984 129.7C21.0984 135.4 15.9984 147.5 21.0984 155.1C26.1984 162.7 38.8984 165.9 37.5984 181.2C36.2984 196.5 49.6984 215.5 57.2984 219.4C64.8984 223.2 88.4984 214.9 104.398 221.3C120.298 227.7 138.698 246.7 150.198 246.7C161.598 246.7 177.598 246.1 181.398 234.6C185.198 223.2 204.298 213 213.798 213.6C223.298 214.2 222.398 192.1 233.998 183.8C245.598 175.5 256.398 180.5 251.998 156.4C247.598 132.3 261.498 140.5 259.598 124.6C257.698 108.7 248.798 57.7998 229.098 46.3998C209.398 34.9998 194.798 41.2998 187.098 32.3998C179.498 23.4998 180.698 16.4998 161.698 17.0998C142.598 17.6998 153.398 14.5998 136.898 11.9998C120.398 9.49976 105.698 8.19976 98.6984 13.8998C91.6984 19.5998 94.1984 29.1998 85.2984 31.0998C76.3984 32.9998 62.0984 33.1998 52.6984 40.6998C43.2984 48.2998 29.2984 62.1998 22.8984 76.8998C16.6984 91.5998 9.09841 113.2 28.0984 111.3Z" fill="#F68E1B"/>
<path d="M121.9 142.5C120.7 144 119.2 145.4 118.8 147.3C118.2 150.2 120.5 152.7 122.4 154.9C126 159.1 129.2 164.4 128.2 169.8C127.9 171.5 127.1 173.2 127.2 175C127.4 179.1 132 181.4 135.9 182.8C138.3 183.7 141 184.5 143.2 183.3C144.9 182.3 145.8 180.3 146.5 178.5C148.9 171.6 151.4 165.1 152.3 157.8C152.8 153.7 153.1 146.4 151.7 142.5C150.9 140.2 149.5 138.2 147.9 136.4C145.5 133.5 134.4 125.1 130 126.8C125.9 128.3 127.8 135.1 121.9 142.5Z" fill="#FFB947"/>
<path d="M155.798 113.1C155.898 114.2 156.798 115.1 157.798 115.7C160.898 117.6 164.998 117.3 168.198 119C173.698 121.9 174.298 129.4 174.898 135.6C175.598 143.4 166.798 151.7 170.698 159.8C174.498 167.7 189.898 164.1 197.198 159.3C199.298 157.9 201.098 156.1 203.098 154.5C205.898 152.3 209.298 150.8 212.698 150.1C214.198 149.8 215.798 149.6 216.898 148.5C218.198 147.3 218.398 145.2 218.298 143.4C217.698 133.3 210.598 123.8 201.098 120.4C194.498 118 191.698 118.5 188.598 112.1C185.498 105.8 178.598 102.7 171.498 103.1C168.698 103.1 155.398 109.7 155.798 113.1Z" fill="#FFB947"/>
<path d="M90.8975 119.7C85.5975 127.4 88.6975 138.3 94.5975 145.6C98.6975 150.7 104.397 156.1 102.897 162.5C102.397 164.7 100.897 166.7 99.4975 168.5C96.5975 172.4 93.5975 176.3 90.6975 180.2C88.9975 182.4 86.3975 184.9 83.8975 183.6C81.8975 182.6 81.7975 179.8 80.4975 178C78.2975 174.8 73.4975 175.1 69.6975 176.2C65.9975 177.3 61.7975 178.9 58.2975 177C53.2975 174.3 53.8975 166.8 56.6975 161.8C59.3975 156.8 63.5975 152.2 63.5975 146.5C63.5975 143.1 61.7975 139.7 59.0975 137.6C56.9975 136.1 54.3975 135.3 52.1975 133.9C46.1975 129.9 44.7975 121.2 47.0975 114.4C50.5975 103.8 62.1975 87.7998 71.8975 101.3C73.4975 103.5 75.2975 105.7 77.8975 106.2C80.5975 106.8 83.0975 105.2 85.5975 104.1C90.2975 102 96.6975 87.3998 101.797 91.1998C106.897 94.9998 119.597 105.2 117.097 110.9C114.597 116.6 108.197 113.4 103.097 114.1C98.0975 114.5 92.6975 117.2 90.8975 119.7Z" fill="#FFB947"/>
<path d="M114.599 78.3C115.299 79.8 117.299 80.4 118.899 80.9C122.599 82 126.399 79.8 130.199 78.8C134.399 77.7 138.899 78 142.899 79.6C148.099 81.7 153.099 87.4 158.299 85.4C163.099 83.5 168.499 77 173.699 83.9C174.599 85.1 175.399 86.5 176.799 87C179.499 88 181.899 84.7 182.499 81.9C184.999 70.6 171.999 59.2 160.799 56.4C156.699 55.4 152.499 57.7 149.399 60.7C146.399 63.7 144.099 67.3 140.799 70C139.699 70.9 138.399 71.7 136.999 71.7C134.299 71.7 132.399 68.7 132.599 66C132.699 63.3 134.199 60.9 135.499 58.5C135.999 57.6 137.399 52.4 137.199 51.4C136.899 50.3 135.699 49.6 134.699 49.2C128.899 46.8 120.999 55.9 114.799 55.3C104.199 54.2 97.5988 47.7 94.3988 55.3C91.1988 62.9 91.1988 72.5 97.5988 71.2C103.799 70 112.699 73.9 114.599 78.3Z" fill="#FFB947"/>
<path d="M58.7008 55.4C51.4008 58.6 46.8008 62.7 47.3008 75.8C47.4008 80.3 39.0008 85 36.6008 81.2C35.9008 80 35.7008 78.6 35.6008 77.3C34.8008 59.9 49.8008 42.8 72.1008 39.6C86.6008 37.5 96.3008 30.7 100.101 24.3C103.901 17.9 106.501 29.4 106.501 29.4L104.001 34.5C104.001 34.5 91.9008 32.6 87.5008 42.1C83.0008 51.6 84.3008 54.2 76.7008 55.5C68.9008 56.6 64.4008 52.8 58.7008 55.4Z" fill="#FFB947"/>
<path d="M210.301 63.4996C205.801 64.2996 202.101 68.5996 202.001 73.1996C201.801 77.7996 205.201 82.2996 209.601 83.3996C212.201 84.0996 214.901 83.6996 217.601 84.1996C223.201 85.1996 227.601 89.6996 229.901 94.7996C232.201 99.8996 232.801 105.7 233.101 111.3C233.401 115.1 233.601 119.1 235.401 122.5C237.201 125.9 241.101 128.5 244.801 127.6C249.601 126.4 251.301 120.5 251.501 115.6C251.901 103 247.401 90.8996 243.001 79.0996C239.401 69.5996 235.301 58.7996 227.201 52.1996C215.301 42.3996 207.601 48.6996 210.301 63.4996Z" fill="#FFB947"/>
<path d="M58.5 197.5C63.4 194.7 67.9 191.5 72.1 187.8C71.9 192.6 72.1 198.3 76 201.2C80.2 204.3 86.4 202.3 89.9 198.4C93.3 194.5 94.8 189.3 96.6 184.4C98.4 179.5 101.1 174.5 105.8 172.3C109.1 170.8 113.5 170.5 115.2 167.3C116.3 165.3 115.9 162.8 115.2 160.7C113.5 155.4 110.3 150.7 108.1 145.6C105.9 140.5 104.8 134.4 107.3 129.4C108.8 126.3 113.4 124 115.6 126.7C109.8 131.7 110.6 141 113.8 147.9C116.9 154.8 121.9 161.1 123.3 168.6C123.5 169.6 123.6 170.6 123.2 171.6C122.1 174.7 117.8 174.3 114.5 174.7C107.2 175.5 102.2 182.4 99.3 189.2C96.4 196 94.4 203.4 89 208.4C88.1 209.3 87 210.1 86.4 211.2C85.7 212.5 85.6 214 85.6 215.5C85.8 220.6 87.5 225.7 90.5 229.9C85.7 223.3 72.3 234.5 68.6 224.4C67.4 221 69.6 215.2 67.9 210.8C66.1 205.7 62 201.4 58.5 197.5Z" fill="#E6791C"/>
<path d="M32.0008 172.6C37.1008 165.5 38.9008 156.1 36.9008 147.6C36.7008 146.9 36.6008 146.2 37.0008 145.6C37.4008 145.1 38.1008 145 38.7008 144.9C44.2008 144.3 51.0008 144.4 53.6008 149.3C49.2008 151.6 46.2008 156.5 46.2008 161.4C46.2008 163.9 46.9008 166.4 46.8008 168.9C46.7008 178.2 37.2008 185 35.5008 194.2C34.3008 186.6 33.0008 179 31.8008 171.4L32.0008 172.6Z" fill="#E6791C"/>
<path d="M41.498 99.1998C46.298 92.8998 48.198 84.5998 53.798 79.0998C61.898 71.0998 75.998 70.5998 82.698 61.3998C86.498 56.0998 87.098 48.9998 91.098 43.7998C91.898 51.4998 88.798 58.9998 85.798 66.0998C82.798 73.1998 78.898 81.0998 71.498 82.9998C68.098 83.8998 64.398 83.1998 60.998 84.1998C52.098 86.7998 49.798 97.9998 44.598 105.7C37.998 115.6 25.698 120.2 18.298 129.5C18.298 122 16.298 114.1 22.098 109.6C28.098 105.1 35.998 106.7 41.498 99.1998Z" fill="#E6791C"/>
<path d="M138.398 123.6C147.098 128.8 155.598 130.1 157.898 139.9C161.098 153.6 148.798 173.4 156.598 185.2C158.298 187.8 160.998 189.7 163.098 192.1C170.798 200.8 170.198 214.5 164.898 224.8C159.498 235.1 150.398 242.8 141.398 250.1C150.898 250.5 160.398 251 169.898 251.4C165.098 251 163.498 244.3 165.398 239.9C167.298 235.5 171.098 232.1 172.898 227.6C174.898 222.6 173.998 216.9 175.498 211.7C177.198 206.1 181.498 201.7 183.498 196.2C187.298 186 181.098 173.3 170.798 170C169.198 169.5 167.398 169.1 166.198 168C164.298 166.4 164.098 163.6 164.098 161.1C164.198 150.2 173.898 139.2 167.498 130.4C162.498 123.5 146.798 120.1 139.398 115.9C132.298 111.9 126.098 103.4 129.798 95.1998C121.898 91.0998 120.198 98.8998 121.398 104.7C123.198 112.8 131.698 119.6 138.398 123.6Z" fill="#E6791C"/>
<path d="M237.999 141.8C243.999 143.2 249.399 147 252.799 152.1C254.799 147.8 256.999 143.6 259.399 139.5C253.299 140.1 247.099 140.7 241.099 139.1C235.199 137.5 229.599 133.2 228.299 127.2C226.799 120.6 230.699 113.5 228.599 107.1C225.099 96.5997 209.899 96.6997 201.699 89.2997C196.699 84.7997 194.599 77.6997 194.799 70.8997C194.999 64.0997 197.099 57.5997 199.299 51.1997C195.199 53.8997 189.799 50.6997 186.499 46.9997C183.199 43.3997 180.099 38.7997 175.299 38.0997C172.299 37.6997 169.299 38.8997 166.399 40.1997C154.399 45.4997 140.799 52.8997 139.199 65.8997C145.499 58.7997 153.099 52.8997 161.399 48.3997C164.099 46.9997 167.299 45.6997 169.999 46.9997C172.299 48.0997 173.299 50.5997 174.699 52.6997C177.999 57.5997 183.799 59.8997 189.499 60.1997C185.499 73.4997 186.299 103 196.799 114.1C202.999 120.6 213.299 118 219.599 123.4C229.199 131.8 223.099 138.3 237.999 141.8Z" fill="#E6791C"/>
<path d="M203.498 185C205.098 185.1 206.798 185.2 208.298 184.6C209.898 184.1 211.098 182.9 212.298 181.7C215.498 178.3 217.898 174.3 219.398 169.9C220.198 167.5 220.898 164.8 223.098 163.6C225.298 162.3 227.998 163.1 230.298 164.1C232.598 165.1 234.998 166.3 237.498 165.9C239.998 165.5 242.098 162.4 240.598 160.4C242.998 163.7 251.398 158.3 252.098 144.9C252.898 152.6 259.098 172.9 242.798 184.6C240.198 186.5 240.398 185.3 237.698 183.7C235.898 182.6 232.198 181.2 228.398 180.5C224.998 179.9 221.698 181.4 219.198 183.8C216.798 186.2 214.798 189.1 211.898 190.9C208.598 192.9 204.598 193.3 200.798 193.4C192.198 193.6 183.498 193 174.998 191.4C173.998 186.9 172.898 182.4 171.898 177.9C171.898 184.5 200.598 184.8 203.498 185Z" fill="#E6791C"/>
<path d="M110.798 81.2C108.398 78.5 105.798 75 102.098 75C98.8984 75.1 96.4984 77.9 94.6984 80.5C89.7984 87.3 85.1984 94.3 80.8984 101.5C87.0984 96 93.2984 90.5 99.3984 85C99.9984 84.5 100.598 84 101.298 84C101.898 84 102.398 84.4 102.898 84.8C111.598 91.7 120.198 99.4 129.498 105.4C132.998 89.4 119.398 90.9 110.798 81.2Z" fill="#E6791C"/>
<path d="M198.399 108.1C198.099 108.5 199.199 108.5 199.099 108.1C198.999 107.6 198.399 107.4 197.899 107.4C188.499 106 179.499 102 172.099 95.9997C167.699 101.4 159.199 101 153.699 105.2C147.999 109.6 146.899 117.6 146.199 124.8C142.899 121.2 137.599 119.7 134.299 116.2C133.899 115.8 133.499 115.3 133.299 114.7C133.099 113.9 133.599 113.1 133.999 112.4C137.399 106.6 140.099 100.3 142.099 93.8997C151.099 98.8997 163.999 94.2997 167.699 84.6997C176.799 93.5997 188.199 100.1 200.499 103.2C200.599 104.9 198.299 106.3 198.399 108.1Z" fill="#E6791C"/>
<path d="M26.4 142.7C27.1 147 29.3 150.9 31.9 154.4C33.5 156.5 35.4 158.6 37.9 159.5C40.4 160.4 43.6 159.7 44.9 157.4C46.1 155.3 45.6 152.1 47.8 151C49.6 150.1 52.1 151.5 53.7 150.2C55.1 149 54.3 146.7 52.8 145.6C51.4 144.5 49.5 144.1 48 143.1C44.8 140.9 44 136.6 41.9 133.3C40.7 131.3 38.9 129.7 36.9 128.6C28 124 25.3 136.6 26.4 142.7Z" fill="#8E3316"/>
<path d="M80.499 206.2C79.999 200 79.499 193.8 78.999 187.6C78.899 186.6 78.799 185.6 78.399 184.7C76.899 181.8 73.299 180.3 70.199 181.3C65.899 182.6 61.699 188.8 57.699 190.9C56.399 191.5 55.099 192.3 54.399 193.6C53.299 196 55.299 198.7 57.799 199.7C60.199 200.7 62.999 200.5 65.499 201.3C69.899 202.5 73.199 206.2 76.999 208.7C77.799 209.2 78.799 209.7 79.699 209.2C80.499 208.6 80.499 207.3 80.499 206.2Z" fill="#8E3316"/>
<path d="M119.498 220.3C120.998 220.9 122.598 220.9 124.098 221.2C127.798 221.9 131.198 224.2 132.898 227.4C133.498 228.4 133.898 229.6 134.798 230.4C136.498 232 139.598 231.8 141.498 230.5C143.498 229.1 144.498 226.9 145.098 224.7C146.898 217.9 144.598 210.1 138.698 205.9C125.298 196.4 107.498 215.4 119.498 220.3Z" fill="#8E3316"/>
<path d="M217.8 164.4C219.4 169.2 223.2 173.1 227.9 174.9C232.6 176.6 238.1 176.1 242.4 173.5C244.1 172.4 245.7 171 246.5 169.1C248.3 164.7 245.1 160 241.8 156.6C239.9 154.7 237.8 152.9 235.2 152.3C227.2 150.7 214.7 154.9 217.8 164.4Z" fill="#8E3316"/>
<path d="M96.0007 130C96.1007 134.2 98.7007 137.9 101.501 140.9C103.701 143.2 106.301 145.4 109.401 145.5C112.201 145.6 114.801 144 116.601 141.9C118.301 139.7 119.301 137.1 120.101 134.4C121.201 130.6 121.801 126.1 119.101 123.2C117.701 121.7 115.601 120.9 113.501 120.5C106.801 119.3 95.9007 120.8 96.0007 130Z" fill="#8E3316"/>
<path d="M68.1981 118.3C64.8981 116.1 58.6981 131 62.4981 132.3C66.2981 133.6 73.8981 122.2 68.1981 118.3Z" fill="#E6791C"/>
<path d="M80.2993 110.7C74.7993 109.1 75.7992 122.1 79.6992 120.2C83.4992 118.3 84.7993 112 80.2993 110.7Z" fill="#E6791C"/>
<path d="M211.999 199.1C208.199 195.3 201.199 200.4 203.699 204.2C206.299 208 215.799 202.9 211.999 199.1Z" fill="#E6791C"/>
<path d="M200.501 151.4C195.501 152.2 190.301 141.9 194.801 140C199.301 138.1 204.301 150.8 200.501 151.4Z" fill="#E6791C"/>
<path d="M198 122.8C194 122.8 194.2 130.4 198 130.4C201.8 130.4 201.8 122.8 198 122.8Z" fill="#F68E1B"/>
<path d="M227.998 76.2C225.798 75.8 223.198 81.9 225.798 82.3C228.498 82.7 230.698 76.6 227.998 76.2Z" fill="#F68E1B"/>
<path d="M79.6974 135.5C76.6974 134.3 77.1974 141.9 80.2974 141.9C83.3974 141.9 82.7974 136.8 79.6974 135.5Z" fill="#F68E1B"/>
<path d="M112.1 181.3C108 183.4 112.1 191.5 115.9 189.6C119.7 187.7 115.9 179.4 112.1 181.3Z" fill="#E6791C"/>
<path d="M234.898 122.8C234.898 122.8 241.298 134.9 247.598 131.7C253.998 128.5 251.398 110.7 251.398 110.7C251.398 110.7 249.498 124.7 245.698 126.6C239.798 129.5 234.898 122.8 234.898 122.8Z" fill="#E6791C"/>
<path d="M30.1008 81.3999C26.2008 86.4999 29.9008 116 23.5008 115.5C13.4008 114.9 26.6008 85.8999 30.1008 81.3999Z" fill="#E6791C"/>
<path d="M57.2003 60.7996C53.4003 64.8996 51.2003 70.4996 51.0003 76.0996C50.9003 77.4996 51.1003 79.0996 51.9003 80.2996C53.4003 82.3996 56.6003 82.3996 59.2003 81.7996C64.4003 80.6996 69.3003 78.2996 73.5003 74.9996C75.9003 73.0996 78.3003 70.2996 77.7003 67.2996C77.3003 64.6996 74.9003 62.8996 72.5003 61.7996C67.9003 59.6996 62.5003 59.2996 57.6003 60.6996L57.2003 60.7996Z" fill="#8E3316"/>
<path d="M52.9004 145.7C53.5004 148.1 50.9004 148.2 46.5004 148.8C42.1004 149.5 45.3004 154.5 38.3004 154.6C31.3004 154.7 26.3004 137.7 26.3004 137.7C26.1004 139.5 26.2004 141.2 26.4004 142.6C27.1004 146.9 29.3004 150.8 31.9004 154.3C33.5004 156.4 35.4004 158.5 37.9004 159.4C40.4004 160.3 43.6004 159.6 44.9004 157.3C46.1004 155.2 45.6004 152 47.8004 150.9C49.6004 150 52.1004 151.4 53.7004 150.1C55.0004 149.1 54.3004 146.8 52.9004 145.7Z" fill="#722611"/>
<path d="M78.8975 187.8C78.3975 192.2 77.7975 196.7 77.2975 201.1C77.2975 201.4 77.1975 201.8 76.9975 202.1C76.2975 203.1 74.6975 202.5 73.7975 201.7C71.2975 199.6 69.1975 196.8 65.9975 196C63.7975 195.5 61.4975 196 59.2975 195.5C57.4975 195.1 55.7975 193.6 55.6975 191.9C55.0975 192.3 54.6975 192.8 54.2975 193.4C53.1975 195.8 55.1975 198.5 57.6975 199.5C60.0975 200.5 62.8975 200.3 65.3975 201.1C69.7975 202.3 73.0975 206 76.8975 208.5C77.6975 209 78.6975 209.5 79.5975 209C80.4975 208.5 80.5975 207.2 80.4975 206.1C79.9975 200.1 79.3975 193.9 78.8975 187.8Z" fill="#722611"/>
<path d="M137.3 226.1C133.7 224.9 132.8 220.1 129.6 218C126 215.7 120 217.3 117.8 213.6C117.3 212.7 117.1 211.6 117.2 210.4C114.7 214.1 114.7 218.3 119.5 220.3C121 220.9 122.6 220.9 124.1 221.2C127.8 221.9 131.2 224.2 132.9 227.4C133.5 228.4 133.9 229.6 134.8 230.4C136.5 232 139.6 231.8 141.5 230.5C143.5 229.1 144.5 226.9 145.1 224.7C145.6 223 145.7 221.2 145.7 219.4C145.3 220.8 144.7 222.1 143.9 223.3C142.5 225.4 139.8 226.9 137.3 226.1Z" fill="#722611"/>
<path d="M121.101 129.3C121.101 128.7 121.001 128.1 121.001 127.5C120.901 126.9 120.801 126.2 120.601 125.6C119.501 128.7 117.801 131.6 115.801 134.1C114.201 136.1 112.101 138 109.501 138.5C105.801 139.1 102.401 136.5 100.101 133.6C99.0007 132.2 98.0007 130.6 97.6007 128.9C97.4007 128.1 97.6007 126.3 97.5007 124.9C96.6007 126.3 96.0007 127.9 96.1007 130C96.2007 134.2 98.8007 137.9 101.601 140.9C103.801 143.2 106.401 145.4 109.501 145.5C112.301 145.6 114.901 144 116.701 141.9C118.401 139.7 119.401 137.1 120.201 134.4C120.601 132.8 121.001 131 121.101 129.3Z" fill="#722611"/>
<path d="M75.998 64.0998C75.898 65.3998 75.398 66.5998 74.698 67.6998C73.598 69.2998 71.998 70.4998 70.498 71.6998C67.098 74.2998 63.098 77.0998 58.898 76.0998C57.898 75.7998 56.798 75.2998 56.198 74.4998C55.598 73.6998 55.398 72.5998 55.298 71.5998C54.898 67.7998 57.398 63.8998 57.698 60.7998C57.698 60.7998 57.698 60.7998 57.598 60.7998L57.298 60.9998C53.498 65.0998 51.298 70.6998 51.098 76.2998C50.998 77.6998 51.198 79.2998 51.998 80.4998C53.498 82.5998 56.698 82.5998 59.298 81.9998C64.498 80.8998 69.398 78.4998 73.598 75.1998C75.998 73.2998 78.398 70.4998 77.798 67.4998C77.498 65.9998 76.798 64.9998 75.998 64.0998Z" fill="#722611"/>
<path d="M239.399 154.6C240.399 156.6 241.299 158.7 241.499 160.9C241.799 163.8 240.799 167.1 238.199 168.6C236.899 169.3 235.399 169.6 233.999 169.6C229.699 169.7 225.599 167.9 222.499 165C220.699 163.4 219.499 160.7 217.899 158.5C217.099 160.2 216.999 162.1 217.699 164.4C219.299 169.2 223.099 173.1 227.799 174.9C232.499 176.6 237.999 176.1 242.299 173.5C243.999 172.4 245.599 171 246.399 169.1C248.199 164.7 244.999 160 241.699 156.6C240.999 155.9 240.199 155.2 239.399 154.6Z" fill="#722611"/>
<path d="M59.9008 63.7998C58.1008 67.3998 70.5008 69.6998 71.8008 66.7998C73.1008 63.7998 61.6008 60.4998 59.9008 63.7998Z" fill="#A34229"/>
<path d="M99.801 127C99.301 129.9 114.701 130.6 115.501 126.7C116.301 122.8 100.701 121.9 99.801 127Z" fill="#A34229"/>
<path d="M32.0001 131.3C29.0001 133.8 37.5001 148.3 41.3001 145.7C45.1001 143.1 34.9001 128.7 32.0001 131.3Z" fill="#A34229"/>
<path d="M70.1009 183.9C66.5009 185.4 71.4009 197.5 73.9009 196.6C76.5009 195.7 75.2009 181.7 70.1009 183.9Z" fill="#A34229"/>
<path d="M123.6 209.7C123.9 212.7 129.1 208.9 132.9 211.4C136.7 213.9 138.4 221.2 140.5 219C142.6 216.9 142.6 209.7 135.4 207.6C128.2 205.5 123.1 205.5 123.6 209.7Z" fill="#A34229"/>
<path d="M221.097 159.3C221.797 162.1 228.297 156.3 232.097 158.9C235.897 161.4 236.797 162.7 238.497 161.9C240.197 161.1 238.497 156.4 234.297 155.5C229.997 154.6 220.197 155.9 221.097 159.3Z" fill="#A34229"/>
<path d="M147.698 99C147.698 99 154.498 99.4 159.998 96.9C165.498 94.4 169.298 91 169.298 91C169.298 91 165.498 97.4 159.498 99.9C153.598 102.4 146.398 103.3 146.398 103.3L147.698 99Z" fill="#D25D18"/>
<path d="M135.4 113.5C135.4 113.5 135 119 140.9 121.6C146.8 124.2 157 130.5 159.6 134.3C162.1 138.1 160.9 153 159.6 159.3C159.6 159.3 166.4 138.9 163.8 134.7C161.3 130.5 148.1 122 143.4 119.9C138.7 117.8 138.7 111.8 138.7 111.8L135.4 113.5Z" fill="#D25D18"/>
<path d="M71 240.3C71 240.3 79.1 229.3 78.6 225.5C78.2 221.7 74.4 212.4 74.4 212.4C74.4 212.4 82.5 221.7 82.5 225.1C82.5 228.5 80.4 241.2 80.4 241.2L71 240.3Z" fill="#D25D18"/>
<path d="M11.5977 119.4C11.5977 119.4 17.9977 117.7 20.8977 114.7C23.8977 111.7 25.0977 99.8999 25.0977 99.8999C25.0977 99.8999 26.3977 113.9 22.5977 118.6C18.7977 123.3 12.3977 127.1 12.3977 127.1L11.5977 119.4Z" fill="#D25D18"/>
<path d="M193.1 54.5C193.1 54.5 184.6 56.6 180.8 52.4C177 48.2 173.6 42.6 170.6 43.1C167.6 43.5 160 46.9 160 46.9C160 46.9 170.2 41 173.6 41C177 41 178.7 46.5 181.2 47.4C183.7 48.2 189.7 48.7 189.7 48.7L193.1 54.5Z" fill="#D25D18"/>
<path d="M211.301 111.3C211.301 111.3 218.901 114.7 221.101 117.2C223.201 119.7 224.501 125.3 226.201 127.4C226.201 127.4 226.601 117.2 224.501 113.8C222.401 110.4 214.701 104.5 214.701 104.5L211.301 111.3Z" fill="#D25D18"/>
<path d="M167.2 198.3C167.2 198.3 170.6 209.7 166.8 218.2C163 226.7 157.5 235.6 157.5 235.6C157.5 235.6 167.7 226.3 170.2 217.4C172.7 208.5 172.3 198.7 172.3 198.7L167.2 198.3Z" fill="#D25D18"/>
<path d="M153.298 185.7C154.698 190.9 158.898 194.9 163.498 197.7C167.398 200.1 172.398 201.7 176.598 199.8C181.498 197.5 183.098 191.3 183.498 185.9C183.698 182.3 183.598 178.5 181.898 175.3C174.098 161 148.498 168.6 153.298 185.7Z" fill="#8E3316"/>
<path d="M183.398 185.8C183.498 183.9 183.498 181.9 183.298 180C182.798 182.1 182.198 184.2 181.198 186.1C179.698 189.1 177.298 191.7 174.198 192.8C168.698 194.6 162.798 191.2 159.098 186.8C156.398 183.5 154.598 179.8 154.998 175.5C154.998 175 155.098 174.6 155.198 174.1C152.998 177.1 151.998 181.1 153.298 185.7C154.798 190.9 158.898 194.9 163.498 197.7C167.398 200.1 172.398 201.7 176.598 199.8C181.398 197.4 182.998 191.2 183.398 185.8Z" fill="#722611"/>
<path d="M158.298 176.6C156.598 180.5 164.698 183.8 168.498 179.1C172.298 174.4 178.698 185.9 178.698 180.8C178.698 175.7 175.698 171 169.398 171.5C162.998 172 159.598 173.7 158.298 176.6Z" fill="#A34229"/>
<path d="M120.199 103.7C122.099 108.8 126.799 112.4 131.899 114.3C134.499 115.2 137.499 115.7 139.799 114.2C142.299 112.5 142.799 109 144.899 106.8C146.099 105.5 147.699 104.7 148.899 103.5C152.299 100.1 151.999 94.0001 148.899 90.3001C139.199 78.6001 113.699 86.4 120.199 103.7Z" fill="#8E3316"/>
<path d="M149.201 96.3002C148.601 98.5002 147.101 100.5 144.901 101.1C143.701 101.4 142.301 101.3 141.301 101.9C140.301 102.5 139.901 103.7 139.201 104.6C136.201 109 129.001 108.5 125.301 104.6C122.401 101.6 121.501 97.5002 121.301 93.5002C121.301 92.9002 121.201 92.3002 121.201 91.8002C119.201 94.9002 118.601 98.9002 120.401 103.6C122.301 108.7 127.001 112.3 132.101 114.2C134.701 115.1 137.701 115.6 140.001 114.1C142.501 112.4 143.001 108.9 145.101 106.7C146.301 105.4 147.901 104.6 149.101 103.4C152.301 100.3 152.201 94.9002 149.801 91.2002C149.701 92.9002 149.701 94.7002 149.201 96.3002Z" fill="#722611"/>
<path d="M124.399 96.8998C121.399 94.1998 126.499 87.5998 135.799 87.9998C145.099 88.3998 148.099 92.6998 145.599 95.5998C143.099 98.5998 140.499 92.1998 135.799 92.5998C131.199 93.0998 128.599 100.7 124.399 96.8998Z" fill="#A34229"/>
<path d="M194.298 104.7C196.098 109.3 200.198 112.5 204.698 114.6C207.498 115.9 211.198 116.7 213.298 114.5C214.098 113.7 214.498 112.5 214.898 111.5C216.298 107.8 217.598 104.1 218.998 100.4C219.398 99.2 219.898 98 219.698 96.7C219.298 93.4 215.298 92.1 211.998 91.7C203.098 90.8 189.098 91.6 194.298 104.7Z" fill="#8E3316"/>
<path d="M214.899 111.4C216.299 107.7 217.599 104 218.999 100.3C219.399 99.1001 219.899 97.9001 219.699 96.6001C219.499 95.3001 218.799 94.3001 217.799 93.6001C217.899 94.9001 217.199 96.3001 216.299 97.3001C215.099 98.6001 213.499 99.6001 212.699 101.2C211.499 103.4 211.799 106.4 210.199 108.4C207.999 111 203.699 110.1 200.999 108C196.899 104.9 194.599 99.3001 195.599 94.4001C193.299 96.4001 192.399 99.6001 194.399 104.7C196.199 109.3 200.299 112.5 204.799 114.6C207.599 115.9 211.299 116.7 213.399 114.5C214.099 113.6 214.499 112.5 214.899 111.4Z" fill="#722611"/>
<path d="M197.797 97.2998C197.597 99.8998 199.897 104.5 204.197 103.2C208.397 101.9 204.197 98.4998 207.597 97.6998C210.997 96.8998 214.797 98.0998 213.997 95.9998C212.997 93.9998 198.197 92.6998 197.797 97.2998Z" fill="#A34229"/>
<path d="M207.199 40.2997C207.199 38.0997 206.299 36.2997 202.399 35.4997C199.799 34.9997 196.699 36.5997 194.299 35.2997C191.999 33.9997 189.799 32.0997 187.199 31.8997C183.199 31.5997 179.899 35.5997 179.699 39.5997C179.599 43.5997 181.799 47.2997 184.599 50.1997C188.599 54.4997 193.899 57.5997 199.599 59.1997C201.099 59.5997 202.999 59.7997 203.899 58.5997C205.199 56.9997 203.699 54.7997 203.299 52.7997C202.899 50.5997 203.899 48.4997 204.999 46.5997C205.999 44.4997 207.199 42.4997 207.199 40.2997Z" fill="#8E3316"/>
<path d="M203.599 43.0998C202.899 43.3998 202.199 43.3998 201.499 43.7998C199.799 44.5998 199.599 46.8998 199.499 48.6998C199.399 50.5998 198.799 52.7998 196.999 53.1998C196.099 53.3998 195.199 52.9998 194.299 52.5998C188.399 49.6998 184.499 44.7998 181.799 38.9998C181.199 37.7998 180.899 36.9998 180.499 36.2998C179.999 37.2998 179.699 38.3998 179.699 39.5998C179.599 43.5998 181.799 47.2998 184.599 50.1998C188.599 54.4998 193.899 57.5998 199.599 59.1998C201.099 59.5998 202.999 59.7998 203.899 58.5998C205.199 56.9998 203.699 54.7998 203.299 52.7998C202.899 50.5998 203.899 48.4998 204.999 46.5998C206.099 44.6998 207.299 42.6998 207.199 40.4998C207.199 39.3998 206.999 38.3998 206.199 37.4998C205.899 37.1998 205.499 36.9998 205.199 36.6998C205.699 38.8998 205.799 41.9998 203.599 43.0998Z" fill="#722611"/>
<path d="M185.5 36.6997C183.3 39.7997 188 47.6997 191.9 46.8997C195.7 46.0997 191.5 42.1997 194.4 41.7997C197.4 41.3997 202 41.3997 201.2 39.6997C200.4 37.9997 194.4 40.0997 191.9 37.9997C189.3 35.8997 187.6 33.6997 185.5 36.6997Z" fill="#A34229"/>
<path d="M99.3983 35C96.7983 30.2 96.8983 17.8 105.798 14.6C114.698 11.4 133.198 12.1 143.998 16.5C150.098 19 153.498 19.7 160.498 19.7C167.498 19.7 173.198 19.1 176.398 22.9C179.598 26.7 173.898 35 166.898 36.3C159.898 37.6 156.098 29.9 150.998 25.5C145.898 21 139.598 19.1 135.098 21C130.598 22.9 132.598 30.5 121.698 31.8C110.798 33.1 103.798 43.3 99.3983 35Z" fill="#FFB947"/>
<path d="M127.397 46.8997C130.397 46.0997 133.797 42.6997 134.597 41.3997C135.597 39.6997 135.297 37.8997 135.897 35.9997C136.997 32.1997 142.297 31.5997 145.997 32.8997C149.697 34.2997 153.097 36.8997 157.097 36.9997C153.997 34.4997 150.897 31.9997 147.797 29.4997C144.497 26.8997 140.197 24.0997 136.397 25.7997C132.997 27.3997 131.097 32.1997 127.397 32.0997C116.297 31.8997 104.797 6.49967 102.997 31.3997C101.397 53.2997 111.597 51.3997 127.397 46.8997Z" fill="#E6791C"/>
<path d="M123.898 33.1998C120.298 30.3998 117.198 26.9998 114.698 23.2998C112.998 20.6998 110.798 17.4998 107.698 17.8998C105.198 18.1998 103.698 20.6998 102.598 22.8998C100.698 26.8998 98.998 31.0998 99.098 35.5998C99.198 39.9998 101.598 44.5998 105.698 46.1998C107.798 46.9998 110.198 46.9998 112.398 46.7998C122.098 45.9998 135.998 42.5998 123.898 33.1998Z" fill="#8E3316"/>
<path d="M123.899 33.1997C121.299 31.0997 118.899 28.7997 116.799 26.1997C117.499 28.0997 118.399 29.7997 119.399 31.4997C120.399 33.0997 121.599 34.7997 121.499 36.6997C121.099 42.5997 112.799 42.8997 108.799 42.1997C104.999 41.4997 101.999 38.7997 99.1992 34.2997C99.1992 34.6997 99.1992 35.1997 99.1992 35.5997C99.2992 39.9997 101.699 44.5997 105.799 46.1997C107.899 46.9997 110.299 46.9997 112.499 46.7997C122.099 45.9997 135.999 42.5997 123.899 33.1997Z" fill="#722611"/>
<path d="M107.396 21.3998C105.596 22.4998 103.996 37.0998 107.796 36.6998C111.596 36.2998 115.896 36.2998 115.396 33.2998C115.096 30.2998 109.596 20.1998 107.396 21.3998Z" fill="#A34229"/>
<path d="M115.301 15.8999C115.901 19.0999 122.301 20.9999 131.201 18.3999C140.101 15.8999 154.701 23.4999 158.601 25.9999C162.401 28.4999 168.801 29.7999 167.501 26.5999C166.201 23.3999 147.101 17.6999 139.501 15.7999C131.801 13.9999 114.701 12.6999 115.301 15.8999Z" fill="#FFDA72"/>
<path d="M215.8 50.8997C214.5 52.7997 226.6 60.3997 236.2 80.7997C245.7 101.2 242.6 114.5 245.7 114.5C248.8 114.5 243.8 90.2997 238.7 75.6997C233.6 61.0997 218.3 47.0997 215.8 50.8997Z" fill="#FFDA72"/>
<path d="M216.398 59.7996C213.798 62.3996 220.198 71.8996 222.098 68.6996C224.098 65.4996 219.598 56.5996 216.398 59.7996Z" fill="#E6791C"/>
<path d="M40.1985 68.6997C36.7985 68.6997 47.1985 50.8997 54.7985 47.6997C62.3985 44.4997 75.1985 43.1997 79.5985 41.2997C84.0985 39.3997 87.8985 43.1997 78.9985 45.7997C70.0985 48.2997 61.7985 47.0997 52.8985 54.0997C43.9985 61.0997 43.3985 68.6997 40.1985 68.6997Z" fill="#FFDA72"/>
<path d="M160.5 113.9C158.8 111.1 175 104.7 177.7 110.1C178.9 112.6 162.4 117.1 160.5 113.9Z" fill="#FFDA72"/>
<path d="M99.9992 94.7997C97.2992 98.3997 108.899 110.7 110.799 108.8C112.699 106.9 101.899 92.2997 99.9992 94.7997Z" fill="#FFDA72"/>
<path d="M96.7994 56.5999C96.2994 59.7999 113.999 64.8999 120.299 63.5999C126.699 62.2999 132.999 57.1999 131.099 55.2999C129.199 53.3999 123.499 57.7999 117.699 58.4999C112.099 59.1999 97.4994 52.7999 96.7994 56.5999Z" fill="#FFDA72"/>
<path d="M124.201 147C124.801 149.2 140.701 143.2 139.501 138.1C138.201 133 131.901 126 131.201 130.5C130.601 134.9 123.601 144.4 124.201 147Z" fill="#FFDA72"/>
<path d="M63.7987 101.8C59.8987 101.8 55.4986 106.9 53.5986 112C51.6986 117.1 49.7987 123.4 52.2987 124.1C54.7987 124.7 54.1987 119 57.3987 115.2C60.5987 111.4 68.1986 112.7 69.4986 110.1C70.7986 107.5 67.5987 101.8 63.7987 101.8Z" fill="#FFDA72"/>
</svg>
