<svg width="390" height="538" viewBox="0 0 390 538" fill="none" xmlns="http://www.w3.org/2000/svg">
<g clip-path="url(#clip0_58_548)">
<path d="M299 368H212V452H299V368Z" fill="#6A984D"/>
<path d="M214 368H0V452H214V368Z" fill="#DDA15E"/>
<path d="M308 136H172V368H308V136Z" fill="#234526"/>
<path d="M212 452H128V538H212V452Z" fill="#FEFAE0"/>
<path d="M216 450H128V538H216V450Z" fill="#234526"/>
<path d="M0 0H87V136H0V0Z" fill="#FEFAE0"/>
<path d="M204 68H0V136H204V68Z" fill="#BC6C25"/>
<path d="M57 136H-59V250H57V136Z" fill="#6A984D"/>
<path d="M172 136H54V250H172V136Z" fill="#DDA15E"/>
<path d="M172 250H54V368H172V250Z" fill="#BC6C25"/>
<path d="M57 250H-59V368H57V250Z" fill="#234526"/>
<path d="M299 450H214V538H299V450Z" fill="#DDA15E"/>
<path d="M214 423C197.918 423.358 185 435.527 185 450.5C185 465.473 197.918 477.635 214 478V423.007V423Z" fill="#BB6C22"/>
<path d="M214 423C229.526 423.358 242 435.527 242 450.5C242 465.466 229.526 477.635 214 478V423.007V423Z" fill="#234526"/>
<path d="M-59 136L57 250C57 187.034 5.0603 136 -59 136Z" fill="#FEFAE0"/>
<path d="M-59 136L57 250C-7.07023 250 -59 198.956 -59 136Z" fill="#DDA15E"/>
<path d="M172 136L57 250C57 187.034 108.492 136 172 136Z" fill="#FEFAE0"/>
<path d="M172 136L57 250C120.518 250 172 198.956 172 136Z" fill="#6A984D"/>
<path d="M-59 368L57 250C57 315.175 5.0603 368 -59 368Z" fill="#BC6C25"/>
<path d="M-59 368L57 250C-7.07023 250 -59 302.835 -59 368Z" fill="#DDA15E"/>
<path d="M172 368L57 250C57 315.175 108.492 368 172 368Z" fill="#234526"/>
<path d="M172 368L57 250C120.518 250 172 302.835 172 368Z" fill="#6A984D"/>
<path d="M70.0449 0H207V68H1C1 30.4713 31.9327 0 70.0449 0Z" fill="#DDA15E"/>
<path d="M413 0H204V68H413V0Z" fill="#BC6C25"/>
<path d="M390 68H248V136H390V68Z" fill="#DDA15E"/>
<path d="M68 0L1 68C1 30.4415 30.9938 0 68 0Z" fill="#BC6C25"/>
<path d="M68 0L1 68C38.0062 68 68 37.5585 68 0Z" fill="#FEFAE0"/>
<path d="M68 136L1 68C1 105.559 30.9938 136 68 136Z" fill="#DDA15E"/>
<path d="M68 136L1 68C38.0062 68 68 98.4415 68 136Z" fill="#FEFAE0"/>
<path d="M138 0L68 68C68 30.4415 99.3368 0 138 0Z" fill="#234526"/>
<path d="M138 0L68 68C106.663 68 138 37.5585 138 0Z" fill="#6A984D"/>
<path d="M138 136L68 68C68 105.559 99.3368 136 138 136Z" fill="#234526"/>
<path d="M138 136L68 68C106.663 68 138 98.4415 138 136Z" fill="#6A984D"/>
<path d="M207 0L138 68C138 30.4415 168.889 0 207 0Z" fill="#BC6C25"/>
<path d="M207 0L138 68C176.111 68 207 37.5585 207 0Z" fill="#FEFAE0"/>
<path d="M207 136L138 68C138 105.559 168.889 136 207 136Z" fill="#DDA15E"/>
<path d="M207 136L138 68C176.111 68 207 98.4415 207 136Z" fill="#FEFAE0"/>
<path d="M128.009 452L214 538C166.417 538 127.305 500.682 128.009 452Z" fill="#6A984D"/>
<path d="M128 452L214 538C214 491.526 175.589 452 128 452Z" fill="#FEFAE0"/>
<path d="M297.991 452L214 538C260.477 538 298.679 500.682 297.991 452Z" fill="#234526"/>
<path d="M298 452L214 538C214 491.526 251.518 452 298 452Z" fill="#6A984D"/>
<path d="M185.349 451.597C185.349 451.533 185.341 451.468 185.341 451.411C185.327 436.232 197.916 423.912 213.467 423.898C229.019 423.884 241.637 436.175 241.659 451.353C241.659 451.418 241.651 451.482 241.651 451.54L299 451.475C299 451.411 299 451.346 299 451.289C298.949 405.2 260.626 367.876 213.401 367.927C166.184 367.977 127.949 405.387 128 451.475C128 451.54 128 451.604 128 451.662L185.349 451.597Z" fill="#234526"/>
<path d="M185.347 451.597C185.347 451.532 185.34 451.468 185.34 451.411C185.325 436.232 197.914 423.912 213.465 423.898C229.017 423.884 241.635 436.174 241.657 451.353C241.657 451.418 241.65 451.482 241.65 451.54L279.519 451.497C279.519 451.432 279.519 451.368 279.519 451.31C279.475 415.721 249.886 386.897 213.421 386.94C176.957 386.983 147.434 415.864 147.47 451.461C147.47 451.525 147.47 451.59 147.47 451.647L185.34 451.604L185.347 451.597Z" fill="#FEFAE0"/>
<path d="M185.347 451.597C185.347 451.533 185.339 451.468 185.339 451.411C185.325 436.232 197.914 423.912 213.465 423.898C229.017 423.884 241.635 436.174 241.657 451.353C241.657 451.418 241.649 451.482 241.649 451.54L261.261 451.518C261.261 451.454 261.268 451.389 261.268 451.332C261.239 425.582 239.828 404.727 213.443 404.756C187.058 404.785 165.699 425.682 165.728 451.439C165.728 451.504 165.736 451.568 165.736 451.626L185.347 451.604V451.597Z" fill="#6A984D"/>
<path d="M213 463C220.18 463 226 457.627 226 451C226 444.373 220.18 439 213 439C205.82 439 200 444.373 200 451C200 457.627 205.82 463 213 463Z" fill="#FEFAE0"/>
<path d="M390 136H355V368H390V136Z" fill="#DDA15E"/>
<path d="M355 136H308V368H355V136Z" fill="#6A984D"/>
<path d="M291 68H207V136H291V68Z" fill="#6A984D"/>
<path d="M292 68.3128C292 31.0865 260.583 0.883912 221.736 0.632337V0H204V136H221.736C260.59 135.742 292 105.539 292 68.3196V68.3128Z" fill="#234526"/>
<path d="M247.567 111.028C270.927 111.028 289.864 92.0909 289.864 68.7308C289.864 45.3707 270.927 26.4336 247.567 26.4336C224.207 26.4336 205.27 45.3707 205.27 68.7308C205.27 92.0909 224.207 111.028 247.567 111.028Z" fill="#FEFAE0"/>
<path d="M247.564 101.749C265.8 101.749 280.583 86.9665 280.583 68.7307C280.583 50.4949 265.8 35.7119 247.564 35.7119C229.329 35.7119 214.546 50.4949 214.546 68.7307C214.546 86.9665 229.329 101.749 247.564 101.749Z" fill="#BC6C25"/>
<path d="M247.565 92.6902C260.798 92.6902 271.525 81.9632 271.525 68.7307C271.525 55.4983 260.798 44.7712 247.565 44.7712C234.333 44.7712 223.606 55.4983 223.606 68.7307C223.606 81.9632 234.333 92.6902 247.565 92.6902Z" fill="#DDA15E"/>
<path d="M247.569 80.6318C254.142 80.6318 259.47 75.3036 259.47 68.7308C259.47 62.1581 254.142 56.8298 247.569 56.8298C240.996 56.8298 235.668 62.1581 235.668 68.7308C235.668 75.3036 240.996 80.6318 247.569 80.6318Z" fill="#234526"/>
<path d="M372.716 68C372.77 50.8422 387.162 36.9294 404.954 36.8196L413 36.5246V0H396.814C360.908 0.246973 331.482 30.8648 331 68H372.716Z" fill="#6A984D"/>
<path d="M299 425L390 425L390 368L299 368L299 425Z" fill="#BC6C25"/>
<path d="M299 538L390 538L390 483L299 483L299 538Z" fill="#BC6C25"/>
<path d="M299 483L390 483L390 425L299 425L299 483Z" fill="#DDA15E"/>
<path d="M370.854 425L390 425L353.866 483L334 483L370.854 425Z" fill="#234526"/>
<path d="M370.854 425L390 425L353.866 368L334 368L370.854 425Z" fill="#6A984D"/>
<path d="M370.854 538L390 538L353.866 483L334 483L370.854 538Z" fill="#6A984D"/>
<path d="M337.17 425L357 425L319.575 483L299 483L337.17 425Z" fill="#6A984D"/>
<path d="M337.17 425L357 425L319.575 368L299 368L337.17 425Z" fill="#234526"/>
<path d="M337.17 538L357 538L319.575 483L299 483L337.17 538Z" fill="#234526"/>
<path d="M128 452H-5V538H128V452Z" fill="#DDA15E"/>
<path d="M62.8981 458L128 538H-5L62.8981 458Z" fill="#234526"/>
<path d="M62.4561 480L107 538H16L62.4561 480Z" fill="#BC6C25"/>
<path d="M330.523 80.4366C334.272 80.4366 336.771 83.2312 336.771 88.1615C336.771 90.8879 336.226 93.0464 334.726 94.5913C333.681 95.6592 332.227 96.3408 330.478 96.3408C327.91 96.3408 325.934 95.0685 325.297 92.7283L328.251 92.1603C328.615 93.2736 329.41 93.6371 330.591 93.6371C331.455 93.6371 332.204 93.2508 332.727 92.6828C333.568 91.774 333.886 90.5017 333.886 89.1158C333.022 90.07 331.636 90.638 330.25 90.638C326.956 90.638 324.934 88.5477 324.934 85.6168C324.934 82.6178 327.229 80.4366 330.523 80.4366ZM330.591 88.1161C331.886 88.1161 333.068 87.1391 333.068 85.6168C333.068 84.1627 331.886 83.1858 330.591 83.1858C329.273 83.1858 328.024 84.1855 328.024 85.6623C328.024 87.1391 329.273 88.1161 330.591 88.1161ZM340.505 92.6147C341.55 92.6147 342.3 93.4326 342.3 94.3641C342.3 95.3411 341.55 96.0909 340.505 96.0909C339.46 96.0909 338.71 95.3411 338.71 94.3641C338.71 93.4326 339.46 92.6147 340.505 92.6147ZM362.145 92.9328H360.259V96H357.26V92.9328H349.194V90.0927L356.169 80.7774H360.259V90.4335H362.145V92.9328ZM357.26 90.4335V83.7765L352.579 90.4335H357.26ZM365.444 92.6147C366.489 92.6147 367.239 93.4326 367.239 94.3641C367.239 95.3411 366.489 96.0909 365.444 96.0909C364.399 96.0909 363.649 95.3411 363.649 94.3641C363.649 93.4326 364.399 92.6147 365.444 92.6147ZM327.411 119.205V122H317.05V120.001L322.185 114.911C323.117 113.98 324.343 112.957 324.343 111.253C324.343 109.981 323.412 109.095 322.094 109.095C320.617 109.095 319.731 109.958 319.595 111.889L316.778 111.299C316.914 108.3 319.05 106.437 322.14 106.437C325.207 106.437 327.32 108.368 327.32 111.185C327.32 113.298 326.229 114.73 324.003 116.911L321.662 119.205H327.411ZM335.715 106.437C339.623 106.437 342.259 109.663 342.259 114.389C342.259 119.137 339.623 122.341 335.715 122.341C331.807 122.341 329.172 119.137 329.172 114.389C329.172 109.663 331.807 106.437 335.715 106.437ZM335.715 119.501C337.805 119.501 339.123 117.411 339.123 114.389C339.123 111.367 337.805 109.277 335.715 109.277C333.625 109.277 332.307 111.367 332.307 114.389C332.307 117.411 333.625 119.501 335.715 119.501ZM354.369 119.205V122H344.008V120.001L349.143 114.911C350.075 113.98 351.302 112.957 351.302 111.253C351.302 109.981 350.37 109.095 349.052 109.095C347.575 109.095 346.689 109.958 346.553 111.889L343.736 111.299C343.872 108.3 346.008 106.437 349.098 106.437C352.165 106.437 354.278 108.368 354.278 111.185C354.278 113.298 353.187 114.73 350.961 116.911L348.621 119.205H354.369ZM359.718 112.162H362.036C365.148 112.162 367.238 114.071 367.238 117.07C367.238 120.137 365.035 122.341 361.627 122.341C358.582 122.341 355.969 120.546 355.969 117.07L358.946 116.479C358.946 118.637 360.195 119.569 361.695 119.569C363.24 119.569 364.285 118.592 364.285 117.115C364.285 115.797 363.285 114.911 361.808 114.911H356.719L356.969 106.777H366.534V109.572H359.832L359.718 112.162Z" fill="#FEFAE0"/>
</g>
<defs>
<clipPath id="clip0_58_548">
<rect width="390" height="538" fill="white"/>
</clipPath>
</defs>
</svg>
