<?xml version="1.0" encoding="utf-8"?>
<!-- Generator: Adobe Illustrator 28.0.0, SVG Export Plug-In . SVG Version: 6.00 Build 0)  -->
<svg version="1.1" id="Layer_1" xmlns="http://www.w3.org/2000/svg" xmlns:xlink="http://www.w3.org/1999/xlink" x="0px" y="0px"
	 viewBox="0 0 350 350" style="enable-background:new 0 0 350 350;" xml:space="preserve">
<style type="text/css">
	.st0{fill:#FFFFFF;}
</style>
<path class="st0" d="M175,25.6c-82.5,0-149.4,67.1-149.4,149.9c0,70.3,48.2,129.3,113.3,145.5v-99.7h-30.8v-45.8h30.8v-19.7
	c0-51,23-74.7,72.9-74.7c9.5,0,25.8,1.9,32.5,3.7v41.5c-3.5-0.4-9.6-0.6-17.3-0.6c-24.5,0-34,9.3-34,33.5v16.2h48.8l-8.4,45.8h-40.4
	v103c74-9,131.3-72.2,131.3-148.8C324.4,92.8,257.5,25.6,175,25.6z"/>
</svg>
