<svg width="27" height="26" viewBox="0 0 27 26" fill="none" xmlns="http://www.w3.org/2000/svg">
<path d="M7.43658 0.0571289C11.6028 0.0571289 15.7748 0.0571289 19.941 0.0571289C20.0032 0.0740969 20.0654 0.0967198 20.1332 0.102376C20.9755 0.187216 21.7896 0.402143 22.5414 0.798063C25.1814 2.18378 26.5607 4.38397 26.589 7.35902C26.6285 11.1033 26.6003 14.8419 26.5946 18.5862C26.5946 18.8463 26.5833 19.1065 26.555 19.3667C26.2215 22.0872 24.8196 24.0442 22.3605 25.2433C20.902 25.9559 19.3362 25.9277 17.7703 25.8881C17.759 25.8881 17.7477 25.8711 17.7364 25.8598V16.2107C17.8042 16.2107 17.8607 16.2107 17.9173 16.2107C18.6408 16.2107 19.3644 16.2107 20.088 16.2107C20.4611 16.2107 20.7381 16.0749 20.8568 15.696C20.8794 15.6168 20.936 15.5489 20.9812 15.481C21.4447 14.7797 21.9139 14.084 22.3775 13.3827C22.434 13.2922 22.4905 13.1903 22.5131 13.0885C22.6092 12.5852 22.2531 12.1836 21.7048 12.1779C20.4668 12.1779 19.2344 12.1779 17.9964 12.1779C17.906 12.1779 17.8212 12.1779 17.7251 12.1779C17.7251 11.1825 17.7307 10.221 17.7251 9.26509C17.7251 9.02188 17.8155 8.9427 18.0529 8.94835C19.0196 8.95966 19.9863 8.95401 20.9529 8.94835C21.4504 8.94835 21.7613 8.64293 21.7613 8.1452C21.767 7.33639 21.767 6.53324 21.7613 5.72444C21.7613 5.22671 21.4504 4.91563 20.9586 4.91563C19.8167 4.91563 18.6691 4.88735 17.5272 4.92128C16.2214 4.96088 15.1925 5.54345 14.4859 6.65768C14.1693 7.16106 13.9432 7.70404 13.8471 8.29226C13.7623 8.8013 13.7114 9.3273 13.6945 9.842C13.6718 10.6112 13.6888 11.3861 13.6888 12.1779H13.3949C12.4508 12.1779 11.5124 12.1779 10.5683 12.1779C9.93521 12.1779 9.65256 12.4551 9.65256 13.0829C9.65256 13.8238 9.65256 14.5648 9.65256 15.3C9.65256 15.9279 9.93521 16.2106 10.557 16.2163C11.5067 16.2163 12.4565 16.2163 13.4062 16.2163H13.6662V25.905C11.7498 25.905 9.85042 25.9163 7.95101 25.905C4.58182 25.8767 1.72705 23.5691 0.969546 20.283C0.890404 19.9436 0.839527 19.5929 0.777344 19.2479C0.777344 15.0795 0.777344 10.9053 0.777344 6.73686C0.794303 6.66333 0.816915 6.58981 0.822568 6.51628C1.09957 3.67697 3.21379 1.13742 5.96115 0.37952C6.44166 0.249433 6.94477 0.175904 7.43093 0.0740962L7.43658 0.0571289Z" fill="#234526"/>
</svg>
