<svg width="1729" height="774" viewBox="0 0 1729 774" fill="none" xmlns="http://www.w3.org/2000/svg">
<path d="M1589 357H1636V0H1589V357Z" fill="#234526"/>
<path d="M1636 357H1682V0H1636V357Z" fill="#DDA15E"/>
<path d="M1682 357H1729V0H1682V357Z" fill="#6A984D"/>
<path d="M1405 178L1589 178V0L1405 0V178Z" fill="#DDA15E"/>
<path d="M1405 356H1589V178L1405 178V356Z" fill="#BC6C25"/>
<path d="M1316 350H844V568H1316V350Z" fill="#DDA15E"/>
<path d="M184 0H0V179H184V0Z" fill="#FEFAE0"/>
<path d="M1729 562H1520V774H1729V562Z" fill="#BC6C25"/>
<path d="M1520.32 562.005H1313.97V773.946H1520.32V562.005Z" fill="#234526"/>
<path d="M1520 494.653C1483.33 495.542 1453.86 525.52 1453.86 562.396C1453.86 599.272 1483.33 629.25 1520 630.139V494.671V494.653Z" fill="#DDA15E"/>
<path d="M1520.4 494.653C1558.46 495.542 1589.04 525.52 1589.04 562.396C1589.04 599.272 1558.46 629.25 1520.4 630.139V494.671V494.653Z" fill="#234526"/>
<path d="M1521 350H1315V563H1521V350Z" fill="#BC6C25"/>
<path d="M1729 356H1520V562H1729V356Z" fill="#6A984D"/>
<path d="M1314 563L1520 774C1406.23 774 1314 679.527 1314 563Z" fill="#6A984D"/>
<path d="M1314 563L1520 774C1520 657.473 1427.77 563 1314 563Z" fill="#FEFAE0"/>
<path d="M1727 563L1521 774C1634.77 774 1727 679.527 1727 563Z" fill="#234526"/>
<path d="M1727 563L1521 774C1521 657.473 1613.23 563 1727 563Z" fill="#6A984D"/>
<path d="M1453.86 562.681C1453.86 562.521 1453.85 562.378 1453.85 562.218C1453.85 524.88 1484.11 494.618 1521.45 494.618C1558.8 494.618 1589.06 524.88 1589.06 562.218C1589.06 562.378 1589.05 562.521 1589.05 562.681H1726.73C1726.73 562.521 1726.73 562.378 1726.73 562.218C1726.73 448.869 1634.83 356.963 1521.45 356.963C1408.09 356.963 1316.18 448.851 1316.18 562.218C1316.18 562.378 1316.18 562.521 1316.18 562.681H1453.86Z" fill="#234526"/>
<path d="M1453.86 562.681C1453.86 562.521 1453.85 562.379 1453.85 562.218C1453.85 524.88 1484.11 494.618 1521.45 494.618C1558.8 494.618 1589.06 524.88 1589.06 562.218C1589.06 562.379 1589.05 562.521 1589.05 562.681H1679.97C1679.97 562.521 1679.97 562.379 1679.97 562.218C1679.97 474.686 1609 403.725 1521.45 403.725C1433.91 403.725 1362.94 474.686 1362.94 562.218C1362.94 562.379 1362.94 562.521 1362.94 562.681H1453.86Z" fill="#FEFAE0"/>
<path d="M1453.86 562.681C1453.86 562.521 1453.85 562.378 1453.85 562.218C1453.85 524.88 1484.11 494.618 1521.45 494.618C1558.8 494.618 1589.06 524.88 1589.06 562.218C1589.06 562.378 1589.05 562.521 1589.05 562.681H1636.13C1636.13 562.521 1636.15 562.378 1636.15 562.218C1636.15 498.885 1584.8 447.536 1521.45 447.536C1458.11 447.536 1406.76 498.885 1406.76 562.218C1406.76 562.378 1406.78 562.521 1406.78 562.681H1453.86Z" fill="#DDA15E"/>
<path d="M1521.45 593.156C1538.24 593.156 1551.84 579.551 1551.84 562.769C1551.84 545.987 1538.24 532.383 1521.45 532.383C1504.67 532.383 1491.06 545.987 1491.06 562.769C1491.06 579.551 1504.67 593.156 1521.45 593.156Z" fill="#FEFAE0"/>
<path d="M1055 563H969V774H1055V563Z" fill="#6A984D"/>
<path d="M969 563H882V774H969V563Z" fill="#DDA15E"/>
<path d="M882 350H623V774H882V350Z" fill="#234526"/>
<path d="M1054 774H1140V563H1054V774Z" fill="#234526"/>
<path d="M1140 774H1227V563H1140V774Z" fill="#DDA15E"/>
<path d="M1227 774H1314V563H1227V774Z" fill="#6A984D"/>
<path d="M533.077 177.536H0.0527344V355.446H533.077V177.536Z" fill="#BC6C25"/>
<path d="M416.729 355.031H208.143V563.594H416.729V355.031Z" fill="#6A984D"/>
<path d="M623.055 355.031H414.469V563.594H623.055V355.031Z" fill="#DDA15E"/>
<path d="M623 563H414V774H623V563Z" fill="#BC6C25"/>
<path d="M417 562H208V774H417V562Z" fill="#234526"/>
<path d="M209 667H0V774H209V667Z" fill="#DDA15E"/>
<path d="M209 563.001H0V667.001H209V563.001Z" fill="#BC6C25"/>
<path d="M209 355.001H0V459.001H209V355.001Z" fill="#BC6C25"/>
<path d="M209 459.001H0V563.001H209V459.001Z" fill="#DDA15E"/>
<path d="M208.143 355.298L415.769 562.9C415.769 448.235 322.803 355.298 208.143 355.298Z" fill="#FEFAE0"/>
<path d="M208.143 355.298L415.769 562.9C301.091 562.9 208.143 469.945 208.143 355.298Z" fill="#DDA15E"/>
<path d="M623.392 355.298L415.766 562.9C415.766 448.235 508.732 355.298 623.392 355.298Z" fill="#FEFAE0"/>
<path d="M623.392 355.298L415.766 562.9C530.444 562.9 623.392 469.945 623.392 355.298Z" fill="#6A984D"/>
<path d="M208.143 770.521L415.769 562.918C415.769 677.583 322.803 770.521 208.143 770.521Z" fill="#BC6C25"/>
<path d="M208.143 770.521L415.769 562.918C301.091 562.918 208.143 655.874 208.143 770.521Z" fill="#DDA15E"/>
<path d="M623.392 770.521L415.766 562.918C415.766 677.583 508.732 770.521 623.392 770.521Z" fill="#234526"/>
<path d="M623.392 770.521L415.766 562.918C530.444 562.918 623.392 655.874 623.392 770.521Z" fill="#6A984D"/>
<path d="M178.534 0H533.38V178.514H0C0 79.9935 80.0026 0 178.534 0Z" fill="#DDA15E"/>
<path d="M970.043 0H533.078V177.909H970.043V0Z" fill="#BC6C25"/>
<path d="M970.291 176.932H533.611V355.446H970.291V176.932Z" fill="#DDA15E"/>
<path d="M177.751 0.249023L0.0527344 177.945C0.0527344 79.798 79.6108 0.249023 177.769 0.249023H177.751Z" fill="#BC6C25"/>
<path d="M177.751 0.249023L0.0527344 177.945C98.2111 177.945 177.769 98.3961 177.769 0.249023H177.751Z" fill="#FEFAE0"/>
<path d="M177.751 355.641L0.0527344 177.945C0.0527344 276.092 79.6108 355.641 177.769 355.641H177.751Z" fill="#DDA15E"/>
<path d="M177.751 355.641L0.0527344 177.945C98.2111 177.945 177.769 257.494 177.769 355.641H177.751Z" fill="#FEFAE0"/>
<path d="M357.05 0.249023L179.334 177.945C179.334 79.798 258.892 0.249023 357.05 0.249023Z" fill="#234526"/>
<path d="M357.05 0.249023L179.334 177.945C277.492 177.945 357.05 98.3961 357.05 0.249023Z" fill="#6A984D"/>
<path d="M357.05 355.641L179.334 177.945C179.334 276.092 258.892 355.641 357.05 355.641Z" fill="#234526"/>
<path d="M357.05 355.641L179.334 177.945C277.492 177.945 357.05 257.494 357.05 355.641Z" fill="#6A984D"/>
<path d="M533.38 0.249023L355.664 177.945C355.664 79.798 435.222 0.249023 533.38 0.249023Z" fill="#BC6C25"/>
<path d="M533.38 0.249023L355.664 177.945C453.822 177.945 533.38 98.3961 533.38 0.249023Z" fill="#FEFAE0"/>
<path d="M533.38 355.641L355.664 177.945C355.664 276.092 435.222 355.641 533.38 355.641Z" fill="#DDA15E"/>
<path d="M533.38 355.641L355.664 177.945C453.822 177.945 533.38 257.494 533.38 355.641Z" fill="#FEFAE0"/>
<path d="M45.4212 563.001H2L83.9469 460.001H129L45.4212 563.001Z" fill="#234526"/>
<path d="M45.4212 563.001H2L83.9469 667.001H129L45.4212 563.001Z" fill="#6A984D"/>
<path d="M45.4212 774H2L83.9469 667H129L45.4212 774Z" fill="#234526"/>
<path d="M45.4212 355.001H2L83.9469 459.001H129L45.4212 355.001Z" fill="#6A984D"/>
<path d="M124.421 563.001H81L162.947 460.001H208L124.421 563.001Z" fill="#6A984D"/>
<path d="M124.421 563.001H81L162.947 667.001H208L124.421 563.001Z" fill="#234526"/>
<path d="M124.421 774H81L162.947 667H208L124.421 774Z" fill="#6A984D"/>
<path d="M968.709 355.445L1405.39 355.445V176.931L968.709 176.931V355.445Z" fill="#DDA15E"/>
<path d="M124.421 355.001H81L162.947 459.001H208L124.421 355.001Z" fill="#234526"/>
<path d="M751.569 176.932H533.611V355.446H751.569V176.932Z" fill="#6A984D"/>
<path d="M752.192 178.638C752.192 81.2914 673.541 2.31144 576.289 1.65357L531.869 0V355.641H576.272C673.541 354.965 752.174 275.985 752.174 178.656L752.192 178.638Z" fill="#234526"/>
<path d="M641.71 286.636C702.374 286.636 751.552 237.464 751.552 176.807C751.552 116.15 702.374 66.9783 641.71 66.9783C581.047 66.9783 531.869 116.15 531.869 176.807C531.869 237.464 581.047 286.636 641.71 286.636Z" fill="#FEFAE0"/>
<path d="M641.71 262.544C689.067 262.544 727.457 224.158 727.457 176.807C727.457 129.456 689.067 91.0706 641.71 91.0706C594.354 91.0706 555.964 129.456 555.964 176.807C555.964 224.158 594.354 262.544 641.71 262.544Z" fill="#BC6C25"/>
<path d="M641.71 239.02C676.074 239.02 703.931 211.166 703.931 176.807C703.931 142.448 676.074 114.594 641.71 114.594C607.347 114.594 579.49 142.448 579.49 176.807C579.49 211.166 607.347 239.02 641.71 239.02Z" fill="#DDA15E"/>
<path d="M641.71 207.709C658.779 207.709 672.616 193.874 672.616 176.807C672.616 159.74 658.779 145.905 641.71 145.905C624.642 145.905 610.805 159.74 610.805 176.807C610.805 193.874 624.642 207.709 641.71 207.709Z" fill="#234526"/>
<path d="M863.046 176.931C863.188 132.463 901.42 96.4046 948.685 96.1201L970.06 95.3555V0.693359H927.062C831.678 1.33345 753.507 80.6868 752.227 176.931H863.046Z" fill="#6A984D"/>
<path d="M862.904 177.018C863.047 222.2 901.308 258.798 948.609 259.1L970 259.866V356H929.318C833.861 355.341 753.264 274.755 752 177H862.904V177.018Z" fill="#234526"/>
<path d="M968.957 177.909L1405.92 177.909V1.52588e-05L968.957 1.52588e-05V177.909Z" fill="#BC6C25"/>
<path d="M1406 0L1589 178C1589 79.685 1507.08 0 1406 0Z" fill="#BC6C25"/>
<path d="M1406 0L1589 178C1487.92 178 1406 98.315 1406 0Z" fill="#FEFAE0"/>
<path d="M1406 356L1589 178C1589 276.315 1507.08 356 1406 356Z" fill="#DDA15E"/>
<path d="M1406 356L1589 178C1487.92 178 1406 257.685 1406 356Z" fill="#FEFAE0"/>
<path d="M1187.45 355.445H1405.41V176.931L1187.45 176.931V355.445Z" fill="#6A984D"/>
<path d="M1186.81 178.638C1186.81 81.2914 1265.46 2.31144 1362.71 1.65357L1407.13 0V355.641H1362.73C1265.46 354.965 1186.83 275.985 1186.83 178.656L1186.81 178.638Z" fill="#234526"/>
<path d="M1297.29 286.636C1357.95 286.636 1407.13 237.464 1407.13 176.807C1407.13 116.15 1357.95 66.9783 1297.29 66.9783C1236.63 66.9783 1187.45 116.15 1187.45 176.807C1187.45 237.464 1236.63 286.636 1297.29 286.636Z" fill="#FEFAE0"/>
<path d="M1297.29 262.544C1344.65 262.544 1383.04 224.158 1383.04 176.807C1383.04 129.456 1344.65 91.0706 1297.29 91.0706C1249.93 91.0706 1211.54 129.456 1211.54 176.807C1211.54 224.158 1249.93 262.544 1297.29 262.544Z" fill="#BC6C25"/>
<path d="M1297.29 239.02C1331.65 239.02 1359.51 211.166 1359.51 176.807C1359.51 142.448 1331.65 114.594 1297.29 114.594C1262.93 114.594 1235.07 142.448 1235.07 176.807C1235.07 211.166 1262.93 239.02 1297.29 239.02Z" fill="#DDA15E"/>
<path d="M1297.29 207.709C1314.36 207.709 1328.2 193.874 1328.2 176.807C1328.2 159.74 1314.36 145.905 1297.29 145.905C1280.22 145.905 1266.38 159.74 1266.38 176.807C1266.38 193.874 1280.22 207.709 1297.29 207.709Z" fill="#234526"/>
<path d="M1075.97 176.931C1075.83 132.463 1037.6 96.4046 990.331 96.1201L968.957 95.3555V0.693359H1011.95C1107.34 1.33345 1185.51 80.6868 1186.79 176.931H1075.97Z" fill="#6A984D"/>
<path d="M1076.1 177.018C1075.95 222.2 1037.69 258.798 990.391 259.1L969 259.866V356H1009.68C1105.14 355.341 1185.74 274.755 1187 177H1076.1V177.018Z" fill="#234526"/>
<path d="M1316 355H1187V563H1316V355Z" fill="#BC6C25"/>
<path d="M1187 394.298L1187 356L1314 428.278L1314 468L1187 394.298Z" fill="#234526"/>
<path d="M1187 462.941L1187 425L1314 496.633L1314 536L1187 462.941Z" fill="#6A984D"/>
<path d="M1026.59 402.955C1036 402.955 1042.27 409.966 1042.27 422.335C1042.27 429.175 1040.9 434.59 1037.14 438.466C1034.52 441.145 1030.87 442.855 1026.48 442.855C1020.04 442.855 1015.08 439.663 1013.48 433.792L1020.89 432.367C1021.8 435.16 1023.8 436.072 1026.76 436.072C1028.93 436.072 1030.81 435.103 1032.12 433.678C1034.23 431.398 1035.03 428.206 1035.03 424.729C1032.86 427.123 1029.39 428.548 1025.91 428.548C1017.64 428.548 1012.57 423.304 1012.57 415.951C1012.57 408.427 1018.33 402.955 1026.59 402.955ZM1026.76 422.221C1030.01 422.221 1032.98 419.77 1032.98 415.951C1032.98 412.303 1030.01 409.852 1026.76 409.852C1023.46 409.852 1020.32 412.36 1020.32 416.065C1020.32 419.77 1023.46 422.221 1026.76 422.221ZM1051.63 433.507C1054.26 433.507 1056.14 435.559 1056.14 437.896C1056.14 440.347 1054.26 442.228 1051.63 442.228C1049.01 442.228 1047.13 440.347 1047.13 437.896C1047.13 435.559 1049.01 433.507 1051.63 433.507ZM1105.92 434.305H1101.19V442H1093.67V434.305H1073.43V427.18L1090.93 403.81H1101.19V428.035H1105.92V434.305ZM1093.67 428.035V411.334L1081.93 428.035H1093.67ZM1114.2 433.507C1116.82 433.507 1118.7 435.559 1118.7 437.896C1118.7 440.347 1116.82 442.228 1114.2 442.228C1111.58 442.228 1109.7 440.347 1109.7 437.896C1109.7 435.559 1111.58 433.507 1114.2 433.507ZM1018.78 499.989V507H992.793V501.984L1005.67 489.216C1008.01 486.879 1011.09 484.314 1011.09 480.039C1011.09 476.847 1008.75 474.624 1005.45 474.624C1001.74 474.624 999.519 476.79 999.177 481.635L992.109 480.153C992.451 472.629 997.809 467.955 1005.56 467.955C1013.26 467.955 1018.56 472.8 1018.56 479.868C1018.56 485.169 1015.82 488.76 1010.23 494.232L1004.36 499.989H1018.78ZM1039.62 467.955C1049.42 467.955 1056.03 476.049 1056.03 487.905C1056.03 499.818 1049.42 507.855 1039.62 507.855C1029.81 507.855 1023.2 499.818 1023.2 487.905C1023.2 476.049 1029.81 467.955 1039.62 467.955ZM1039.62 500.73C1044.86 500.73 1048.17 495.486 1048.17 487.905C1048.17 480.324 1044.86 475.08 1039.62 475.08C1034.37 475.08 1031.07 480.324 1031.07 487.905C1031.07 495.486 1034.37 500.73 1039.62 500.73ZM1086.42 499.989V507H1060.42V501.984L1073.31 489.216C1075.64 486.879 1078.72 484.314 1078.72 480.039C1078.72 476.847 1076.38 474.624 1073.08 474.624C1069.37 474.624 1067.15 476.79 1066.81 481.635L1059.74 480.153C1060.08 472.629 1065.44 467.955 1073.19 467.955C1080.89 467.955 1086.19 472.8 1086.19 479.868C1086.19 485.169 1083.45 488.76 1077.87 494.232L1072 499.989H1086.42ZM1099.84 482.319H1105.65C1113.46 482.319 1118.7 487.107 1118.7 494.631C1118.7 502.326 1113.17 507.855 1104.62 507.855C1096.99 507.855 1090.43 503.352 1090.43 494.631L1097.9 493.149C1097.9 498.564 1101.03 500.901 1104.8 500.901C1108.67 500.901 1111.29 498.45 1111.29 494.745C1111.29 491.439 1108.79 489.216 1105.08 489.216H1092.31L1092.94 468.81H1116.94V475.821H1100.12L1099.84 482.319Z" fill="#FEFAE0"/>
</svg>
