<svg width="28" height="28" viewBox="0 0 28 28" fill="none" xmlns="http://www.w3.org/2000/svg">
<path d="M18.694 5.80688C17.2038 5.80688 15.7136 5.80688 14.2234 5.80688C12.7451 5.80688 11.2668 5.80688 9.78852 5.80688C7.73204 5.80688 6.34912 7.19053 6.34912 9.26004C6.34912 12.2182 6.34912 15.1763 6.34912 18.1345C6.34912 20.1741 7.738 21.5637 9.7766 21.5637C12.7451 21.5637 15.7136 21.5637 18.6821 21.5637C20.7028 21.5637 22.0977 20.1801 22.1036 18.1643C22.1036 15.1823 22.1036 12.2003 22.1036 9.21829C22.1036 7.19649 20.7088 5.80688 18.694 5.80688ZM14.2174 18.7786C11.386 18.7786 9.12091 16.4944 9.13283 13.6674C9.14475 10.8524 11.4039 8.59207 14.2174 8.5861C17.0488 8.58014 19.3199 10.8524 19.3199 13.6794C19.3199 16.5063 17.0429 18.7845 14.2174 18.7786ZM19.6537 9.1825C19.1113 9.17654 18.6702 8.72924 18.6702 8.19248C18.6702 7.64379 19.1292 7.19053 19.6895 7.20246C20.2379 7.20842 20.6671 7.64976 20.6611 8.19248C20.6611 8.7531 20.214 9.19443 19.6478 9.1825H19.6537Z" fill="#234526"/>
<path d="M14.2298 10.3037C12.37 10.3037 10.844 11.8186 10.844 13.6793C10.844 15.5401 12.358 17.0669 14.2178 17.0669C16.0776 17.0669 17.6036 15.552 17.6036 13.6913C17.6036 11.8305 16.0895 10.3097 14.2298 10.3037Z" fill="#234526"/>
<path d="M21.1982 0.0576172H7.25581C3.58394 0.0576172 0.603516 3.03365 0.603516 6.70747V20.6572C0.603516 24.3311 3.57797 27.3071 7.24985 27.3071H21.1923C24.8641 27.3071 27.8386 24.3311 27.8386 20.6572V6.70747C27.8386 3.03365 24.8641 0.0576172 21.1923 0.0576172H21.1982ZM23.8091 19.2617C23.7971 21.3252 22.4559 22.8937 20.4293 23.2337C20.2087 23.2695 19.9822 23.2754 19.7617 23.2754C16.0659 23.2754 12.3643 23.2814 8.66853 23.2754C6.59416 23.2754 5.00261 21.9216 4.66881 19.8879C4.639 19.6911 4.63304 19.4883 4.63304 19.2915C4.63304 15.558 4.62112 11.8246 4.63304 8.09111C4.639 6.05143 5.98019 4.48886 7.99496 4.14295C8.21551 4.10717 8.43606 4.1012 8.66257 4.1012C12.3702 4.1012 16.0838 4.09524 19.7915 4.1012C21.8539 4.1012 23.4216 5.4431 23.7673 7.47086C23.8091 7.73327 23.8091 8.00762 23.8091 8.276C23.8091 10.0831 23.8091 11.8902 23.8091 13.7032C23.8091 15.558 23.821 17.4128 23.8091 19.2676V19.2617Z" fill="#234526"/>
</svg>
