<svg width="101" height="77" viewBox="0 0 101 77" fill="none" xmlns="http://www.w3.org/2000/svg">
<rect x="0.339844" y="19.5132" width="55.0248" height="59.9471" rx="2" transform="rotate(-16.4723 0.339844 19.5132)" fill="#234526"/>
<rect x="7.93555" y="23.5002" width="42.7189" height="43.0705" rx="2" transform="rotate(-16.4723 7.93555 23.5002)" fill="#FEFAE0"/>
<path d="M29.6996 44.5635L48.1334 56.5284L20.1486 64.8032L29.6996 44.5635Z" fill="#234526"/>
<path d="M31.0555 49.4782L43.9178 57.7743L24.3622 63.5566L31.0555 49.4782Z" fill="#6A994E"/>
<path d="M42.6801 40.7249L61.1138 52.6898L33.1291 60.9646L42.6801 40.7249Z" fill="#234526"/>
<path d="M44.036 45.6401L56.8983 53.9361L37.3427 59.7185L44.036 45.6401Z" fill="#6A994E"/>
<circle cx="24.2936" cy="31.4032" r="4.48285" transform="rotate(-16.4723 24.2936 31.4032)" fill="#234526"/>
<rect x="47.5156" y="1.48999" width="55.0248" height="59.9471" rx="2" transform="rotate(15 47.5156 1.48999)" fill="#BC6C25"/>
<rect x="51.9092" y="8.85596" width="42.7189" height="43.0705" rx="2" transform="rotate(15 51.9092 8.85596)" fill="#FEFAE0"/>
<path d="M59.4753 38.183L68.9506 58.0119L40.7625 50.4589L59.4753 38.183Z" fill="#234526"/>
<path d="M58.0714 43.0836L64.7103 56.8745L45.0126 51.5965L58.0714 43.0836Z" fill="#6A994E"/>
<path d="M72.5505 41.6865L82.0258 61.5153L53.8377 53.9623L72.5505 41.6865Z" fill="#234526"/>
<path d="M71.1447 46.587L77.7836 60.3779L58.0859 55.0999L71.1447 46.587Z" fill="#6A994E"/>
<circle cx="61.7382" cy="24.1383" r="4.48285" transform="rotate(15 61.7382 24.1383)" fill="#BC6C25"/>
<rect x="19.1484" width="58.2912" height="63.5057" rx="2" fill="#DCA15F"/>
<rect x="25.667" y="6.33203" width="45.2548" height="45.6273" rx="2" fill="#FEFAE0"/>
<path d="M48.5251 26.9165L70.484 52.2018H25.623L48.5251 26.9165Z" fill="#234526"/>
<path d="M48.3869 35.073L63.958 52.2017H32.1475L48.3869 35.073Z" fill="#6A994E"/>
<circle cx="39.914" cy="19.2751" r="4.74896" fill="#BC6C25"/>
</svg>
