<?xml version="1.0" encoding="utf-8"?>
<!-- Generator: Adobe Illustrator 28.0.0, SVG Export Plug-In . SVG Version: 6.00 Build 0)  -->
<svg version="1.1" id="Layer_1" xmlns="http://www.w3.org/2000/svg" xmlns:xlink="http://www.w3.org/1999/xlink" x="0px" y="0px"
	 viewBox="0 0 350 350" style="enable-background:new 0 0 350 350;" xml:space="preserve">
<style type="text/css">
	.st0{fill:#FFFFFF;}
</style>
<path class="st0" d="M176.5,58.1c38.9,0,43.5,0.2,58.8,0.9c14.2,0.6,21.9,3,27,5c6.8,2.6,11.7,5.8,16.7,10.9
	c5.1,5.1,8.2,10,10.9,16.7c2,5.1,4.4,12.9,5,27c0.7,15.4,0.9,20,0.9,58.8c0,38.9-0.2,43.5-0.9,58.8c-0.6,14.2-3,21.9-5,27
	c-2.6,6.8-5.8,11.7-10.9,16.7c-5.1,5.1-10,8.2-16.7,10.9c-5.1,2-12.9,4.4-27,5c-15.4,0.7-20,0.9-58.8,0.9c-38.9,0-43.5-0.2-58.8-0.9
	c-14.2-0.6-21.9-3-27-5c-6.8-2.6-11.7-5.8-16.7-10.9c-5.1-5.1-8.2-10-10.9-16.7c-2-5.1-4.4-12.9-5-27c-0.7-15.4-0.9-20-0.9-58.8
	c0-38.9,0.2-43.5,0.9-58.8c0.6-14.2,3-21.9,5-27c2.6-6.8,5.8-11.7,10.9-16.7c5.1-5.1,10-8.2,16.7-10.9c5.1-2,12.9-4.4,27-5
	C133,58.3,137.6,58.1,176.5,58.1z M176.5,31.9c-39.5,0-44.5,0.2-60,0.9c-15.5,0.7-26.1,3.2-35.3,6.8c-9.6,3.8-17.7,8.7-25.8,16.8
	c-8.1,8.1-13.1,16.2-16.8,25.8c-3.6,9.3-6.1,19.8-6.8,35.3C31.1,133,31,138,31,177.5s0.2,44.5,0.9,60c0.7,15.5,3.2,26.1,6.8,35.3
	c3.8,9.6,8.7,17.7,16.8,25.8c8.1,8.1,16.2,13.1,25.8,16.8c9.3,3.6,19.8,6.1,35.3,6.8c15.5,0.7,20.5,0.9,60,0.9
	c39.5,0,44.5-0.2,60-0.9c15.5-0.7,26.1-3.2,35.3-6.8c9.6-3.7,17.7-8.7,25.8-16.8c8.1-8.1,13.1-16.2,16.8-25.8
	c3.6-9.3,6.1-19.8,6.8-35.3c0.7-15.5,0.9-20.5,0.9-60c0-39.5-0.2-44.5-0.9-60c-0.7-15.5-3.2-26.1-6.8-35.3
	c-3.6-9.7-8.5-17.8-16.7-25.9c-8.1-8.1-16.2-13.1-25.8-16.8c-9.3-3.6-19.8-6.1-35.3-6.8C221,32.1,216,31.9,176.5,31.9z"/>
<path class="st0" d="M176.5,102.7c-41.3,0-74.8,33.5-74.8,74.8s33.5,74.8,74.8,74.8s74.8-33.5,74.8-74.8S217.8,102.7,176.5,102.7z
	 M176.5,226c-26.8,0-48.5-21.7-48.5-48.5s21.7-48.5,48.5-48.5s48.5,21.7,48.5,48.5S203.3,226,176.5,226z"/>
<path class="st0" d="M271.7,99.7c0,9.7-7.8,17.5-17.5,17.5c-9.7,0-17.5-7.8-17.5-17.5c0-9.7,7.8-17.5,17.5-17.5
	C263.9,82.3,271.7,90.1,271.7,99.7z"/>
</svg>
