<svg width="44" height="44" viewBox="0 0 44 44" fill="none" xmlns="http://www.w3.org/2000/svg">
<path d="M36.9158 0H6.33566C2.84247 0 0 2.84247 0 6.33566V36.9158C0 40.409 2.84247 43.2515 6.33566 43.2515H36.9158C40.409 43.2515 43.2515 40.409 43.2515 36.9158V6.33566C43.2515 2.84247 40.409 0 36.9158 0ZM21.7102 32.9454C15.4217 32.9454 10.306 27.8297 10.306 21.5413C10.306 15.2528 15.4217 10.1371 21.7102 10.1371C27.9987 10.1371 33.1144 15.2528 33.1144 21.5413C33.1144 27.8297 27.9987 32.9454 21.7102 32.9454ZM34.3815 12.6713C32.2855 12.6713 30.5801 10.966 30.5801 8.86993C30.5801 6.77388 32.2855 5.06853 34.3815 5.06853C36.4776 5.06853 38.1829 6.77388 38.1829 8.86993C38.1829 10.966 36.4776 12.6713 34.3815 12.6713Z" fill="#000301"/>
<path d="M34.3816 7.60303C33.6824 7.60303 33.1145 8.17093 33.1145 8.87016C33.1145 9.56939 33.6824 10.1373 34.3816 10.1373C35.0809 10.1373 35.6488 9.56939 35.6488 8.87016C35.6488 8.17093 35.0809 7.60303 34.3816 7.60303Z" fill="#000301"/>
<path d="M21.7103 12.6714C16.8199 12.6714 12.8403 16.651 12.8403 21.5413C12.8403 26.4317 16.8199 30.4112 21.7103 30.4112C26.6006 30.4112 30.5802 26.4317 30.5802 21.5413C30.5802 16.651 26.6006 12.6714 21.7103 12.6714Z" fill="#000301"/>
</svg>
