<svg width="29" height="35" viewBox="0 0 29 35" fill="none" xmlns="http://www.w3.org/2000/svg">
<path d="M19.0417 12.8405C18.7564 12.6296 18.403 12.549 18.0495 12.6048C17.6465 12.673 17.2682 12.9149 17.014 13.2745C16.1397 14.5085 15.2344 15.7362 14.3105 16.9082C13.8206 17.5282 13.2749 18.1235 12.7417 18.694L12.2952 19.1776C11.5387 20.0023 10.7512 20.8519 9.94512 21.658C9.33745 22.2656 8.69256 22.8609 8.07249 23.4376C7.85546 23.636 7.63843 23.8406 7.42761 24.0391C6.95015 24.4855 6.46649 24.932 5.96422 25.397L5.44336 25.8745L7.12377 27.9579C7.12377 27.9579 7.12377 27.9579 7.12997 27.9579C7.20438 27.9083 7.27259 27.8649 7.32839 27.8153C7.62603 27.5425 7.92367 27.2697 8.22131 26.9968C8.9716 26.3085 9.7467 25.6016 10.4784 24.8762L11.0985 24.2623C12.8967 22.4951 14.7507 20.672 16.3257 18.6506C17.3798 17.305 18.3906 15.9408 19.3331 14.6635C19.5129 14.4216 19.5811 14.093 19.5315 13.752C19.4757 13.3799 19.2835 13.0265 19.0355 12.8467L19.0417 12.8405Z" fill="#FEFAE0"/>
<path d="M10.1067 30.7235C10.2617 30.8599 10.4106 30.9963 10.5656 31.1327C10.981 31.5047 11.4151 31.8954 11.8553 32.2426C12.3576 32.6395 12.8847 33.0301 13.3931 33.4084C13.8582 33.7556 14.3294 34.1029 14.7883 34.4563C14.8379 34.4935 14.8627 34.5059 14.8751 34.5121C14.8751 34.5121 14.8999 34.4935 14.9433 34.4625C15.2162 34.2517 15.4952 34.0533 15.7742 33.8486C16.1525 33.5758 16.5431 33.2906 16.909 32.9929C17.1632 32.7883 17.4174 32.5775 17.6717 32.3729C18.7072 31.5296 19.7799 30.6552 20.7472 29.7251C21.5781 28.9252 22.3408 28.0199 23.0849 27.1456C23.2772 26.9162 23.4694 26.6867 23.6678 26.4573C24.7033 25.2482 25.6211 23.8654 26.4706 22.2346C27.8533 19.5807 28.5912 17.2988 28.802 15.0603C28.9385 13.5907 28.9075 12.3816 28.7028 11.2592C28.43 9.80204 27.8843 8.35106 27.0782 6.94969C26.2287 5.4801 25.125 4.19034 23.8042 3.11761C22.7811 2.2867 21.5781 1.57981 20.214 1.01554C18.8002 0.426471 17.2872 0.0916289 15.7184 0.0110189C14.8069 -0.0323865 13.8644 0.0606251 12.9467 0.147436C11.5515 0.283853 10.1687 0.705506 8.72394 1.4248C7.11794 2.2247 5.71657 3.27263 4.56322 4.53758C3.43468 5.77154 2.58518 7.0675 1.9651 8.49368C1.20241 10.2795 0.861363 12.0963 0.935772 14.0496C0.979177 15.2525 1.159 16.4369 1.47524 17.6584C1.55585 17.9685 1.66126 18.2785 1.76047 18.5823C1.76047 18.5947 1.76668 18.6071 1.77288 18.6133C1.77288 18.6133 1.77908 18.6009 1.78528 18.6009C2.20693 18.1669 2.62858 17.739 3.05024 17.3112C3.76332 16.5857 4.47641 15.8602 5.1771 15.1223C5.51194 14.7751 5.84058 14.4092 6.15682 14.0558C6.33665 13.8511 6.52267 13.6527 6.70249 13.4543C7.33497 12.766 7.96745 12.0777 8.59373 11.3956L10.1501 9.70283C10.3051 9.52921 10.4664 9.36179 10.6276 9.18816C11.0182 8.76651 11.4213 8.33246 11.7995 7.8984C12.9095 6.62724 14.1744 5.35609 15.892 4.6368C17.6531 3.8927 19.4575 3.91751 21.2371 4.6926C22.378 5.18867 23.3826 5.99477 24.3003 7.14191C25.1064 8.15264 25.7141 9.30598 26.0985 10.5771C26.545 12.0405 26.669 13.2745 26.4954 14.4588C26.4644 14.6634 26.4458 14.8681 26.421 15.0665C26.3775 15.4757 26.3279 15.8912 26.2287 16.3067C25.7947 18.1173 25.063 19.9155 23.9902 21.8067C22.8803 23.76 21.4541 25.6326 19.7427 27.3688C18.8002 28.3238 17.7833 29.2229 16.7974 30.091C16.3943 30.4444 15.9851 30.7545 15.5882 31.0459C15.4146 31.1761 15.241 31.3063 15.0673 31.4365L14.8751 31.5854L12.9343 30.029L13.2319 29.7871C13.2815 29.7437 13.3311 29.7065 13.3807 29.6693C13.4613 29.6073 13.5295 29.5515 13.5792 29.5019C13.9016 29.1671 14.2302 28.8322 14.5527 28.4974C15.4332 27.5921 16.3447 26.6495 17.2128 25.707C18.2359 24.5971 19.1971 23.4437 20.0094 22.4702C21.5595 20.5976 22.5703 19.0474 23.2834 17.4476C23.8662 16.133 24.1949 14.9115 24.2879 13.7085C24.4119 12.0467 24.0895 10.6391 23.302 9.41139C22.6695 8.41307 21.913 7.74959 21.0015 7.37754C20.3504 7.11091 19.6435 7.01169 18.6948 7.0427C18.0251 7.0675 17.3802 7.22252 16.7167 7.52016C15.365 8.12163 14.3232 9.19437 13.4489 10.1493C12.9529 10.6888 12.463 11.253 11.9856 11.7987C11.5453 12.3072 11.0988 12.8156 10.6462 13.3117C9.49904 14.5828 8.54412 15.606 7.64501 16.5361C7.15515 17.0445 6.63428 17.5406 6.13202 18.0181C5.89019 18.2475 5.65456 18.4707 5.41273 18.7064L4.64383 19.4566C4.04856 20.0333 3.45949 20.61 2.85801 21.1805C2.81461 21.2177 2.80841 21.2425 2.8022 21.2425C2.8022 21.2425 2.8022 21.2673 2.84561 21.3417C2.96343 21.5587 3.07504 21.7819 3.18665 21.999C3.32307 22.2656 3.45949 22.5384 3.60831 22.8051C3.71372 22.9973 3.83153 23.1833 3.96175 23.3755C4.11677 23.2329 4.27179 23.0903 4.42681 22.9539C4.96628 22.464 5.47474 22.0052 5.9708 21.5153C7.83723 19.6551 9.66026 17.7948 11.5143 15.8974C11.8429 15.5626 12.1592 15.1905 12.4692 14.8371L12.711 14.5518C12.9653 14.2604 13.2195 13.9566 13.4675 13.6589C13.976 13.0574 14.4969 12.4436 15.0425 11.8545C15.675 11.1786 16.3137 10.5957 16.94 10.1121C17.8329 9.42999 18.8002 9.21297 19.8233 9.4672C21.0573 9.77724 21.8262 11.4204 21.9068 12.487C22.037 14.2418 21.5719 15.9408 20.4806 17.677C19.7365 18.8614 18.918 20.0085 18.0561 21.0874C17.1136 22.2656 16.0595 23.4809 14.6519 25.0249C13.9326 25.8124 13.1637 26.5627 12.4134 27.2882L11.9421 27.7471C11.6507 28.0323 11.3407 28.3052 11.0368 28.5656C10.8756 28.7082 10.7144 28.8508 10.5532 28.9934C10.2121 29.3035 9.87109 29.6135 9.52384 29.9298L9.36882 30.0724L9.41843 30.122C9.64786 30.3328 9.86489 30.5312 10.0881 30.7297L10.1067 30.7235ZM13.7466 3.0494C12.6056 3.73148 11.5701 4.58099 10.578 5.66613C9.89589 6.41022 9.21381 7.17911 8.55032 7.92321C8.19068 8.33246 7.82483 8.74171 7.46519 9.14476C6.96292 9.70903 6.44826 10.2671 5.9398 10.8252C5.41893 11.3956 4.89187 11.9599 4.3648 12.5304L4.07336 12.8466C4.03616 12.8838 3.99895 12.921 3.94315 12.9706L3.28587 13.5783L3.32927 12.8032C3.65791 7.12331 8.98438 2.79517 13.5605 2.46653L14.8751 2.37351L13.7466 3.0494Z" fill="#FEFAE0"/>
</svg>
