<svg width="54" height="62" viewBox="0 0 54 62" fill="none" xmlns="http://www.w3.org/2000/svg">
<path fill-rule="evenodd" clip-rule="evenodd" d="M51 51V23L31 3H11C8.87827 3 6.84344 3.84285 5.34315 5.34315C3.84285 6.84344 3 8.87827 3 11V51C3 53.1217 3.84285 55.1566 5.34315 56.6569C6.84344 58.1571 8.87827 59 11 59H43C45.1217 59 47.1566 58.1571 48.6569 56.6569C50.1571 55.1566 51 53.1217 51 51V51Z" stroke="#FF8400" stroke-width="5" stroke-linecap="round" stroke-linejoin="round"/>
<path d="M31.0002 3V15C31.0002 17.1217 31.8431 19.1566 33.3434 20.6569C34.8437 22.1572 36.8785 23 39.0002 23H51.0002" stroke="#FF8400" stroke-width="5" stroke-linecap="round" stroke-linejoin="round"/>
</svg>
