<svg width="67" height="61" viewBox="0 0 67 61" fill="none" xmlns="http://www.w3.org/2000/svg">
<path d="M39.0128 4.63053C22.2697 -3.88864 5.76437 3.69564 2.53417 10.0441C-0.696027 16.3925 0.229572 22.8571 6.92707 26.2649C13.6246 29.6727 16.1669 32.9631 13.7444 37.7241C10.5149 44.0713 13.1145 51.3877 19.812 54.7955C41.5785 65.8707 57.2748 59.8732 62.9269 48.7649C72.6155 29.7202 59.1 14.8512 39.0128 4.63053ZM31.5968 8.84918C32.1469 9.12988 32.6393 9.51024 33.0459 9.96853C33.4525 10.4268 33.7653 10.9541 33.9666 11.5202C34.1679 12.0863 34.2536 12.6802 34.2189 13.2679C34.1842 13.8557 34.0297 14.4258 33.7643 14.9457C32.6487 17.1382 29.8711 17.96 27.5596 16.7838C25.248 15.6076 24.2778 12.8774 25.3927 10.6861C25.6568 10.1655 26.0267 9.70498 26.4813 9.33092C26.936 8.95685 27.4665 8.67653 28.0426 8.50596C28.6187 8.33539 29.2291 8.27791 29.839 8.3368C30.4488 8.39569 31.0461 8.5698 31.5968 8.84918ZM44.9892 15.6634C45.5392 15.9441 46.0316 16.3245 46.4382 16.7828C46.8448 17.2411 47.1577 17.7683 47.3589 18.3344C47.5602 18.9005 47.6459 19.4944 47.6112 20.0822C47.5765 20.6699 47.422 21.24 47.1566 21.7599C46.8927 22.2807 46.5229 22.7414 46.0682 23.1156C45.6136 23.4899 45.083 23.7704 44.5068 23.9411C43.9306 24.1118 43.3201 24.1693 42.7101 24.1105C42.1002 24.0516 41.5027 23.8775 40.9519 23.5981C40.4019 23.3172 39.9097 22.9367 39.5032 22.4783C39.0967 22.0199 38.784 21.4925 38.583 20.9264C38.3819 20.3602 38.2963 19.7663 38.3313 19.1786C38.3662 18.5909 38.5208 18.0208 38.7864 17.501C39.3195 16.4498 40.2724 15.6657 41.4356 15.3211C42.5988 14.9765 43.877 15.0996 44.9892 15.6634ZM55.1546 28.8262C55.705 29.1069 56.1976 29.4873 56.6045 29.9457C57.0113 30.4041 57.3244 30.9316 57.5257 31.4979C57.7271 32.0642 57.8128 32.6584 57.7779 33.2463C57.7431 33.8343 57.5884 34.4046 57.3228 34.9246C57.0588 35.4455 56.6889 35.9062 56.2341 36.2804C55.7794 36.6546 55.2487 36.935 54.6724 37.1055C54.0961 37.276 53.4855 37.3334 52.8755 37.2742C52.2655 37.2151 51.668 37.0406 51.1173 36.7608C50.5672 36.4803 50.0748 36.1001 49.6681 35.6418C49.2615 35.1836 48.9487 34.6563 48.7475 34.0902C48.5463 33.5241 48.4608 32.9302 48.4957 32.3425C48.5307 31.7548 48.6855 31.1848 48.9512 30.665C49.2149 30.1442 49.5846 29.6835 50.0391 29.3092C50.4936 28.9348 51.0241 28.6543 51.6002 28.4835C52.1762 28.3128 52.7867 28.2551 53.3966 28.3139C54.0065 28.3727 54.6038 28.5468 55.1546 28.8262ZM15.0322 12.4081C15.5822 12.6886 16.0746 13.0687 16.4812 13.5268C16.8878 13.985 17.2006 14.5121 17.4018 15.0781C17.603 15.644 17.6887 16.2378 17.6539 16.8254C17.6191 17.413 17.4645 17.9829 17.199 18.5026C16.0834 20.6952 13.3058 21.5169 10.9956 20.3414C8.68533 19.1659 7.71379 16.435 8.82877 14.2437C9.36222 13.1927 10.3154 12.4089 11.4787 12.0647C12.642 11.7204 13.9202 11.844 15.0322 12.4081ZM27.8852 38.9256C30.6594 40.3371 31.8236 43.6109 30.4842 46.2432C29.1467 48.8718 25.8144 49.8592 23.0402 48.4476C20.2661 47.0361 19.1025 43.7611 20.44 41.1325C20.7565 40.5075 21.2002 39.9545 21.7457 39.5053C22.2912 39.0561 22.9278 38.7194 23.6192 38.5144C24.3106 38.3095 25.0433 38.2403 25.7752 38.3108C26.5072 38.3814 27.2242 38.5903 27.8852 38.9256Z" fill="#FF8400"/>
</svg>
