<svg width="87" height="104" viewBox="0 0 87 104" fill="none" xmlns="http://www.w3.org/2000/svg">
<path d="M46.3838 0L86.8282 42.4644H46.3838V0Z" fill="#DCA15F"/>
<path fill-rule="evenodd" clip-rule="evenodd" d="M1.16406 0C0.611778 0 0.164062 0.447716 0.164062 1V42.3704V44.2963V103C0.164062 103.552 0.611776 104 1.16406 104H85.8307C86.383 104 86.8307 103.552 86.8307 103V42.3704H46.3863V0H1.16406Z" fill="#BC6C25"/>
<rect x="6" y="66" width="54" height="3" rx="1.5" fill="#234526"/>
<rect x="6" y="73" width="48" height="3" rx="1.5" fill="#234526"/>
<rect x="6" y="80" width="53" height="3" rx="1.5" fill="#234526"/>
<rect x="6" y="87" width="46" height="3" rx="1.5" fill="#234526"/>
<rect x="6" y="94" width="22" height="3" rx="1.5" fill="#234526"/>
</svg>
