<svg width="144" height="75" viewBox="0 0 144 75" fill="none" xmlns="http://www.w3.org/2000/svg">
<path d="M70.7732 35.3065L35.3867 -7.73396e-06C54.9318 -3.46225e-06 70.7732 15.8092 70.7732 35.3065Z" fill="#BC6C25"/>
<path d="M70.7732 35.3065L35.3867 -7.73396e-06C35.3867 19.5009 51.2281 35.3065 70.7732 35.3065Z" fill="#6A984D"/>
<path d="M-3.06047e-05 35.3065L35.3865 0C15.8414 -4.27171e-06 -2.63426e-05 15.8056 -3.06047e-05 35.3065Z" fill="#DDA15E"/>
<path d="M-3.06047e-05 35.3065L35.3865 0C35.3865 19.5009 19.545 35.3065 -3.06047e-05 35.3065Z" fill="#6A984D"/>
<path d="M144 35.3065L108.613 -7.73396e-06C128.158 -3.46225e-06 144 15.8092 144 35.3065Z" fill="#BC6C25"/>
<path d="M144 35.3065L108.613 -7.73396e-06C108.613 19.5009 124.455 35.3065 144 35.3065Z" fill="#234526"/>
<path d="M73.2265 35.3065L108.613 0C89.068 -4.27171e-06 73.2265 15.8056 73.2265 35.3065Z" fill="#DDA15E"/>
<path d="M73.2265 35.3065L108.613 0C108.613 19.5009 92.7716 35.3065 73.2265 35.3065Z" fill="#234526"/>
<g clip-path="url(#clip0_58_557)">
<path d="M34.7719 74.8605C46.7456 74.8605 56.4521 65.154 56.4521 53.1804C56.4521 41.2068 46.7456 31.5002 34.7719 31.5002C22.7983 31.5002 13.0918 41.2068 13.0918 53.1804C13.0918 65.154 22.7983 74.8605 34.7719 74.8605Z" fill="#6A994E"/>
<path d="M34.772 70.1047C44.1191 70.1047 51.6963 62.5274 51.6963 53.1804C51.6963 43.8333 44.1191 36.256 34.772 36.256C25.4249 36.256 17.8477 43.8333 17.8477 53.1804C17.8477 62.5274 25.4249 70.1047 34.772 70.1047Z" fill="#BC6C25"/>
<path d="M34.7721 65.4613C41.5546 65.4613 47.0529 59.9629 47.0529 53.1804C47.0529 46.3979 41.5546 40.8995 34.7721 40.8995C27.9895 40.8995 22.4912 46.3979 22.4912 53.1804C22.4912 59.9629 27.9895 65.4613 34.7721 65.4613Z" fill="#DDA15E"/>
<path d="M34.7719 59.2805C38.1409 59.2805 40.872 56.5494 40.872 53.1804C40.872 49.8114 38.1409 47.0803 34.7719 47.0803C31.403 47.0803 28.6719 49.8114 28.6719 53.1804C28.6719 56.5494 31.403 59.2805 34.7719 59.2805Z" fill="#234526"/>
</g>
<defs>
<clipPath id="clip0_58_557">
<rect width="43.3638" height="43.3638" fill="white" transform="translate(13.0918 31.5002)"/>
</clipPath>
</defs>
</svg>
