<svg width="173" height="270" viewBox="0 0 173 270" fill="none" xmlns="http://www.w3.org/2000/svg">
<path d="M173 175.305L86.5 89C134.277 89 173 127.645 173 175.305Z" fill="#DDA15E"/>
<path d="M173 175.305L86.5 89C86.5 136.669 125.223 175.305 173 175.305Z" fill="#6A984D"/>
<path d="M4.02572e-06 175.305L86.5 89C38.7233 89 1.44441e-05 127.636 4.02572e-06 175.305Z" fill="#DDA15E"/>
<path d="M4.02572e-06 175.305L86.5 89C86.5 136.669 47.7767 175.305 4.02572e-06 175.305Z" fill="#6A984D"/>
<path d="M173 269.305L86.5 183C134.277 183 173 221.645 173 269.305Z" fill="#234526"/>
<path d="M173 269.305L86.5 183C86.5 230.669 125.223 269.305 173 269.305Z" fill="#6A984D"/>
<path d="M4.02572e-06 269.305L86.5 183C38.7233 183 1.44441e-05 221.636 4.02572e-06 269.305Z" fill="#234526"/>
<path d="M4.02572e-06 269.305L86.5 183C86.5 230.669 47.7767 269.305 4.02572e-06 269.305Z" fill="#6A984D"/>
<path d="M173 86.3046L86.5 1.68315e-07C134.277 1.06102e-05 173 38.6445 173 86.3046Z" fill="#234526"/>
<path d="M173 86.3046L86.5 1.68315e-07C86.5 47.6687 125.223 86.3046 173 86.3046Z" fill="#6A984D"/>
<path d="M4.02572e-06 86.3046L86.5 1.90735e-05C38.7233 8.63157e-06 1.44441e-05 38.6358 4.02572e-06 86.3046Z" fill="#234526"/>
<path d="M4.02572e-06 86.3046L86.5 1.90735e-05C86.5 47.6687 47.7767 86.3046 4.02572e-06 86.3046Z" fill="#6A984D"/>
</svg>
