<?xml version="1.0" encoding="utf-8"?>
<!-- Generator: Adobe Illustrator 28.0.0, SVG Export Plug-In . SVG Version: 6.00 Build 0)  -->
<svg version="1.1" id="Layer_1" xmlns="http://www.w3.org/2000/svg" xmlns:xlink="http://www.w3.org/1999/xlink" x="0px" y="0px"
	 viewBox="0 0 350 350" style="enable-background:new 0 0 350 350;" xml:space="preserve">
<style type="text/css">
	.st0{fill:#FFFFFF;}
</style>
<path class="st0" d="M175,26.1C92.8,26.1,26.1,92.8,26.1,175c0,82.2,66.6,148.9,148.9,148.9c82.2,0,148.9-66.6,148.9-148.9
	C323.9,92.8,257.2,26.2,175,26.1L175,26.1z M243.3,240.8c-2.7,4.4-8.4,5.8-12.8,3.1c-34.9-21.3-78.9-26.2-130.8-14.3
	c-5,1.1-10-2-11.1-7c-1.1-5,2-10,7-11.1c56.7-13,105.3-7.4,144.6,16.6C244.6,230.8,245.9,236.5,243.3,240.8z M261.5,200.3
	c-3.4,5.5-10.5,7.2-16,3.8c-40-24.6-101-31.7-148.3-17.4c-6.1,1.9-12.6-1.6-14.5-7.7c-1.8-6.1,1.6-12.6,7.7-14.5
	c54.1-16.4,121.3-8.5,167.2,19.8C263.1,187.7,264.8,194.9,261.5,200.3z M263,158.1c-48-28.5-127.1-31.1-172.9-17.2
	c-7.4,2.2-15.1-1.9-17.4-9.3c-2.2-7.4,1.9-15.1,9.3-17.4c52.6-16,140-12.9,195.2,19.9c6.6,3.9,8.8,12.5,4.9,19.1
	C278.2,159.8,269.6,162,263,158.1L263,158.1z"/>
</svg>
