<svg width="116" height="115" viewBox="0 0 116 115" fill="none" xmlns="http://www.w3.org/2000/svg">
<path d="M57.5058 114.999C89.2654 114.999 115.012 89.2553 115.012 57.4993C115.012 25.7433 89.2654 0 57.5058 0C25.7462 0 0 25.7433 0 57.4993C0 89.2553 25.7462 114.999 57.5058 114.999Z" fill="#6A994E"/>
<path d="M57.5055 102.386C82.2982 102.386 102.397 82.2893 102.397 57.4994C102.397 32.7095 82.2982 12.6133 57.5055 12.6133C32.7127 12.6133 12.6143 32.7095 12.6143 57.4994C12.6143 82.2893 32.7127 102.386 57.5055 102.386Z" fill="#BC6C25"/>
<path d="M57.5066 90.0709C75.4972 90.0709 90.0816 75.4883 90.0816 57.4997C90.0816 39.5111 75.4972 24.9285 57.5066 24.9285C39.5159 24.9285 24.9316 39.5111 24.9316 57.4997C24.9316 75.4883 39.5159 90.0709 57.5066 90.0709Z" fill="#DDA15E"/>
<path d="M57.5027 73.6782C66.4389 73.6782 73.6831 66.4348 73.6831 57.4996C73.6831 48.5644 66.4389 41.321 57.5027 41.321C48.5665 41.321 41.3223 48.5644 41.3223 57.4996C41.3223 66.4348 48.5665 73.6782 57.5027 73.6782Z" fill="#234526"/>
</svg>
