<?xml version="1.0" encoding="utf-8"?>
<!-- Generator: Adobe Illustrator 28.0.0, SVG Export Plug-In . SVG Version: 6.00 Build 0)  -->
<svg version="1.1" id="Layer_1" xmlns="http://www.w3.org/2000/svg" xmlns:xlink="http://www.w3.org/1999/xlink" x="0px" y="0px"
	 viewBox="0 0 350 350" style="enable-background:new 0 0 350 350;" xml:space="preserve">
<style type="text/css">
	.st0{fill:#FFFFFF;}
</style>
<path class="st0" d="M320.9,116.8c0,0-2.9-20.1-11.9-28.9c-11.3-11.6-24-11.7-29.8-12.3c-41.6-3-104.1-3-104.1-3h-0.1
	c0,0-62.5,0-104.1,3C65,76.3,52.3,76.4,41,88c-9,8.8-11.8,28.9-11.8,28.9s-3,23.6-3,47.1V186c0,23.5,3,47.1,3,47.1
	S32,253.2,40.9,262c11.3,11.6,26.2,11.2,32.9,12.4c23.8,2.2,101.2,2.9,101.2,2.9s62.6-0.1,104.2-3c5.8-0.7,18.5-0.7,29.8-12.3
	c9-8.8,11.9-28.9,11.9-28.9s3-23.5,3-47.1v-22.1C323.9,140.4,320.9,116.8,320.9,116.8z M144.2,212.8V131l80.4,41L144.2,212.8z"/>
</svg>
