<svg width="33" height="26" viewBox="0 0 33 26" fill="none" xmlns="http://www.w3.org/2000/svg">
<path d="M16.4186 0C19.8063 0.148475 23.1946 0.283611 26.5818 0.455285C27.3801 0.495884 28.1804 0.61478 28.9678 0.774275C30.8789 1.16054 32.1039 2.61397 32.4661 4.87822C32.9621 7.98112 33.0623 11.1182 32.9683 14.2559C32.9027 16.4494 32.7146 18.6412 32.525 20.8271C32.386 22.429 31.8063 23.7908 30.5488 24.7008C29.781 25.2564 28.9146 25.4177 28.0352 25.5215C24.6351 25.9246 21.2204 26.0168 17.8069 25.9976C14.3483 25.9785 10.8893 25.8614 7.43179 25.7361C6.3251 25.6961 5.21686 25.5366 4.11947 25.3556C2.23624 25.0453 0.952337 23.5942 0.562775 21.4135C0.174245 19.2362 0.0833128 17.0253 0.0259634 14.8156C-0.0489525 11.9076 0.0311301 9.00305 0.359727 6.11358C0.433609 5.46516 0.531775 4.81558 0.676957 4.18282C1.12284 2.24221 2.53435 0.936669 4.4057 0.673358C7.62915 0.219813 10.8717 0.181534 14.1133 0.120056C14.8805 0.105557 15.6483 0.117736 16.416 0.117736L16.4186 0ZM13.2354 7.52003V18.5948C16.0988 16.7435 18.926 14.9154 21.8001 13.0565C18.9172 11.1931 16.0941 9.36843 13.2354 7.52003Z" fill="#234526"/>
</svg>
