<svg width="164" height="46" viewBox="0 0 164 46" fill="none" xmlns="http://www.w3.org/2000/svg">
<path d="M62.7757 28.7595C62.4605 30.4019 61.6593 31.6807 60.3853 32.6211C59.1245 33.5488 57.5747 34.0252 55.7623 34.0252C53.7003 34.0252 51.9535 33.3608 50.5219 32.0193C49.1035 30.6903 48.3811 29.0479 48.3811 27.092C48.3811 25.1487 49.1035 23.5063 50.535 22.1648C51.9666 20.8233 53.7134 20.1588 55.7754 20.1588C57.5222 20.1588 59.0326 20.6227 60.3328 21.5505C61.6199 22.4782 62.4342 23.7069 62.7757 25.249L59.4134 26.0013C59.2033 25.061 58.783 24.3589 58.1395 23.8699C57.4959 23.3809 56.7079 23.1427 55.7885 23.1427C54.6853 23.1427 53.7397 23.5189 52.9779 24.2711C52.2162 25.0233 51.8221 25.9637 51.8221 27.0795C51.8221 28.2079 52.203 29.1482 52.9779 29.9004C53.7397 30.6527 54.6853 31.0413 55.7885 31.0413C56.6948 31.0413 57.4828 30.7906 58.1263 30.3016C58.7699 29.8127 59.2033 29.0729 59.4397 28.1076L62.7757 28.7595Z" fill="#FF8400"/>
<path d="M77.972 27.7436C77.972 29.6493 77.4072 31.1664 76.2777 32.3073C75.1482 33.4482 73.6641 34.0249 71.8123 34.0249C69.921 34.0249 68.3843 33.4482 67.2417 32.3073C66.0991 31.1664 65.5081 29.6493 65.5081 27.7436V20.4594H68.936V27.7436C68.936 28.7466 69.1986 29.549 69.724 30.1257C70.2493 30.715 70.9454 31.0034 71.8254 31.0034C72.6528 31.0034 73.3226 30.715 73.8217 30.1257C74.3208 29.5365 74.5704 28.7466 74.5704 27.7436V20.4594H77.9983V27.7436H77.972Z" fill="#FF8400"/>
<path d="M91.4332 33.724H81.1626V20.4594H84.5774V30.878H91.4332V33.724Z" fill="#FF8400"/>
<path d="M97.9202 23.3054V33.724H94.5186V23.3054H90.0137V20.4594H102.425V23.3054H97.9202Z" fill="#FF8400"/>
<path d="M117.295 27.7436C117.295 29.6493 116.73 31.1664 115.6 32.3073C114.471 33.4482 112.987 34.0249 111.135 34.0249C109.244 34.0249 107.72 33.4482 106.564 32.3073C105.409 31.1664 104.831 29.6493 104.831 27.7436V20.4594H108.259V27.7436C108.259 28.7466 108.521 29.549 109.047 30.1257C109.572 30.715 110.268 31.0034 111.148 31.0034C111.976 31.0034 112.645 30.715 113.131 30.1257C113.63 29.5365 113.88 28.7466 113.88 27.7436V20.4594H117.308V27.7436H117.295Z" fill="#FF8400"/>
<path d="M129.521 33.724L125.331 29.1729H124.333V33.724H120.905V20.4594H127.945C129.455 20.4594 130.664 20.8605 131.57 21.6629C132.489 22.4653 132.936 23.506 132.936 24.7973C132.936 25.8755 132.607 26.7908 131.964 27.543C131.307 28.2827 130.427 28.7842 129.285 29.0224L133.645 33.7365H129.521V33.724ZM127.564 26.4397C128.168 26.4397 128.654 26.2893 129.022 26.0009C129.39 25.7126 129.574 25.3239 129.574 24.8349C129.574 24.3585 129.39 23.9824 129.022 23.6815C128.654 23.3931 128.168 23.2427 127.564 23.2427H124.32V26.4272H127.564V26.4397Z" fill="#FF8400"/>
<path d="M147.487 33.724H136.652V20.4594H147.422V23.2677H140.08V25.7627H146.817V28.4206H140.08V30.9156H147.487V33.724Z" fill="#FF8400"/>
<path d="M160.307 33.724L159.335 31.3043H153.478L152.506 33.724H148.828L154.633 20.4594H158.14L163.958 33.724H160.307ZM156.407 24.1454L154.647 28.5084H158.193L156.407 24.1454Z" fill="#FF8400"/>
<path d="M38.3781 13.0766C35.7514 5.2532 28.1995 0 19.5969 0C10.968 0 3.21909 5.49141 0.723681 13.365C-0.0380756 15.7721 -0.195679 18.4176 0.237734 21.1256C0.369072 21.9531 0.552942 22.7931 0.802483 23.6331C0.960088 24.1848 1.15709 24.7615 1.38037 25.3633C2.2866 24.5484 3.3767 23.5078 4.55873 22.3418C7.8947 19.0444 11.9399 14.7566 14.6717 11.8855L16.2346 10.2306C18.7826 7.54756 21.475 6.1559 24.2199 6.08068C29.3815 5.9553 33.1115 9.84192 34.5825 14.23C35.3836 16.6122 35.4099 19.3203 34.6744 22.0534C34.6219 22.2415 34.5693 22.4421 34.5037 22.6301C33.0984 27.3442 29.3684 34.3527 19.5706 41.2984C18.8351 40.7719 18.139 40.2578 17.4692 39.7313C21.4619 36.1455 26.8336 30.604 29.7886 26.266C31.8375 23.257 32.9276 20.06 32.8751 17.2641C32.8225 14.5435 31.6011 12.0234 29.5916 10.5189C27.2144 8.73862 23.5501 8.75116 20.687 10.544C18.5462 11.8855 15.4991 15.2581 15.1183 15.6844C12.5046 18.8062 8.56453 22.5925 5.62257 25.3006C4.3486 26.4666 3.25849 27.4445 2.54927 28.0714C3.08775 29.1747 3.73131 30.3282 4.5062 31.5192C4.92648 31.1556 6.02971 30.1902 7.47443 28.8738C10.5346 26.078 15.1708 21.7149 18.1916 18.0916C19.019 17.1763 21.4619 14.5936 22.8803 13.7035C24.2725 12.8384 26.1375 12.7381 27.1488 13.4903C27.9762 14.1172 28.8824 15.4462 28.9087 17.3143C28.9481 19.3579 28.0813 21.7901 26.4658 24.1723C23.2086 28.9616 17.9026 34.1145 14.4747 37.1736C13.0825 38.4148 11.9924 39.3175 11.4933 39.6936C11.5065 39.7062 11.5196 39.7187 11.5328 39.7313C11.6904 39.8817 11.848 40.0196 12.0056 40.1701C12.7805 40.8596 13.5947 41.5617 14.4747 42.2513C15.5911 43.1415 16.7862 44.0316 18.0734 44.9218L19.5969 46L21.1204 44.9218C32.4548 37.1611 36.7495 29.0744 38.365 23.6457C38.4307 23.42 38.4963 23.2069 38.5489 22.9812C39.4551 19.571 39.4025 16.1357 38.3781 13.0766ZM13.2927 7.67294L11.7166 9.32788C9.61522 11.547 6.71267 14.6187 3.99398 17.3895C4.05965 16.3739 4.23039 15.396 4.51933 14.4557C6.37119 8.60071 11.8874 4.40065 18.1916 3.84901C16.4973 4.7517 14.8556 6.03053 13.2927 7.67294Z" fill="#FF8400"/>
<path d="M25.8084 19.6334C26.4126 18.7558 26.163 17.5772 25.2437 17.0005C24.3374 16.4238 23.0897 16.662 22.4856 17.5396C18.5586 23.1815 13.5284 27.9207 9.35187 31.6443C8.61638 32.2962 7.90716 32.9231 7.23734 33.4998L6.40991 34.227C7.15853 35.1924 7.9991 36.1829 8.93159 37.1733L9.94288 36.2832C10.547 35.744 11.1906 35.1799 11.8604 34.5906C16.2339 30.7291 21.5794 25.7266 25.8084 19.6334Z" fill="#FF8400"/>
</svg>
