<svg width="64" height="64" viewBox="0 0 64 64" fill="none" xmlns="http://www.w3.org/2000/svg">
<path d="M57.8814 18.1935C54.262 7.3088 43.8562 0 32.0026 0C20.1129 0 9.43561 7.64023 5.99716 18.5947C4.94754 21.9439 4.73037 25.6244 5.32758 29.3922C5.50855 30.5435 5.7619 31.7122 6.10575 32.8809C6.32291 33.6484 6.59437 34.4508 6.90202 35.2881C8.15071 34.1543 9.65277 32.7065 11.2815 31.0842C15.8782 26.4966 21.4521 20.5309 25.2162 16.5364L27.3698 14.2339C30.8806 10.501 34.5905 8.56473 38.3728 8.46007C45.4849 8.28564 50.6245 13.6931 52.6514 19.7983C53.7553 23.1126 53.7915 26.8804 52.7781 30.683C52.7057 30.9447 52.6333 31.2238 52.5428 31.4854C50.6064 38.0442 45.4668 47.795 31.9664 57.4587C30.953 56.7261 29.9939 56.0109 29.0709 55.2783C34.5724 50.2895 41.9741 42.5795 46.046 36.544C48.8691 32.3576 50.3712 27.9095 50.2988 24.0196C50.2264 20.2344 48.5434 16.7283 45.7745 14.6351C42.4989 12.1581 37.4498 12.1755 33.5047 14.6699C30.5549 16.5364 26.3564 21.2287 25.8315 21.8218C22.2302 26.1652 16.8011 31.4331 12.7474 35.2009C10.992 36.8231 9.4899 38.1837 8.51265 39.0559C9.25463 40.5909 10.1414 42.1957 11.2091 43.8528C11.7882 43.347 13.3084 42.0038 15.2991 40.1723C19.5157 36.2824 25.9039 30.212 30.0663 25.1709C31.2064 23.8975 34.5724 20.3042 36.5269 19.0657C38.4452 17.8621 41.015 17.7225 42.4084 18.7691C43.5486 19.6413 44.7973 21.4903 44.8335 24.0894C44.8877 26.9327 43.6933 30.3167 41.4674 33.631C36.9793 40.2944 29.6681 47.4636 24.9448 51.7198C23.0265 53.4467 21.5244 54.7026 20.8368 55.2259C20.8548 55.2434 20.8729 55.2608 20.891 55.2783C21.1082 55.4876 21.3254 55.6795 21.5425 55.8888C22.6103 56.8482 23.7323 57.825 24.9448 58.7844C26.483 60.0229 28.1299 61.2614 29.9034 62.4999L32.0026 64L34.1019 62.4999C49.7197 51.7024 55.6374 40.4514 57.8633 32.8983C57.9538 32.5844 58.0443 32.2878 58.1167 31.9738C59.3654 27.2292 59.293 22.4497 57.8814 18.1935ZM23.3161 10.6754L21.1444 12.9779C18.2489 16.0654 14.2494 20.3391 10.5033 24.1941C10.5938 22.7811 10.8291 21.4206 11.2272 20.1123C13.7789 11.9662 21.3797 6.12265 30.0663 5.35514C27.7317 6.61107 25.4696 8.3903 23.3161 10.6754Z" fill="#1BB36C"/>
<path d="M40.5623 27.3163C41.3948 26.0953 41.0509 24.4556 39.7842 23.6532C38.5355 22.8508 36.8162 23.1822 35.9838 24.4033C30.5728 32.2528 23.6416 38.8464 17.8867 44.0271C16.8733 44.9342 15.8961 45.8064 14.9731 46.6088L13.833 47.6205C14.8645 48.9636 16.0228 50.3417 17.3076 51.7197L18.7011 50.4812C19.5336 49.7311 20.4203 48.9462 21.3433 48.1263C27.3696 42.7538 34.7351 35.7938 40.5623 27.3163Z" fill="#1BB36C"/>
<path d="M57.8814 18.1935C54.262 7.3088 43.8562 0 32.0026 0C20.1129 0 9.43561 7.64023 5.99716 18.5947C4.94754 21.9439 4.73037 25.6244 5.32758 29.3922C5.50855 30.5435 5.7619 31.7122 6.10575 32.8809C6.32291 33.6484 6.59437 34.4508 6.90202 35.2881C8.15071 34.1543 9.65277 32.7065 11.2815 31.0842C15.8782 26.4966 21.4521 20.5309 25.2162 16.5364L27.3698 14.2339C30.8806 10.501 34.5905 8.56473 38.3728 8.46007C45.4849 8.28564 50.6245 13.6931 52.6514 19.7983C53.7553 23.1126 53.7915 26.8804 52.7781 30.683C52.7057 30.9447 52.6333 31.2238 52.5428 31.4854C50.6064 38.0442 45.4668 47.795 31.9664 57.4587C30.953 56.7261 29.9939 56.0109 29.0709 55.2783C34.5724 50.2895 41.9741 42.5795 46.046 36.544C48.8691 32.3576 50.3712 27.9095 50.2988 24.0196C50.2264 20.2344 48.5434 16.7283 45.7745 14.6351C42.4989 12.1581 37.4498 12.1755 33.5047 14.6699C30.5549 16.5364 26.3564 21.2287 25.8315 21.8218C22.2302 26.1652 16.8011 31.4331 12.7474 35.2009C10.992 36.8231 9.4899 38.1837 8.51265 39.0559C9.25463 40.5909 10.1414 42.1957 11.2091 43.8528C11.7882 43.347 13.3084 42.0038 15.2991 40.1723C19.5157 36.2824 25.9039 30.212 30.0663 25.1709C31.2064 23.8975 34.5724 20.3042 36.5269 19.0657C38.4452 17.8621 41.015 17.7225 42.4084 18.7691C43.5486 19.6413 44.7973 21.4903 44.8335 24.0894C44.8877 26.9327 43.6933 30.3167 41.4674 33.631C36.9793 40.2944 29.6681 47.4636 24.9448 51.7198C23.0265 53.4467 21.5244 54.7026 20.8368 55.2259C20.8548 55.2434 20.8729 55.2608 20.891 55.2783C21.1082 55.4876 21.3254 55.6795 21.5425 55.8888C22.6103 56.8482 23.7323 57.825 24.9448 58.7844C26.483 60.0229 28.1299 61.2614 29.9034 62.4999L32.0026 64L34.1019 62.4999C49.7197 51.7024 55.6374 40.4514 57.8633 32.8983C57.9538 32.5844 58.0443 32.2878 58.1167 31.9738C59.3654 27.2292 59.293 22.4497 57.8814 18.1935ZM23.3161 10.6754L21.1444 12.9779C18.2489 16.0654 14.2494 20.3391 10.5033 24.1941C10.5938 22.7811 10.8291 21.4206 11.2272 20.1123C13.7789 11.9662 21.3797 6.12265 30.0663 5.35514C27.7317 6.61107 25.4696 8.3903 23.3161 10.6754Z" fill="#FF8400"/>
<path d="M40.5623 27.3163C41.3948 26.0953 41.0509 24.4556 39.7842 23.6532C38.5355 22.8508 36.8162 23.1822 35.9838 24.4033C30.5728 32.2528 23.6416 38.8464 17.8867 44.0271C16.8733 44.9342 15.8961 45.8064 14.9731 46.6088L13.833 47.6205C14.8645 48.9636 16.0228 50.3417 17.3076 51.7197L18.7011 50.4812C19.5336 49.7311 20.4203 48.9462 21.3433 48.1263C27.3696 42.7538 34.7351 35.7938 40.5623 27.3163Z" fill="#FF8400"/>
</svg>
