<svg width="674" height="185" viewBox="0 0 674 185" fill="none" xmlns="http://www.w3.org/2000/svg">
<path d="M135.062 86.8638C128.82 86.8638 126.204 83.3632 126.204 76.9552V58.562H129.949V76.7772C129.949 81.1085 131.138 83.3038 135.062 83.3038C138.985 83.3038 140.055 81.1085 140.055 76.7772V58.562H143.741V76.9552C143.741 83.3038 141.303 86.8638 135.062 86.8638Z" fill="black"/>
<path d="M159.553 86.6259V74.5813C159.553 72.5047 158.365 71.0214 156.343 71.0214C153.906 71.0214 152.658 72.5047 152.658 74.5813V86.6259H149.15V68.0547H152.658V69.5974C153.312 68.826 154.679 67.8174 156.938 67.8174C160.564 67.8174 163.12 70.3094 163.12 74.4033V86.5666H159.553V86.6259Z" fill="black"/>
<path d="M170.194 64.6135C168.886 64.6135 168.173 63.9608 168.173 62.6555C168.173 61.3502 168.886 60.7568 170.194 60.7568C171.443 60.7568 172.215 61.3502 172.215 62.6555C172.215 63.9608 171.443 64.6135 170.194 64.6135ZM168.411 68.0548H171.918V86.626H168.411V68.0548Z" fill="black"/>
<path d="M184.342 86.6259H180.954L174.177 68.0547H178.041L182.678 81.9979L187.255 68.0547H191.119L184.342 86.6259Z" fill="black"/>
<path d="M196.172 78.7937C196.588 82.1757 198.491 83.5404 200.868 83.5404C203.544 83.5404 205.149 82.8877 206.516 82.1757L207.17 85.5577C206.159 86.0323 204.554 86.863 200.809 86.863C196.113 86.863 192.368 83.9557 192.368 77.5477C192.368 71.2584 195.875 67.9358 200.274 67.9358C205.327 67.9358 208.061 71.4958 208.061 76.8951V78.7937H196.172ZM200.333 71.0211C198.431 71.0211 196.588 72.1484 196.172 75.9457H204.376C204.435 72.7418 202.83 71.0211 200.333 71.0211Z" fill="black"/>
<path d="M220.486 71.9707C220.07 71.7927 219.297 71.496 218.286 71.496C216.8 71.496 215.849 72.6827 215.849 74.5813V86.6259H212.342V68.0547H215.849V70.1907C216.384 69.004 217.394 67.8767 219.237 67.8767C219.951 67.8767 220.605 68.0547 220.961 68.2327L220.486 71.9707Z" fill="black"/>
<path d="M228.154 83.5406H236.179V86.6259H222.388L231.245 71.0213H222.745V68.0547H236.596L228.154 83.5406Z" fill="black"/>
<path d="M241.411 64.6135C240.103 64.6135 239.449 63.9608 239.449 62.6555C239.449 61.3502 240.162 60.7568 241.411 60.7568C242.659 60.7568 243.432 61.3502 243.432 62.6555C243.432 63.9608 242.6 64.6135 241.411 64.6135ZM239.627 68.0548H243.135V86.626H239.627V68.0548Z" fill="black"/>
<path d="M253.24 86.8631C251.1 86.8631 248.604 86.0324 248.604 81.9978V71.0212H246.166V68.1139H248.604V60.9346L252.111 60.5193V68.1139H255.143V71.0212H252.051V81.9978C252.051 83.3031 252.765 83.7185 253.538 83.7185C254.429 83.7185 255.083 83.4218 255.797 83.1251L256.272 86.2698C255.618 86.5071 254.786 86.8631 253.24 86.8631Z" fill="black"/>
<path d="M268.459 86.6259V84.9646C267.864 85.6173 266.616 86.8039 264 86.8039C259.958 86.8039 257.699 84.6679 257.699 80.8706C257.699 76.9547 260.434 74.8187 264.119 74.8187C266.081 74.8187 267.745 75.59 268.459 76.3613V74.0473C268.459 71.852 266.973 71.0214 265.011 71.0214C262.811 71.0214 260.85 71.7334 259.78 72.1487L259.423 68.9447C260.552 68.5294 262.395 67.8174 265.427 67.8174C269.588 67.8174 271.966 70.0127 271.966 74.0473V86.5666H268.459V86.6259ZM268.459 80.396C268.459 78.972 266.675 77.9633 264.833 77.9633C262.99 77.9633 261.444 78.7346 261.444 80.93C261.444 82.9473 263.109 83.6593 264.833 83.6593C266.854 83.6593 268.459 82.3539 268.459 80.9893V80.396Z" fill="black"/>
<path d="M295.15 62.0627V86.6265H291.405V62.0627H284.569V58.562H301.986V62.0627H295.15Z" fill="black"/>
<path d="M308.763 86.8633C304.245 86.8633 300.262 84.2526 300.262 77.37C300.262 70.4874 304.364 67.8767 308.763 67.8767C313.162 67.8767 317.204 70.4874 317.204 77.37C317.204 84.2526 313.221 86.8633 308.763 86.8633ZM308.763 71.0214C305.969 71.0214 304.007 73.2167 304.007 77.37C304.007 81.3453 306.088 83.5406 308.763 83.5406C311.498 83.5406 313.519 81.4046 313.519 77.37C313.519 73.2167 311.498 71.0214 308.763 71.0214Z" fill="black"/>
<path d="M342.231 86.6259V74.5813C342.231 72.5047 341.043 71.0214 339.021 71.0214C336.584 71.0214 335.336 72.5047 335.336 74.5813V86.6259H331.828V74.5813C331.828 72.5047 330.639 71.0214 328.618 71.0214C326.181 71.0214 324.933 72.5047 324.933 74.5813V86.6259H321.425V68.0547H324.933V69.5974C325.587 68.826 326.954 67.8174 329.213 67.8174C331.531 67.8174 333.374 68.7667 334.444 70.5467C335.395 69.1227 337.119 67.8174 339.675 67.8174C343.301 67.8174 345.798 70.3094 345.798 74.4033V86.5666H342.231V86.6259Z" fill="black"/>
<path d="M360.659 86.6262V85.0242C360.065 85.6769 358.817 86.8635 356.201 86.8635C352.159 86.8635 349.9 84.7276 349.9 80.9303C349.9 76.9549 352.634 74.8783 356.32 74.8783C358.282 74.8783 359.887 75.6496 360.659 76.4209V74.107C360.659 71.9116 359.173 71.081 357.212 71.081C355.012 71.081 353.11 71.793 352.04 72.2083L351.624 69.0043C352.753 68.589 354.596 67.877 357.568 67.877C361.729 67.877 364.107 70.0723 364.107 74.107V86.6262H360.659ZM360.659 80.3963C360.659 78.9129 358.935 77.9636 357.033 77.9636C355.19 77.9636 353.645 78.7349 353.645 80.9303C353.645 82.9476 355.369 83.6596 357.033 83.6596C359.054 83.6596 360.659 82.3542 360.659 80.9896V80.3963ZM357.806 65.919H354.834L358.282 60.9351H362.383L357.806 65.919Z" fill="black"/>
<path d="M374.511 86.8635C371.598 86.8635 369.577 86.0329 368.388 85.4989L369.042 82.1762C370.528 82.8882 372.43 83.4816 374.511 83.4816C376.175 83.4816 377.721 83.0069 377.721 81.3456C377.721 79.6843 375.937 79.2689 373.976 78.7349C371.419 78.0823 368.447 77.2516 368.447 73.395C368.447 69.657 371.063 67.877 375.462 67.877C378.434 67.877 380.277 68.6483 381.109 68.945L380.455 72.2676C379.504 71.8523 377.899 71.0217 375.462 71.0217C373.381 71.0217 372.073 71.7336 372.073 73.395C372.073 74.7003 373.619 75.1156 375.402 75.6496C378.137 76.4209 381.525 77.2516 381.525 81.3456C381.466 84.8462 379.445 86.8635 374.511 86.8635ZM376.948 65.919H373.441L369.755 60.9351H373.322L375.343 63.783L377.364 60.9351H380.693L376.948 65.919Z" fill="black"/>
<path d="M388.302 78.7937C388.718 82.1757 390.68 83.5404 393.058 83.5404C395.733 83.5404 397.338 82.8877 398.705 82.1757L399.3 85.5577C398.348 86.0323 396.684 86.863 392.998 86.863C388.302 86.863 384.557 83.9557 384.557 77.5477C384.557 71.2584 388.064 67.9358 392.463 67.9358C397.516 67.9358 400.251 71.4958 400.251 76.8951V78.7937H388.302ZM392.404 71.0211C390.502 71.0211 388.659 72.1484 388.243 75.9457H396.506C396.506 72.7418 394.901 71.0211 392.404 71.0211Z" fill="black"/>
<path d="M421.057 86.6265H413.269V58.562H421.651C426.883 58.562 429.914 61.41 429.914 66.038C429.914 69.2419 428.25 71.0219 425.872 72.1492C428.428 73.1579 430.093 75.5906 430.093 78.6165C430.093 83.6598 426.585 86.6265 421.057 86.6265ZM421.711 62.0627H416.955V70.3693H421.176C424.089 70.3693 425.991 69.0046 425.991 66.216C425.991 63.368 424.207 62.0627 421.711 62.0627ZM421.176 73.8699H416.955V83.1258H421.176C424.089 83.1258 426.169 81.5239 426.169 78.6759C426.229 75.6499 424.089 73.8699 421.176 73.8699Z" fill="black"/>
<path d="M444.241 86.6259V84.9646C443.646 85.6173 442.398 86.8039 439.782 86.8039C435.74 86.8039 433.481 84.6679 433.481 80.8706C433.481 76.9547 436.215 74.8187 439.901 74.8187C441.863 74.8187 443.468 75.59 444.241 76.3613V74.0473C444.241 71.852 442.755 71.0214 440.793 71.0214C438.593 71.0214 436.691 71.7334 435.621 72.1487L435.205 68.9447C436.334 68.5294 438.177 67.8174 441.209 67.8174C445.37 67.8174 447.748 70.0127 447.748 74.0473V86.5666H444.241V86.6259ZM444.241 80.396C444.241 78.972 442.517 77.9633 440.615 77.9633C438.772 77.9633 437.226 78.7346 437.226 80.93C437.226 82.9473 438.891 83.6593 440.615 83.6593C442.636 83.6593 444.241 82.3539 444.241 80.9893V80.396Z" fill="black"/>
<path d="M457.795 86.8631C455.654 86.8631 453.158 86.0324 453.158 81.9978V71.0212H450.72V68.1139H453.158V60.9346L456.665 60.5193V68.1139H459.697V71.0212H456.665V81.9978C456.665 83.3031 457.378 83.7185 458.151 83.7185C459.043 83.7185 459.697 83.4218 460.351 83.1251L460.826 86.2698C460.232 86.5071 459.4 86.8631 457.795 86.8631Z" fill="black"/>
<path d="M465.225 64.6135C463.917 64.6135 463.204 63.9608 463.204 62.6555C463.204 61.3502 463.917 60.7568 465.225 60.7568C466.474 60.7568 467.187 61.3502 467.187 62.6555C467.187 63.9608 466.474 64.6135 465.225 64.6135ZM463.442 68.0548H466.949V86.626H463.442V68.0548Z" fill="black"/>
<path d="M488.647 86.6259H485.259L478.482 68.0547H482.346L486.982 81.9979L491.56 68.0547H495.424L488.647 86.6259Z" fill="black"/>
<path d="M500.477 78.7937C500.893 82.1757 502.795 83.5404 505.173 83.5404C507.848 83.5404 509.453 82.8877 510.82 82.1757L511.415 85.5577C510.464 86.0323 508.799 86.863 505.113 86.863C500.417 86.863 496.672 83.9557 496.672 77.5477C496.672 71.2584 500.179 67.9358 504.578 67.9358C509.572 67.9358 512.366 71.4958 512.366 76.8951V78.7937H500.477ZM504.638 71.0211C502.736 71.0211 500.893 72.1484 500.477 75.9457H508.68C508.74 72.7418 507.135 71.0211 504.638 71.0211Z" fill="black"/>
<path d="M528.654 83.1258H539.473V86.6265H523.126L534.777 62.0627H523.899V58.562H540.306L528.654 83.1258Z" fill="black"/>
<path d="M546.845 58.562H543.337V86.6265H546.845V58.562Z" fill="black"/>
<path d="M554.454 65.919H551.541L554.989 60.9351H559.091L554.454 65.919ZM552.135 68.055H555.643V86.6262H552.135V68.055Z" fill="black"/>
<path d="M571.455 86.6259V74.5813C571.455 72.5047 570.267 71.0214 568.186 71.0214C565.749 71.0214 564.5 72.5047 564.5 74.5813V86.6259H560.993V68.0547H564.5V69.5974C565.154 68.826 566.521 67.8174 568.78 67.8174C572.407 67.8174 574.963 70.3094 574.963 74.4033V86.5666H571.455V86.6259Z" fill="black"/>
<path d="M582.929 78.7943C583.345 82.1762 585.247 83.5409 587.625 83.5409C590.3 83.5409 591.905 82.8882 593.272 82.1762L593.926 85.5582C592.975 86.0329 591.31 86.8635 587.625 86.8635C582.929 86.8635 579.124 83.9562 579.124 77.5483C579.124 71.259 582.631 67.9363 587.03 67.9363C592.083 67.9363 594.818 71.4963 594.818 76.8956V78.7943H582.929ZM589.349 65.919H585.841L582.156 60.9351H585.723L587.744 63.783L589.765 60.9351H593.094L589.349 65.919ZM587.09 71.0217C585.188 71.0217 583.345 72.149 582.929 75.9463H591.192C591.192 72.7423 589.587 71.0217 587.09 71.0217Z" fill="black"/>
<path d="M71.9299 51.2039V60.9938L100.821 51.2632V51.2039H71.9299Z" fill="#C3373F"/>
<path d="M71.9299 99.0267V99.8574C71.9299 102.409 74.2483 103.773 77.0423 103.773C77.6962 103.773 79.1824 103.536 79.8363 103.299C80.6091 103.061 107.716 93.6274 107.716 93.6274V55.0017L79.8957 64.673C79.1229 64.9696 78.1123 65.1476 77.1017 65.1476C74.3672 65.1476 72.0488 63.783 72.0488 62.4183H71.9299V99.0267Z" fill="#C3373F"/>
<path d="M129.593 107.215V114.394H138.272V117.42H129.593V128.753H126.323V104.129H139.639V107.215H129.593Z" fill="black"/>
<path d="M149.626 128.752V127.328C149.091 127.862 148.021 128.93 145.762 128.93C142.255 128.93 140.233 127.091 140.233 123.768C140.233 120.327 142.611 118.488 145.821 118.488C147.545 118.488 148.972 119.14 149.626 119.793V117.776C149.626 115.818 148.318 115.106 146.594 115.106C144.692 115.106 142.968 115.699 142.076 116.114L141.72 113.326C142.73 112.97 144.335 112.317 146.951 112.317C150.636 112.317 152.717 114.216 152.717 117.776V128.693H149.626V128.752ZM149.626 123.234C149.626 121.988 148.08 121.157 146.416 121.157C144.811 121.157 143.443 121.81 143.443 123.709C143.443 125.429 144.87 126.082 146.416 126.082C148.199 126.082 149.626 124.955 149.626 123.768V123.234Z" fill="black"/>
<path d="M166.746 128.753L160.445 119.971V128.753H157.354V104.129H160.445V118.963L165.795 112.555H169.719L163.715 119.378L170.67 128.753H166.746Z" fill="black"/>
<path d="M181.37 128.752V127.21C180.835 127.922 179.884 128.93 177.506 128.93C174.356 128.93 172.275 126.794 172.275 123.175V112.554H175.307V123.116C175.307 124.955 176.198 126.201 177.982 126.201C180.181 126.201 181.37 124.599 181.37 122.7V112.554H184.461V128.752H181.37Z" fill="black"/>
<path d="M192.13 104.129H189.098V128.693H192.13V104.129Z" fill="black"/>
<path d="M200.987 128.931C199.085 128.931 196.945 128.219 196.945 124.659V115.106H194.864V112.555H196.945V106.206L200.036 105.85V112.496H202.711V115.047H200.036V124.6C200.036 125.786 200.631 126.083 201.344 126.083C202.117 126.083 202.711 125.846 203.306 125.608L203.722 128.338C203.127 128.634 202.414 128.931 200.987 128.931Z" fill="black"/>
<path d="M214.303 128.752V127.328C213.768 127.862 212.698 128.93 210.439 128.93C206.932 128.93 204.911 127.091 204.911 123.768C204.911 120.327 207.288 118.488 210.499 118.488C212.223 118.488 213.649 119.14 214.303 119.793V117.776C214.303 115.818 212.995 115.106 211.331 115.106C209.429 115.106 207.705 115.699 206.813 116.114L206.456 113.326C207.467 112.97 209.072 112.317 211.687 112.317C215.373 112.317 217.394 114.216 217.394 117.776V128.693H214.303V128.752ZM214.303 123.234C214.303 121.988 212.758 121.157 211.152 121.157C209.547 121.157 208.18 121.81 208.18 123.709C208.18 125.429 209.666 126.082 211.152 126.082C212.936 126.082 214.303 124.955 214.303 123.768V123.234Z" fill="black"/>
<path d="M248.069 128.752V118.191C248.069 116.352 247.058 115.106 245.275 115.106C243.135 115.106 242.065 116.411 242.065 118.25V128.812H238.973V118.25C238.973 116.411 237.963 115.165 236.12 115.165C233.98 115.165 232.91 116.47 232.91 118.31V128.871H229.819V112.673H232.91V114.038C233.504 113.385 234.693 112.495 236.655 112.495C238.676 112.495 240.281 113.385 241.173 114.928C242.005 113.682 243.551 112.495 245.75 112.495C248.901 112.495 251.16 114.631 251.16 118.25V128.871H248.069V128.752Z" fill="black"/>
<path d="M264.892 128.752V127.21C264.357 127.922 263.406 128.93 261.028 128.93C257.877 128.93 255.797 126.794 255.797 123.175V112.554H258.888V123.116C258.888 124.955 259.72 126.201 261.563 126.201C263.822 126.201 264.951 124.599 264.951 122.7V112.554H268.043V128.752H264.892Z" fill="black"/>
<path d="M275.77 104.129H272.679V128.693H275.77V104.129Z" fill="black"/>
<path d="M284.569 128.931C282.666 128.931 280.526 128.219 280.526 124.659V115.106H278.386V112.555H280.526V106.206L283.617 105.85V112.496H286.293V115.047H283.558V124.6C283.558 125.786 284.152 126.083 284.866 126.083C285.698 126.083 286.233 125.846 286.828 125.608L287.244 128.338C286.649 128.634 285.936 128.931 284.569 128.931Z" fill="black"/>
<path d="M291.048 109.469C289.919 109.469 289.324 108.935 289.324 107.808C289.324 106.68 289.978 106.146 291.048 106.146C292.118 106.146 292.772 106.68 292.772 107.808C292.772 108.876 292.118 109.469 291.048 109.469ZM289.503 112.495H292.594V128.693H289.503V112.495Z" fill="black"/>
<path d="M315.48 128.752V118.191C315.48 116.352 314.47 115.106 312.627 115.106C310.487 115.106 309.417 116.411 309.417 118.25V128.812H306.385V118.25C306.385 116.411 305.375 115.165 303.532 115.165C301.451 115.165 300.322 116.47 300.322 118.31V128.871H297.23V112.673H300.262V114.038C300.857 113.385 302.046 112.495 304.007 112.495C306.028 112.495 307.634 113.385 308.525 114.928C309.357 113.682 310.903 112.495 313.103 112.495C316.313 112.495 318.512 114.631 318.512 118.25V128.871H315.48V128.752Z" fill="black"/>
<path d="M325.527 121.869C325.884 124.836 327.608 126.023 329.688 126.023C332.066 126.023 333.433 125.429 334.622 124.836L335.157 127.803C334.325 128.159 332.898 128.93 329.629 128.93C325.527 128.93 322.198 126.438 322.198 120.801C322.198 115.284 325.289 112.376 329.153 112.376C333.552 112.376 335.99 115.521 335.99 120.267V121.869H325.527V121.869ZM329.153 115.046C327.489 115.046 325.884 115.996 325.527 119.378H332.72C332.72 116.589 331.353 115.046 329.153 115.046Z" fill="black"/>
<path d="M349.662 128.753V127.151C349.186 127.744 347.879 128.871 345.441 128.871C342.469 128.871 338.962 126.913 338.962 120.743C338.962 114.928 342.291 112.317 345.739 112.317C348.295 112.317 349.186 113.267 349.662 113.801V104.129H352.694V128.693H349.662V128.753ZM349.662 118.785C349.662 116.233 348.057 115.047 346.036 115.047C344.133 115.047 342.172 116.767 342.172 120.743C342.172 124.659 343.836 125.964 345.917 125.964C347.938 125.964 349.662 124.777 349.662 122.167V118.785V118.785Z" fill="black"/>
<path d="M358.936 109.469C357.806 109.469 357.212 108.935 357.212 107.808C357.212 106.68 357.806 106.146 358.936 106.146C360.006 106.146 360.66 106.68 360.66 107.808C360.66 108.876 360.006 109.469 358.936 109.469ZM357.39 112.495H360.481V128.693H357.39V112.495Z" fill="black"/>
<path d="M373.5 128.752V127.328C372.965 127.921 371.895 128.93 369.636 128.93C366.129 128.93 364.167 127.091 364.167 123.768C364.167 120.327 366.545 118.487 369.755 118.487C371.479 118.487 372.906 119.14 373.559 119.793V117.775C373.559 115.818 372.252 115.106 370.528 115.106C368.625 115.106 366.902 115.699 366.01 116.114L365.594 113.326C366.604 112.97 368.209 112.317 370.825 112.317C374.451 112.317 376.532 114.216 376.532 117.775V128.693H373.5V128.752ZM373.5 123.293C373.5 121.988 371.954 121.157 370.349 121.157C368.744 121.157 367.377 121.81 367.377 123.709C367.377 125.429 368.863 126.082 370.349 126.082C372.133 126.082 373.5 124.955 373.5 123.768V123.293ZM371.003 110.596H368.447L371.479 106.206H375.046L371.003 110.596Z" fill="black"/>
<path d="M384.319 104.129H381.288V128.693H384.319V104.129Z" fill="black"/>
<path d="M398.111 128.752V118.191C398.111 116.352 397.1 115.106 395.257 115.106C393.117 115.106 392.047 116.411 392.047 118.25V128.812H388.956V112.614H392.047V113.978C392.641 113.326 393.83 112.436 395.792 112.436C398.943 112.436 401.202 114.572 401.202 118.191V128.812H398.111V128.752Z" fill="black"/>
<path d="M407.919 110.596H405.363L408.335 106.206H411.902L407.919 110.596ZM405.898 112.495H408.989V128.693H405.898V112.495Z" fill="black"/>
<path d="M419.868 128.93C416.836 128.93 412.972 127.387 412.972 120.623C412.972 114.156 416.896 112.376 419.868 112.376C421.711 112.376 423.316 113.148 424.029 113.504L423.316 116.292C422.543 115.877 421.116 115.224 419.808 115.224C417.966 115.224 416.123 116.886 416.123 120.683C416.123 124.599 417.906 126.082 419.808 126.082C421.176 126.082 422.543 125.429 423.316 124.955L424.029 127.921C423.435 128.159 421.532 128.93 419.868 128.93Z" fill="black"/>
<path d="M436.097 128.753V118.191C436.097 116.352 435.086 115.106 433.303 115.106C431.163 115.106 430.093 116.411 430.093 118.251V128.812H427.001V104.248H430.093V113.979C430.687 113.326 431.876 112.436 433.838 112.436C437.048 112.436 439.247 114.572 439.247 118.191V128.812H436.097V128.753Z" fill="black"/>
<path d="M460.945 128.753L454.644 119.971V128.753H451.612V104.129H454.644V118.963L459.994 112.555H463.917L457.973 119.378L464.868 128.753H460.945Z" fill="black"/>
<path d="M472.834 128.93C468.852 128.93 465.463 126.675 465.463 120.623C465.463 114.631 469.03 112.317 472.834 112.317C476.698 112.317 480.265 114.631 480.265 120.623C480.265 126.616 476.817 128.93 472.834 128.93ZM472.834 115.046C470.397 115.046 468.673 116.945 468.673 120.564C468.673 124.065 470.457 125.963 472.834 125.963C475.212 125.963 476.996 124.065 476.996 120.564C477.055 116.945 475.272 115.046 472.834 115.046Z" fill="black"/>
<path d="M502.141 128.752V118.191C502.141 116.352 501.131 115.106 499.288 115.106C497.148 115.106 496.078 116.411 496.078 118.25V128.812H492.987V118.25C492.987 116.411 491.976 115.165 490.133 115.165C487.993 115.165 486.923 116.47 486.923 118.31V128.871H483.891V112.673H486.923V114.038C487.518 113.385 488.706 112.495 490.668 112.495C492.689 112.495 494.294 113.385 495.186 114.928C496.018 113.682 497.564 112.495 499.763 112.495C502.974 112.495 505.173 114.631 505.173 118.25V128.871H502.141V128.752Z" fill="black"/>
<path d="M519.024 128.752V127.21C518.489 127.922 517.538 128.93 515.1 128.93C511.95 128.93 509.869 126.794 509.869 123.175V112.554H512.901V123.116C512.901 124.955 513.733 126.201 515.576 126.201C517.776 126.201 518.964 124.599 518.964 122.7V112.554H521.996V128.752H519.024Z" fill="black"/>
<path d="M535.907 128.752V118.191C535.907 116.352 534.896 115.106 533.053 115.106C530.973 115.106 529.843 116.411 529.843 118.25V128.812H526.752V112.614H529.843V113.978C530.438 113.326 531.627 112.436 533.588 112.436C536.798 112.436 538.998 114.572 538.998 118.191V128.812H535.907V128.752Z" fill="black"/>
<path d="M545.18 109.469C544.051 109.469 543.456 108.935 543.456 107.808C543.456 106.68 544.051 106.146 545.18 106.146C546.25 106.146 546.904 106.68 546.904 107.808C546.904 108.876 546.25 109.469 545.18 109.469ZM543.635 112.495H546.726V128.693H543.635V112.495Z" fill="black"/>
<path d="M560.755 128.753L554.454 119.971V128.753H551.422V104.129H554.454V118.963L559.804 112.555H563.728L557.724 119.378L564.679 128.753H560.755Z" fill="black"/>
<path d="M574.844 128.752V127.328C574.309 127.862 573.239 128.93 570.92 128.93C567.413 128.93 565.392 127.091 565.392 123.768C565.392 120.327 567.77 118.488 570.98 118.488C572.704 118.488 574.13 119.14 574.784 119.793V117.776C574.784 115.818 573.477 115.106 571.753 115.106C569.85 115.106 568.126 115.699 567.235 116.114L566.878 113.326C567.889 112.97 569.494 112.317 572.109 112.317C575.736 112.317 577.876 114.216 577.876 117.776V128.693H574.844V128.752ZM574.844 123.234C574.844 121.988 573.298 121.157 571.693 121.157C570.088 121.157 568.721 121.81 568.721 123.709C568.721 125.429 570.207 126.082 571.693 126.082C573.477 126.082 574.844 124.955 574.844 123.768V123.234Z" fill="black"/>
<path d="M588.635 128.93C585.603 128.93 581.74 127.387 581.74 120.623C581.74 114.156 585.603 112.376 588.635 112.376C590.478 112.376 592.083 113.148 592.797 113.504L592.143 116.292C591.37 115.877 589.943 115.224 588.695 115.224C586.852 115.224 585.009 116.886 585.009 120.683C585.009 124.599 586.792 126.082 588.695 126.082C590.062 126.082 591.37 125.429 592.143 124.955L592.797 127.921C592.202 128.159 590.3 128.93 588.635 128.93Z" fill="black"/>
<path d="M598.087 110.596H595.531L598.503 106.206H602.07L598.087 110.596ZM596.066 112.495H599.157V128.693H596.066V112.495Z" fill="black"/>
</svg>
