<?xml version="1.0" encoding="utf-8"?>
<!-- Generator: Adobe Illustrator 28.0.0, SVG Export Plug-In . SVG Version: 6.00 Build 0)  -->
<svg version="1.1" id="Layer_1" xmlns="http://www.w3.org/2000/svg" xmlns:xlink="http://www.w3.org/1999/xlink" x="0px" y="0px"
	 viewBox="0 0 1080 1080" style="enable-background:new 0 0 1080 1080;" xml:space="preserve">
<style type="text/css">
	.st0{fill:#FFFFFF;}
</style>
<g>
	<path class="st0" d="M657.9,414.3c-8.1-6-18.2-8.4-28.3-6.7c-11.6,1.9-22.3,8.8-29.5,19.1c-24.8,35.2-50.8,70.1-77.1,103.5
		c-14,17.7-29.6,34.6-44.7,50.8l-12.7,13.7c-21.6,23.5-44,47.8-67,70.8c-17.4,17.4-35.7,34.3-53.4,50.7
		c-6.2,5.7-12.3,11.4-18.4,17.1c-13.7,12.8-27.5,25.5-41.7,38.6l-14.8,13.7l47.8,59.4c0.1,0,0.1-0.1,0.2-0.1c2.2-1.4,4.1-2.6,5.6-4
		c8.4-7.8,16.9-15.6,25.4-23.3c21.4-19.5,43.5-39.7,64.4-60.4l17.7-17.5c51.2-50.3,104.1-102.4,149-159.9
		c30-38.4,58.8-77.2,85.8-113.6c5.1-6.9,7.1-16.2,5.6-26C670.4,429.5,664.9,419.4,657.9,414.3z"/>
	<g>
		<path class="st0" d="M403.4,923.7c4.4,3.9,8.7,7.7,13.1,11.6c11.9,10.6,24.2,21.7,36.8,31.6c14.4,11.3,29.4,22.4,43.8,33.1
			c13.3,9.9,26.6,19.8,39.7,29.9c1.4,1.1,2.2,1.5,2.5,1.6c0.1-0.1,0.8-0.5,2-1.5c7.7-6,15.7-11.7,23.6-17.5
			c10.8-7.8,22-15.9,32.3-24.4c7.2-5.9,14.4-11.8,21.6-17.7c29.5-24,60-48.9,87.7-75.4c23.7-22.7,45.5-48.6,66.6-73.5
			c5.5-6.5,11-13.1,16.6-19.6c29.5-34.5,55.6-73.8,79.8-120.3c39.3-75.7,60.4-140.6,66.4-204.4c3.9-41.9,3-76.3-2.9-108.3
			c-7.7-41.6-23.3-82.9-46.3-122.7c-24.2-41.9-55.6-78.7-93.2-109.3c-29.1-23.7-63.5-43.8-102.2-59.9
			C651,60.5,607.9,50.9,563.2,48.7c-26-1.3-52.9,1.4-78.9,3.9c-39.7,4-79.1,15.8-120.3,36.4c-45.7,22.8-85.6,52.6-118.5,88.6
			c-32.2,35.2-56.4,72.1-74,112.8c-22,50.9-31.7,102.7-29.6,158.2c1.3,34.3,6.3,68,15.3,102.8c2.3,8.8,5.3,17.7,8.1,26.3
			c0.1,0.3,0.2,0.6,0.3,0.9c0.1-0.1,0.3-0.3,0.4-0.4c12-12.3,24-24.6,36-36.8c20.3-20.7,40.6-41.4,60.7-62.3
			c9.5-9.8,18.8-20.3,27.9-30.3c5.2-5.8,10.3-11.5,15.6-17.2c18-19.6,36-39.2,54-58.7l44.3-48.2c4.5-4.9,9-9.8,13.6-14.7
			c11.1-12,22.6-24.4,33.5-36.8c31.7-36.2,67.7-72.5,116.5-93c50.2-21.1,101.5-20.6,152.4,1.7c32.6,14.2,61.1,37,87.3,69.7
			c23,28.8,40.3,61.7,51.3,97.9c12.7,41.7,16.3,76.9,11.3,110.7c-0.8,5.8-1.5,11.6-2.1,17.4c-1.3,11.6-2.7,23.6-5.5,35.3
			c-12.3,51.5-33.2,102.8-63.8,156.7c-31.6,55.6-72.3,108.9-121.1,158.4C651,855.3,622,880.9,594,905.7
			c-11.5,10.2-23.1,18.9-34.4,27.3c-5,3.7-10,7.4-14.8,11.2l-5.5,4.3l-55.3-44.4l8.5-7c1.5-1.2,2.9-2.3,4.2-3.3
			c2.4-1.8,4.2-3.3,5.7-4.8c9.2-9.6,18.5-19.1,27.8-28.7c25.1-25.8,51-52.6,75.8-79.5c29.1-31.7,56.6-64.4,79.6-92.3
			c44.1-53.3,72.9-97.4,93.3-143.2c16.7-37.4,26-72.2,28.5-106.6c3.5-47.4-5.7-87.4-28.1-122.5c-18.1-28.4-39.5-47.3-65.6-58
			c-18.5-7.6-38.7-10.4-65.7-9.5c-19,0.7-37.4,5.2-56.4,13.6c-38.5,17.1-68.3,47.7-93.2,75c-14.1,15.5-28.1,31.5-41.7,47.1
			c-12.6,14.4-25.2,28.9-38.1,43.1c-32.8,36.2-59.9,65.4-85.5,91.8c-14,14.5-28.8,28.6-43.2,42.2c-6.8,6.5-13.7,13-20.4,19.5
			l-21.9,21.3c-16.9,16.4-33.7,32.9-50.8,49.1c-1.2,1.1-1.5,1.7-1.5,1.8c0,0,0.1,0.8,1.2,2.9c3.3,6.2,6.6,12.5,9.8,18.8
			c3.9,7.7,7.8,15.4,12,22.9c3,5.5,6.4,10.8,10.1,16.3c4.4-4,8.9-8,13.3-12c15.4-13.9,29.9-27,44-41.1
			c53.2-53.1,105.1-106,158-160.1c9.4-9.6,18.4-20.1,27.1-30.2l7-8.1c7.3-8.4,14.5-16.9,21.6-25.4c14.4-17.1,29.3-34.7,44.9-51.4
			c18-19.2,36.2-35.9,54.2-49.6c25.4-19.4,53-25.6,82.1-18.4c35.2,8.8,57.1,55.6,59.4,86c3.8,50-9.5,98.3-40.7,147.8
			c-21.2,33.7-44.4,66.4-69.1,97.2c-26.9,33.6-56.8,68.2-96.9,112.2c-20.4,22.4-42.5,43.8-63.8,64.5l-13.4,13
			c-8.3,8.1-17.2,15.9-25.7,23.4c-4.6,4-9.2,8.1-13.8,12.2c-9.7,8.8-19.4,17.6-29.4,26.7l-4.4,4l1.5,1.4
			C390.7,912.4,397,918.1,403.4,923.7z M507,135.2c-32.4,19.4-61.9,43.7-90.2,74.5c-19.5,21.2-38.9,43.1-57.7,64.3
			c-10.3,11.6-20.6,23.2-31,34.8c-14.4,16.1-28.9,32-43.5,47.8c-14.9,16.2-29.9,32.4-44.9,48.6l-8.4,9c-1.1,1.1-2.2,2.2-3.8,3.6
			l-18.8,17.3l1.3-22c9.4-161.8,161.3-285.1,291.7-294.5l37.4-2.7L507,135.2z"/>
	</g>
</g>
</svg>
