<?xml version="1.0" encoding="utf-8"?>
<!-- Generator: Adobe Illustrator 28.0.0, SVG Export Plug-In . SVG Version: 6.00 Build 0)  -->
<svg version="1.1" id="Layer_1" xmlns="http://www.w3.org/2000/svg" xmlns:xlink="http://www.w3.org/1999/xlink" x="0px" y="0px"
	 viewBox="0 0 1080 1080" style="enable-background:new 0 0 1080 1080;" xml:space="preserve">
<style type="text/css">
	.st0{fill:#FFFFFF;}
</style>
<g>
	<path class="st0" d="M150.4,512.1c-1.8-1.3-4-1.9-6.3-1.5c-2.6,0.4-4.9,2-6.5,4.2c-5.5,7.8-11.2,15.5-17.1,22.9
		c-3.1,3.9-6.6,7.7-9.9,11.3l-2.8,3c-4.8,5.2-9.8,10.6-14.8,15.7c-3.8,3.9-7.9,7.6-11.8,11.2c-1.4,1.3-2.7,2.5-4.1,3.8
		c-3,2.8-6.1,5.6-9.2,8.6l-3.3,3l10.6,13.2c0,0,0,0,0,0c0.5-0.3,0.9-0.6,1.2-0.9c1.9-1.7,3.8-3.4,5.6-5.2c4.7-4.3,9.6-8.8,14.3-13.4
		l3.9-3.9c11.3-11.1,23.1-22.7,33-35.4c6.6-8.5,13-17.1,19-25.2c1.1-1.5,1.6-3.6,1.3-5.8C153.2,515.5,151.9,513.3,150.4,512.1z"/>
	<g>
		<path class="st0" d="M94,625c1,0.9,1.9,1.7,2.9,2.6c2.6,2.4,5.4,4.8,8.2,7c3.2,2.5,6.5,5,9.7,7.3c3,2.2,5.9,4.4,8.8,6.6
			c0.3,0.2,0.5,0.3,0.6,0.4c0,0,0.2-0.1,0.4-0.3c1.7-1.3,3.5-2.6,5.2-3.9c2.4-1.7,4.9-3.5,7.2-5.4c1.6-1.3,3.2-2.6,4.8-3.9
			c6.5-5.3,13.3-10.8,19.4-16.7c5.2-5,10.1-10.8,14.8-16.3c1.2-1.4,2.4-2.9,3.7-4.3c6.5-7.6,12.3-16.4,17.7-26.7
			c8.7-16.8,13.4-31.2,14.7-45.3c0.9-9.3,0.7-16.9-0.6-24c-1.7-9.2-5.2-18.4-10.3-27.2c-5.4-9.3-12.3-17.4-20.7-24.2
			c-6.4-5.2-14.1-9.7-22.7-13.3c-8.9-3.7-18.5-5.8-28.4-6.3c-5.8-0.3-11.7,0.3-17.5,0.9c-8.8,0.9-17.5,3.5-26.7,8.1
			c-10.1,5-19,11.7-26.3,19.6c-7.1,7.8-12.5,16-16.4,25c-4.9,11.3-7,22.7-6.6,35.1c0.3,7.6,1.4,15.1,3.4,22.8
			c0.5,1.9,1.2,3.9,1.8,5.8c0,0.1,0,0.1,0.1,0.2c0,0,0.1-0.1,0.1-0.1c2.7-2.7,5.3-5.4,8-8.2c4.5-4.6,9-9.2,13.4-13.8
			c2.1-2.2,4.2-4.5,6.2-6.7c1.1-1.3,2.3-2.6,3.5-3.8c4-4.3,8-8.7,12-13l9.8-10.7c1-1.1,2-2.2,3-3.3c2.5-2.7,5-5.4,7.4-8.2
			c7-8,15-16.1,25.8-20.6c11.1-4.7,22.5-4.6,33.8,0.4c7.2,3.2,13.5,8.2,19.3,15.5c5.1,6.4,8.9,13.7,11.4,21.7
			c2.8,9.2,3.6,17,2.5,24.5c-0.2,1.3-0.3,2.6-0.5,3.9c-0.3,2.6-0.6,5.2-1.2,7.8c-2.7,11.4-7.4,22.8-14.1,34.7
			c-7,12.3-16,24.1-26.8,35.1c-5.9,6-12.4,11.7-18.6,17.2c-2.5,2.2-5.1,4.2-7.6,6c-1.1,0.8-2.2,1.6-3.3,2.5l-1.2,0.9l-12.3-9.8
			l1.9-1.5c0.3-0.3,0.6-0.5,0.9-0.7c0.5-0.4,0.9-0.7,1.3-1.1c2-2.1,4.1-4.2,6.2-6.4c5.6-5.7,11.3-11.7,16.8-17.6
			c6.4-7,12.5-14.3,17.6-20.4c9.8-11.8,16.2-21.6,20.7-31.7c3.7-8.3,5.8-16,6.3-23.6c0.8-10.5-1.3-19.4-6.2-27.1
			c-4-6.3-8.8-10.5-14.5-12.9c-4.1-1.7-8.6-2.3-14.5-2.1c-4.2,0.2-8.3,1.1-12.5,3c-8.5,3.8-15.1,10.6-20.6,16.6
			c-3.1,3.4-6.2,7-9.2,10.4c-2.8,3.2-5.6,6.4-8.4,9.6c-7.3,8-13.3,14.5-18.9,20.3c-3.1,3.2-6.4,6.3-9.6,9.4c-1.5,1.4-3,2.9-4.5,4.3
			l-4.9,4.7c-3.7,3.6-7.5,7.3-11.3,10.9c-0.3,0.3-0.3,0.4-0.3,0.4c0,0,0,0.2,0.3,0.6c0.7,1.4,1.5,2.8,2.2,4.2
			c0.9,1.7,1.7,3.4,2.7,5.1c0.7,1.2,1.4,2.4,2.2,3.6c1-0.9,2-1.8,2.9-2.7c3.4-3.1,6.6-6,9.7-9.1c11.8-11.8,23.3-23.5,35-35.5
			c2.1-2.1,4.1-4.4,6-6.7l1.5-1.8c1.6-1.9,3.2-3.7,4.8-5.6c3.2-3.8,6.5-7.7,10-11.4c4-4.3,8-8,12-11c5.6-4.3,11.7-5.7,18.2-4.1
			c7.8,1.9,12.7,12.3,13.2,19.1c0.8,11.1-2.1,21.8-9,32.8c-4.7,7.5-9.8,14.7-15.3,21.5c-6,7.5-12.6,15.1-21.5,24.9
			c-4.5,5-9.4,9.7-14.1,14.3l-3,2.9c-1.8,1.8-3.8,3.5-5.7,5.2c-1,0.9-2,1.8-3.1,2.7c-2.2,1.9-4.3,3.9-6.5,5.9l-1,0.9l0.3,0.3
			C91.2,622.5,92.6,623.8,94,625z M117,450.3c-7.2,4.3-13.7,9.7-20,16.5c-4.3,4.7-8.6,9.6-12.8,14.2c-2.3,2.6-4.6,5.2-6.9,7.7
			c-3.2,3.6-6.4,7.1-9.6,10.6c-3.3,3.6-6.6,7.2-9.9,10.8l-1.9,2c-0.2,0.3-0.5,0.5-0.8,0.8l-4.2,3.8l0.3-4.9
			c2.1-35.9,35.7-63.2,64.6-65.2l8.3-0.6L117,450.3z"/>
		<g>
			<path class="st0" d="M326.3,581.7c6.4-5.9,10.5-13.6,12.5-23.5l-4.3-0.9c-5.3-1.1-10.6-2.2-15.9-3.2c-0.8-0.1-1.1-0.2-1.8,1.6
				l-0.2,0.6c-1.9,4.4-4.1,9.3-7.7,12.5c-5.8,5.1-13.3,7.4-21.1,6.4c-8.1-1-15.4-5.5-20.3-12.3c-9.3-13.2-6-33.1,7-42.5
				c7.4-5.4,17.9-6.7,26.8-3.4c8.1,3,13.7,9.4,15.7,18c0.1,0.6,0.3,0.8,0.3,0.9c0-0.1,0.3-0.1,1.1-0.3c5-1.3,10-2.4,15.3-3.6
				l4.8-1.1c0,0,0,0,0-0.1c0-0.7,0.1-1.3,0-1.7c-3.1-10.5-8.7-18.5-17-24.5c-8.5-6.1-18.5-9-31.1-9c-0.4,0-0.7,0-1.1,0
				c-12.5,0.2-23,4.2-32.3,12.2c-13,11.3-18.4,26.4-16,44.9c2.1,16.4,11.6,29.3,27.4,37.1c8.6,4.2,18.1,5.7,29.1,4.6
				C308.9,593.3,318.4,589.1,326.3,581.7z"/>
			<path class="st0" d="M445.1,552.9c0.2-12.2,0.1-24.7,0.1-36.7c0-5.3,0-10.6,0-15.9V498h-21.4v2.7c0,4.4,0,8.8,0,13.1
				c0,11.4,0.1,23.2-0.1,34.8c-0.1,4.4-0.8,9-2.2,13.2c-2.4,7.4-8,12.1-15.3,13c-8.3,1-14.9-1.8-19.3-8.2
				c-3.3-4.7-4.9-10.3-4.9-16.9c-0.1-11.9-0.1-23.9-0.1-35.5l0-16.1h-21.4l0,16.3c0,11.9,0,24.2,0.1,36.3c0,4.8,0.5,9,1.4,12.7
				c3.7,15.1,12.6,24.9,26.3,29.2c7.1,2.2,13.7,2.9,20.3,2c5.8-0.8,11.9-1.9,17.4-5.4C438.3,581.2,444.8,569,445.1,552.9z"/>
			<polygon class="st0" points="470.1,498.1 470.1,592.8 539.2,592.8 539.2,574.1 491.8,574.1 491.8,498.1 			"/>
			<polygon class="st0" points="616.3,498.1 532,498.1 532,516.6 563.3,516.6 563.3,592.6 585,592.6 585,516.4 616.3,516.4 			"/>
			<path class="st0" d="M708,584c8.1-8,12.2-18,12.3-29.5c0-12.6,0-25.3,0-37.9l0-18.5h-21.4l0,11.6c0,13.9,0,27.7,0,41.4
				c0,2.6-0.3,5.1-0.8,7.4c-2.2,9.7-9.7,16.4-18.7,16.7c-5.5,0.2-10.7-1.8-14.8-5.7c-4.3-4.1-6.9-10-6.9-15.7
				c-0.1-12.4-0.1-24.7-0.1-37.1l0-18.4h-22.2c0,3.2,0,6.5,0,9.7c0,8.3-0.1,17,0.1,25.4l0.1,4.4c0.1,8.1,0.3,16.6,1.5,24.6
				c1.9,12.2,8.5,21.5,19.6,27.4c8.2,4.4,17.2,6,27.5,4.8C694.2,593.4,702,590,708,584z"/>
			<path class="st0" d="M774.4,558.9c2.1,0.2,4,0.4,5.2,1.7c6.4,7,12.6,14.3,18.7,21.3c2.8,3.3,5.6,6.5,8.5,9.8c0.6,0.7,1.3,1,1.5,1
				c7.2,0.1,14.5,0.1,22.3,0.1h3.5L804,558.6l2.3-0.6c23.2-6.5,25.5-23.5,23.3-36.7c-2.3-13.7-13-22.6-27.9-23.2
				c-11.7-0.5-23.7-0.4-35.3-0.3c-5.1,0-10.3,0.1-15.4,0.1h-2.2v94.7h21.3v-34.4l1.8,0.4C772.8,558.8,773.6,558.8,774.4,558.9z
				 M770.6,540.1l-0.4-0.4l-0.1-0.7v-23.2h1.5c1.4,0,2.8,0,4.3,0c3.2,0,6.5-0.1,9.7,0.1l1.7,0.1c4.3,0.2,8.7,0.4,12.9,1.3
				c5.4,1.2,9.4,6.8,8.9,12.4c-0.4,5.2-5.4,11.3-11.4,11.5c-2.9,0.1-5.9,0.1-8.8,0.1c-3.3,0-6.6,0-9.8-0.1c-2.3,0-4.6-0.1-6.9-0.1
				C771.3,541,770.8,540.4,770.6,540.1z"/>
			<polygon class="st0" points="923.9,553.8 923.9,536.7 877.6,536.7 877.6,515.6 928.3,515.6 928.3,498.2 856.2,498.2 856.2,592.6 
				929.2,592.6 929.2,574.2 877.7,574.2 877.7,553.8 			"/>
			<path class="st0" d="M970.2,578.6c0.6-1.5,1.5-3.8,4.7-3.8c0,0,0.1,0,0.1,0c11.7,0.1,23.6,0.1,35.1,0l0.5,0c0,0,0,0,0,0
				c2.5,0,3.8,1,4.6,3.4c1.3,3.8,2.8,7.6,4.3,11.2c0.4,1.1,0.9,2.1,1.3,3.2h23.2l-39.6-94.8l-4.8,0c-6,0-11.7,0-17.5,0.1
				c-0.4,0-1.4,0.7-1.6,1.3c-3,6.6-5.9,13.5-8.4,19.4c-6.6,15.9-13.2,31.7-19.8,47.6l-5.4,13c-1.6,3.9-3.3,7.9-5,12l-0.7,1.6h23.4
				l1.3-3.5C967.4,585.7,968.8,582.1,970.2,578.6z M991.2,524.4l3.1,0l12.4,31.7h-27.5L991.2,524.4z"/>
		</g>
	</g>
</g>
</svg>
