<svg width="182" height="109" viewBox="0 0 182 109" fill="none" xmlns="http://www.w3.org/2000/svg">
<path d="M22.6673 100.077C22.1709 102.663 20.9093 104.677 18.9032 106.158C16.9177 107.619 14.4773 108.369 11.6232 108.369C8.37613 108.369 5.62545 107.322 3.37114 105.21C1.1375 103.117 0 100.531 0 97.451C0 94.3909 1.1375 91.8045 3.39182 89.6921C5.64613 87.5796 8.39682 86.5332 11.6439 86.5332C14.3945 86.5332 16.773 87.2637 18.8204 88.7247C20.8473 90.1856 22.1295 92.1204 22.6673 94.5488L17.3727 95.7334C17.0418 94.2527 16.38 93.1471 15.3666 92.3771C14.3532 91.6071 13.1123 91.232 11.6645 91.232C9.92727 91.232 8.43818 91.8243 7.23863 93.0089C6.03909 94.1934 5.41863 95.6741 5.41863 97.4313C5.41863 99.2081 6.01841 100.689 7.23863 101.873C8.43818 103.058 9.92727 103.67 11.6645 103.67C13.0916 103.67 14.3325 103.275 15.3459 102.505C16.3593 101.735 17.0418 100.57 17.4141 99.0502L22.6673 100.077Z" fill="#000301"/>
<path d="M46.596 98.4765C46.596 101.477 45.7067 103.866 43.9281 105.663C42.1495 107.459 39.8124 108.368 36.8963 108.368C33.9181 108.368 31.4983 107.459 29.699 105.663C27.8997 103.866 26.969 101.477 26.969 98.4765V87.0059H32.3669V98.4765C32.3669 100.056 32.7806 101.319 33.6079 102.228C34.4351 103.156 35.5313 103.61 36.917 103.61C38.2199 103.61 39.2747 103.156 40.0606 102.228C40.8465 101.3 41.2395 100.056 41.2395 98.4765V87.0059H46.6374V98.4765H46.596Z" fill="#000301"/>
<path d="M67.795 107.894H51.6218V87.0059H56.9991V103.412H67.795V107.894Z" fill="#000301"/>
<path d="M78.012 91.4875V107.894H72.6554V91.4875H65.5615V87.0059H85.1059V91.4875H78.012Z" fill="#000301"/>
<path d="M108.517 98.4765C108.517 101.477 107.628 103.866 105.849 105.663C104.071 107.459 101.734 108.368 98.8176 108.368C95.8395 108.368 93.4404 107.459 91.6204 105.663C89.8004 103.866 88.8904 101.477 88.8904 98.4765V87.0059H94.2883V98.4765C94.2883 100.056 94.702 101.319 95.5292 102.228C96.3565 103.156 97.4526 103.61 98.8383 103.61C100.141 103.61 101.196 103.156 101.961 102.228C102.747 101.3 103.14 100.056 103.14 98.4765V87.0059H108.538V98.4765H108.517Z" fill="#000301"/>
<path d="M127.772 107.894L121.175 100.727H119.603V107.894H114.205V87.0059H125.291C127.669 87.0059 129.572 87.6376 130.999 88.9012C132.446 90.1647 133.15 91.8034 133.15 93.8369C133.15 95.5348 132.633 96.976 131.619 98.1606C130.585 99.3254 129.199 100.115 127.4 100.49L134.266 107.914H127.772V107.894ZM124.691 96.4232C125.642 96.4232 126.407 96.1863 126.986 95.7322C127.566 95.2781 127.855 94.6661 127.855 93.8961C127.855 93.1459 127.566 92.5536 126.986 92.0798C126.407 91.6257 125.642 91.3888 124.691 91.3888H119.582V96.4035H124.691V96.4232Z" fill="#000301"/>
<path d="M156.065 107.894H139.002V87.0059H155.962V91.4283H144.4V95.3571H155.01V99.5426H144.4V103.471H156.065V107.894Z" fill="#000301"/>
<path d="M176.25 107.894L174.72 104.083H165.496L163.965 107.894H158.175L167.316 87.0059H172.838L182 107.894H176.25ZM170.108 92.8103L167.337 99.6808H172.921L170.108 92.8103Z" fill="#000301"/>
<path d="M118.734 20.5918C114.598 8.27226 102.706 0 89.1592 0C75.5712 0 63.3689 8.64738 59.4394 21.0459C58.2398 24.8365 57.9917 29.0023 58.6742 33.2667C58.881 34.5698 59.1705 35.8925 59.5635 37.2153C59.8117 38.084 60.1219 38.9922 60.4735 39.9398C61.9005 38.6565 63.6171 37.0179 65.4785 35.1818C70.7317 29.9894 77.1017 23.2374 81.4035 18.7162L83.8646 16.1102C87.8769 11.8852 92.1167 9.69375 96.4392 9.57529C104.567 9.37786 110.441 15.4982 112.757 22.4082C114.019 26.1593 114.06 30.4238 112.902 34.7277C112.819 35.0238 112.736 35.3397 112.633 35.6359C110.42 43.0592 104.546 54.0955 89.1178 65.033C87.9596 64.2038 86.8635 63.3943 85.8087 62.5651C92.096 56.9187 100.555 48.1923 105.208 41.3613C108.435 36.623 110.151 31.5886 110.068 27.1859C109.986 22.9017 108.062 18.9334 104.898 16.5643C101.155 13.7608 95.3844 13.7805 90.8757 16.6038C87.5046 18.7162 82.7064 24.0271 82.1067 24.6983C77.991 29.6143 71.7864 35.5766 67.1537 39.8411C65.1476 41.6772 63.431 43.2171 62.3142 44.2043C63.1621 45.9417 64.1755 47.758 65.3958 49.6336C66.0576 49.061 67.7948 47.5408 70.0698 45.4678C74.8887 41.0652 82.1894 34.1946 86.9462 28.489C88.2492 27.0477 92.096 22.9807 94.3296 21.579C96.5219 20.2167 99.4587 20.0588 101.051 21.2433C102.354 22.2305 103.781 24.3232 103.823 27.2649C103.885 30.483 102.52 34.3131 99.9757 38.0642C94.8466 45.606 86.4912 53.7203 81.0932 58.5376C78.901 60.4921 77.1844 61.9136 76.3985 62.5059C76.4192 62.5257 76.4398 62.5454 76.4605 62.5651C76.7087 62.8021 76.9569 63.0192 77.2051 63.2561C78.4253 64.342 79.7076 65.4476 81.0932 66.5335C82.8512 67.9352 84.7332 69.337 86.7601 70.7387L89.1592 72.4366L91.5582 70.7387C109.407 58.5179 116.17 45.7837 118.713 37.235C118.817 36.8797 118.92 36.544 119.003 36.1887C120.43 30.8186 120.347 25.4091 118.734 20.5918ZM79.2319 12.0826L76.7501 14.6887C73.441 18.1832 68.8703 23.0202 64.5892 27.3834C64.6926 25.7842 64.9614 24.2442 65.4164 22.7635C68.3326 13.5436 77.0189 6.92975 86.9462 6.06106C84.2782 7.48255 81.693 9.49632 79.2319 12.0826Z" fill="#000301"/>
<path d="M98.9418 30.9174C99.8931 29.5354 99.5002 27.6796 98.0525 26.7714C96.6254 25.8632 94.6607 26.2383 93.7093 27.6203C87.5254 36.5046 79.6043 43.9674 73.0275 49.8311C71.8693 50.8577 70.7525 51.8448 69.6977 52.753L68.3948 53.8981C69.5736 55.4183 70.8973 56.978 72.3657 58.5377L73.9582 57.1359C74.9095 56.287 75.9229 55.3986 76.9777 54.4706C83.8648 48.3898 92.2822 40.5124 98.9418 30.9174Z" fill="#000301"/>
</svg>
