<?xml version="1.0" encoding="utf-8"?>
<!-- Generator: Adobe Illustrator 28.0.0, SVG Export Plug-In . SVG Version: 6.00 Build 0)  -->
<svg version="1.1" id="Layer_1" xmlns="http://www.w3.org/2000/svg" xmlns:xlink="http://www.w3.org/1999/xlink" x="0px" y="0px"
	 viewBox="0 0 1080 1080" style="enable-background:new 0 0 1080 1080;" xml:space="preserve">
<style type="text/css">
	.st0{fill:#FFFFFF;}
</style>
<g>
	<path class="st0" d="M360.7,451.9c-1.9-5.9-4-11.7-5.5-17.6c-4-15.4-6.4-31-7-47c-1-25.4,3.6-49.6,13.6-72.8
		c8.3-19.2,19.8-36.3,33.9-51.8c15.6-17.1,33.9-30.5,54.4-40.7c17.5-8.7,35.9-14.8,55.4-16.7c12-1.2,24.1-2.4,36-1.8
		c20.2,1,40,5.3,58.9,13.1c16.9,7,32.8,16,46.9,27.5c17.3,14,31.6,30.8,42.8,50.2c10.2,17.7,17.6,36.4,21.3,56.4
		c3,16.4,2.9,33.1,1.4,49.8c-3.1,33.4-15,63.9-30.3,93.3c-10.1,19.5-22,38-36.3,54.8c-12.2,14.3-24.1,29.1-37.6,42.1
		c-15.6,14.9-32.6,28.3-49.3,42c-8.1,6.7-16.9,12.5-25.2,18.9c-2.6,2-4.2,2-6.9-0.1c-12.4-9.6-25.2-18.7-37.6-28.3
		c-7.8-6.1-15.1-13-22.6-19.5c-4.1-3.7-8.2-7.4-12.5-11.4c6.3-5.8,12.3-11.3,18.4-16.8c5.9-5.3,12-10.3,17.7-15.9
		c11.7-11.4,23.5-22.6,34.5-34.7c14.9-16.3,29.6-32.9,43.4-50.2c11.1-13.8,21.4-28.3,30.8-43.3c12.2-19.4,19.4-40.6,17.7-64
		c-1-12.7-10.3-31.7-23.7-35.1c-12.6-3.1-23.8,0.1-33.5,7.5c-8.5,6.5-16.5,14-23.8,21.9c-10.3,11.1-19.9,22.9-29.8,34.3
		c-5.1,5.9-10.1,11.8-15.5,17.4c-23.6,24.1-47.1,48.1-71,71.9c-9.3,9.3-19.3,17.9-29.3,27.1c-2.5-4-5.1-7.6-7.3-11.5
		c-3.4-6.2-6.5-12.6-9.8-18.8c-1.4-2.6-1.6-4.6,0.9-6.9c11-10.4,21.8-21,32.6-31.6c9.5-9.2,19.3-18.1,28.5-27.6
		c13-13.5,25.7-27.3,38.3-41.1c12.1-13.4,23.7-27.2,35.8-40.5c12.6-13.8,25.8-26.9,43.2-34.6c8.5-3.8,17.3-6.1,26.8-6.5
		c10.7-0.4,21.1,0.4,31.2,4.6c13.7,5.6,23.6,15.4,31.3,27.6c11.2,17.6,14.7,37.1,13.2,57.5c-1.3,17.1-6.1,33.5-13.2,49.2
		c-10.7,24-25.8,45.1-42.5,65.2c-11.7,14.1-23.5,28.1-35.9,41.6c-15.2,16.5-31,32.5-46.6,48.7c-1.3,1.3-2.9,2.4-4.8,4
		c6.1,4.9,12.1,9.7,18.5,14.9c7.1-5.5,14.8-10.8,21.6-16.9c12.8-11.4,25.7-22.7,37.7-34.9c20.8-21.1,39-44.4,53.7-70.3
		c12.4-21.9,22.4-44.8,28.3-69.4c1.8-7.6,2.2-15.5,3.3-23.3c2.4-16.4-0.2-32.4-5-48c-4.7-15.5-12.1-29.9-22.3-42.7
		c-10.3-12.9-22.4-23.5-37.7-30.2c-21.7-9.5-43.3-10-65.3-0.7c-20.9,8.8-36.3,24.1-50.9,40.7c-6.9,7.9-14.1,15.5-21.2,23.2
		c-14.7,16-29.4,32-44.1,48c-6.5,7.1-12.9,14.5-19.6,21.4c-14.4,14.9-29,29.7-43.4,44.5c-1.2,1.3-2.2,2.8-3.3,4.1
		C361.9,452.2,361.3,452,360.7,451.9z M386.7,371.4c1.3-1.2,2-1.8,2.6-2.5c8-8.6,16-17.2,23.9-25.8c6.5-7.1,13.1-14.3,19.5-21.4
		c13.3-14.8,26.4-29.9,39.9-44.6c12.1-13.2,25.6-24.7,41.4-34.2C453.6,247.3,390.7,303.6,386.7,371.4z"/>
	<path class="st0" d="M711.8,828.3c0,15.7,0,30.3,0,45.3c-10.9,0-21.5,0-32.4,0c0-43.1,0-86.2,0-130.1c1.6,0,3.2,0,4.9,0
		c22.5,0,45.1-0.7,67.6,0.2c20.5,0.9,35.8,13.3,39,32.6c3.7,22.5-3.7,43-32.5,51.1c13.4,15.3,26.6,30.4,40.8,46.6
		c-14,0-26.4,0.1-38.8-0.1c-1.2,0-2.6-1.1-3.5-2.1c-12-13.8-23.8-27.8-36.1-41.4C719.3,828.6,715.3,829,711.8,828.3z M711.8,800.2
		c0.3,0.3,0.5,0.8,0.7,0.8c11.3,0.1,22.6,0.4,34,0c6.5-0.2,12.7-7.1,13.2-13.4c0.5-6.1-3.7-12.9-10.3-14.4
		c-6.2-1.4-12.7-1.5-19.2-1.8c-6.1-0.3-12.3-0.1-18.5-0.1C711.8,781.5,711.8,790.9,711.8,800.2z"/>
	<path class="st0" d="M923.5,845.1c0,10,0,19.1,0,28.5c-33.7,0-67.3,0-101.2,0c0-43.1,0-86.2,0-129.7c33.2,0,66.5,0,100.1,0
		c0,8.9,0,17.8,0,27.2c-22.3,0-44.8,0-67.5,0c0,8.3,0,16,0,24.1c20.5,0,40.9,0,61.7,0c0,9,0,17.7,0,26.8c-20.4,0-40.8,0-61.6,0
		c0,7.8,0,15.2,0,23.1C877.6,845.1,900.3,845.1,923.5,845.1z"/>
	<path class="st0" d="M137.2,791c-9.7,2.2-19,4.2-28.2,6.6c-2.7,0.7-3.6,0.5-4.3-2.3c-6-25.9-36.6-30.6-53.4-18.3
		c-16.6,12.1-20.5,37.4-8.9,53.8c12.5,17.8,36.6,21,52.1,7.5c4.7-4.1,7.4-10.7,10-16.6c1.2-2.7,2.2-3.7,4.6-3.2
		c9.7,1.8,19.3,3.9,28.9,5.8c-2.4,13.5-7.7,25.2-17.6,34.3c-11.1,10.3-24.3,15.9-39.6,17.5c-14.1,1.5-27.4-0.2-39.9-6.3
		C20,859.4,6.4,842.4,3.4,818.9c-3-23.8,3.2-45.2,22-61.6c12.6-11,27.3-16.5,44.3-16.8c16.1-0.2,30.8,2.8,44.1,12.4
		c11.8,8.5,19.3,19.9,23.4,33.6C137.5,787.8,137.2,789.3,137.2,791z"/>
	<path class="st0" d="M934.7,873.9c3.1-7.4,5.8-14.2,8.6-20.9c11.2-26.9,22.3-53.7,33.5-80.6c3.6-8.7,7.3-17.3,11.2-25.9
		c0.6-1.3,2.6-2.8,3.9-2.9c10.2-0.2,20.4-0.1,31.1-0.1c18,43.2,36.1,86.5,54.3,130.1c-12,0-23.4,0-35.2,0
		c-2.6-6.6-5.5-13.5-7.9-20.5c-0.8-2.5-1.9-3.2-4.3-3.2c-15.8,0.1-31.6,0.1-47.5-0.1c-3,0-3.7,1.7-4.5,3.8
		c-2.6,6.7-5.2,13.4-7.8,20.2C958.6,873.9,947.1,873.9,934.7,873.9z M1006.8,782.8c-0.4,0-0.9,0-1.3,0c-4.8,12.7-9.7,25.3-14.6,38.2
		c10.7,0,20.5,0,30.8,0C1016.6,808,1011.7,795.4,1006.8,782.8z"/>
	<path class="st0" d="M430.9,567.8c-7.9-9.8-15.8-19.6-23.8-29.5c9.3-8.6,18.1-16.6,26.7-24.8c10.8-10.1,21.8-20,32.2-30.4
		c10.9-10.9,21.3-22.3,31.8-33.6c8.1-8.8,16.5-17.5,23.9-27c11.9-15.2,23.4-30.6,34.6-46.4c6.9-9.7,19.6-12.7,28.8-6
		c6.5,4.8,10.5,17.6,4.2,26.1c-12.7,17.2-25.4,34.3-38.6,51.1c-22.6,28.9-49,54.2-75,79.9c-13.1,12.9-26.9,25.1-40.4,37.6
		C434.1,565.9,432.5,566.7,430.9,567.8z"/>
	<path class="st0" d="M613,743.8c11,0,21.5,0,32.5,0c0,1.8,0,3.5,0,5.2c0,24,0.1,48,0,72c-0.1,15.8-5.8,29.5-16.9,40.6
		c-9,8.9-20.2,13.1-32.8,14.5c-13.4,1.5-25.9-0.4-37.8-6.7c-15.3-8.1-24.6-21.1-27.1-37.9c-1.9-12.8-1.8-25.9-2.1-38.9
		c-0.3-16.1-0.1-32.3-0.1-48.7c11.2,0,22.1,0,33.5,0c0,2,0,3.9,0,5.7c0,23.4-0.1,46.7,0,70.1c0.1,13.6,11.5,27.2,26.8,26.6
		c10.9-0.4,20.2-8.4,23-20.7c0.7-3,1-6.2,1-9.4C613,792.3,613,768.3,613,743.8z"/>
	<path class="st0" d="M246.7,743.7c11.1,0,21.4,0,32.5,0c0,1.8,0,3.4,0,5.1c0,23.3,0.3,46.7-0.1,70c-0.3,21.1-8.3,38.4-26.7,49.9
		c-7.3,4.6-15.4,6.3-23.9,7.4c-9.7,1.3-18.8,0.1-27.8-2.7c-19.9-6.2-31.4-20.5-36.3-40.3c-1.4-5.6-1.9-11.5-2-17.3
		c-0.2-22.2-0.1-44.4-0.1-66.7c0-1.7,0-3.4,0-5.4c10.9,0,21.4,0,32.5,0c0,1.7,0,3.4,0,5.1c0,21.9-0.1,43.8,0.1,65.7
		c0.1,7.6,1.8,14.8,6.2,21.3c5.9,8.6,14.4,11.3,23.8,10.1c9.2-1.1,15.8-7,18.7-15.9c1.8-5.4,2.8-11.3,2.9-17
		c0.3-21.3,0.1-42.5,0.1-63.8C246.7,747.6,246.7,745.8,246.7,743.7z"/>
	<path class="st0" d="M432.6,873.6c0-33.9,0-67.4,0-101.2c-14,0-27.7,0-41.7,0c0-9.7,0-19,0-28.6c38.6,0,77.2,0,116.2,0
		c0,9.2,0,18.5,0,28.4c-13.8,0-27.5,0-41.7,0c0,34,0,67.5,0,101.4C454.5,873.6,443.9,873.6,432.6,873.6z"/>
	<path class="st0" d="M404.5,873.9c-32.2,0-63.9,0-96.1,0c0-43.3,0-86.5,0-130c10.8,0,21.7,0,33,0c0,33.6,0,67.1,0,101.1
		c21.1,0,42,0,63.1,0C404.5,854.8,404.5,864.2,404.5,873.9z"/>
</g>
</svg>
