<?xml version="1.0" standalone="no"?>
<!DOCTYPE svg PUBLIC "-//W3C//DTD SVG 20010904//EN"
 "http://www.w3.org/TR/2001/REC-SVG-20010904/DTD/svg10.dtd">
<svg version="1.0" xmlns="http://www.w3.org/2000/svg"
 width="700.000000pt" height="700.000000pt" viewBox="0 0 700.000000 700.000000"
 preserveAspectRatio="xMidYMid meet">
<metadata>
Created by potrace 1.14, written by Peter Selinger 2001-2017
</metadata>
<g transform="translate(0.000000,700.000000) scale(0.100000,-0.100000)"
fill="#000000" stroke="none">
<path d="M3220 6989 c-36 -4 -87 -11 -115 -14 -109 -12 -292 -50 -422 -86
-642 -180 -1217 -573 -1604 -1095 -269 -362 -454 -800 -508 -1199 -20 -143
-24 -214 -24 -380 1 -313 50 -603 160 -938 l45 -139 21 19 c145 122 1011 993
1307 1313 18 19 96 102 174 184 77 82 158 167 179 190 48 51 277 295 373 396
39 41 102 108 140 149 190 203 299 298 469 413 182 123 367 204 555 244 91 20
375 26 475 12 135 -21 277 -65 410 -129 490 -236 881 -800 977 -1410 14 -92
18 -441 5 -529 -79 -560 -328 -1141 -734 -1712 -73 -102 -235 -314 -252 -328
-4 -3 -19 -21 -35 -40 -211 -259 -673 -700 -996 -949 -214 -166 -322 -241
-334 -234 -47 27 -296 220 -296 230 0 7 7 16 14 20 27 15 287 264 516 494 237
238 346 351 545 570 107 116 313 358 414 484 62 77 120 149 129 160 105 127
284 394 376 559 158 284 273 613 302 861 3 33 8 69 10 80 3 11 4 79 4 152 1
342 -105 643 -311 890 -263 314 -675 442 -1105 343 -201 -47 -386 -136 -554
-269 -222 -176 -510 -462 -795 -791 -317 -365 -864 -918 -1360 -1375 -71 -66
-132 -122 -135 -125 -3 -3 -74 -67 -157 -143 l-153 -138 51 -102 c54 -107 145
-268 208 -368 l37 -58 79 71 c100 89 480 434 516 468 14 14 100 94 190 179
176 166 772 760 879 876 36 39 90 97 121 130 30 33 127 143 216 245 245 282
536 571 705 698 210 158 496 199 674 97 124 -72 238 -252 279 -444 21 -98 14
-330 -14 -446 -84 -350 -220 -611 -534 -1025 -99 -130 -247 -314 -318 -395
-275 -314 -389 -436 -679 -725 -341 -340 -488 -478 -855 -799 -17 -14 -55 -46
-85 -71 -30 -25 -61 -50 -68 -57 -7 -7 -23 -19 -34 -28 -22 -14 -22 -15 20
-54 210 -200 552 -473 942 -751 l240 -172 222 158 c527 374 824 620 1188 984
486 485 831 949 1105 1485 118 230 192 405 265 625 126 377 174 658 173 1002
-1 125 -4 176 -19 308 -30 263 -144 614 -284 877 -88 165 -253 413 -321 483
-8 8 -25 29 -37 45 -35 46 -183 195 -275 278 -364 326 -813 559 -1307 676 -69
16 -143 32 -165 36 -23 3 -50 7 -61 9 -11 2 -47 7 -79 11 -33 4 -69 10 -80 12
-36 9 -539 10 -605 2z m-42 -638 c-206 -125 -400 -283 -598 -487 -104 -107
-378 -396 -443 -467 -42 -46 -276 -295 -373 -397 -49 -52 -130 -137 -180 -189
-49 -52 -138 -146 -199 -209 -60 -62 -138 -144 -173 -180 l-64 -67 6 50 c22
177 23 188 52 305 84 338 279 685 542 961 355 374 826 624 1340 714 199 34
201 34 90 -34z"/>
<path d="M4087 4446 c-66 -24 -116 -64 -165 -133 -182 -258 -429 -570 -641
-813 -293 -334 -770 -812 -1211 -1210 -58 -52 -107 -97 -110 -100 -10 -10
-180 -161 -305 -270 -138 -121 -148 -131 -137 -140 4 -3 32 -36 62 -75 30 -38
64 -81 76 -95 97 -113 174 -201 204 -233 l35 -38 30 29 c17 16 136 122 265
237 129 114 240 213 245 219 6 6 53 49 105 96 52 47 100 89 106 95 254 228
761 736 989 989 44 49 88 98 98 109 122 127 544 663 680 864 60 88 84 166 72
232 -20 107 -96 200 -191 234 -58 20 -154 22 -207 3z"/>
</g>
</svg>
