<?xml version="1.0" encoding="UTF-8" standalone="no"?>
<!-- Created with Inkscape (http://www.inkscape.org/) -->

<svg
   version="1.1"
   id="svg2"
   width="78.666664"
   height="32"
   viewBox="0 0 78.666664 32"
   sodipodi:docname="NEW_lyofood_black.eps"
   xmlns:inkscape="http://www.inkscape.org/namespaces/inkscape"
   xmlns:sodipodi="http://sodipodi.sourceforge.net/DTD/sodipodi-0.dtd"
   xmlns="http://www.w3.org/2000/svg"
   xmlns:svg="http://www.w3.org/2000/svg">
  <defs
     id="defs6" />
  <sodipodi:namedview
     id="namedview4"
     pagecolor="#ffffff"
     bordercolor="#000000"
     borderopacity="0.25"
     inkscape:showpageshadow="2"
     inkscape:pageopacity="0.0"
     inkscape:pagecheckerboard="0"
     inkscape:deskcolor="#d1d1d1" />
  <g
     id="g8"
     inkscape:groupmode="layer"
     inkscape:label="ink_ext_XXXXXX"
     transform="matrix(1.3333333,0,0,-1.3333333,0,32)">
    <g
       id="g10"
       transform="scale(0.1)">
      <path
         d="M 1.34375,6.39844 V 212.789 H 122.672 v -104.68 h 39.504 V 6.39844 H 1.34375"
         style="fill:#050407;fill-opacity:1;fill-rule:nonzero;stroke:none"
         id="path12" />
      <path
         d="m 266.07,212.789 c 0,-6.043 -5.175,-11.219 -11.222,-11.219 -5.184,0 -10.36,5.176 -10.36,11.219 h -97.41 L 195.883,111.355 V 6.25391 H 314.246 V 111.355 l 49.227,101.434 H 266.07"
         style="fill:#050407;fill-opacity:1;fill-rule:nonzero;stroke:none"
         id="path14" />
      <path
         d="m 443.777,109.242 c 0,-5.969 5.118,-11.0857 10.231,-11.0857 5.972,0 11.097,5.1167 11.097,11.0857 0,6.535 -5.125,10.813 -11.097,10.813 -5.113,0 -10.231,-4.278 -10.231,-10.813 z m 114.028,0 c 0,-57.1561 -46.637,-102.94122 -103.797,-102.94122 -56.293,0 -103.223,45.78512 -103.223,102.94122 0,56.875 46.93,103.504 103.223,103.504 57.16,0 103.797,-46.629 103.797,-103.504"
         style="fill:#050407;fill-opacity:1;fill-rule:nonzero;stroke:none"
         id="path16" />
      <path
         d="m 576.289,205.18 c -1.055,-2.367 -2.492,-4.45 -4.312,-6.242 -1.821,-1.793 -3.942,-3.196 -6.364,-4.211 -2.418,-1.016 -5.019,-1.52 -7.828,-1.52 -2.801,0 -5.426,0.504 -7.875,1.52 -2.461,1.015 -4.609,2.418 -6.465,4.211 -1.855,1.792 -3.312,3.875 -4.367,6.242 -1.047,2.371 -1.57,4.875 -1.57,7.511 0,2.707 0.523,5.239 1.57,7.606 1.055,2.375 2.512,4.437 4.367,6.195 1.856,1.758 4.004,3.145 6.465,4.164 2.449,1.016 5.074,1.52 7.875,1.52 2.809,0 5.41,-0.504 7.828,-1.52 2.422,-1.019 4.543,-2.406 6.364,-4.164 1.82,-1.758 3.257,-3.82 4.312,-6.195 1.043,-2.367 1.57,-4.899 1.57,-7.606 0,-2.636 -0.527,-5.14 -1.57,-7.511 z m 3.469,16.496 c -1.266,2.801 -2.961,5.238 -5.102,7.304 -2.14,2.063 -4.66,3.704 -7.562,4.922 -2.914,1.215 -6.016,1.828 -9.309,1.828 -3.289,0 -6.402,-0.613 -9.355,-1.828 -2.938,-1.218 -5.496,-2.859 -7.664,-4.922 -2.18,-2.066 -3.887,-4.503 -5.157,-7.304 -1.261,-2.813 -1.89,-5.805 -1.89,-8.985 0,-3.183 0.629,-6.16 1.89,-8.937 1.27,-2.766 2.977,-5.188 5.157,-7.254 2.168,-2.059 4.726,-3.691 7.664,-4.871 2.953,-1.184 6.066,-1.777 9.355,-1.777 3.293,0 6.395,0.593 9.309,1.777 2.902,1.18 5.422,2.812 7.562,4.871 2.141,2.066 3.836,4.488 5.102,7.254 1.254,2.777 1.883,5.754 1.883,8.937 0,3.18 -0.629,6.172 -1.883,8.985"
         style="fill:#050407;fill-opacity:1;fill-rule:nonzero;stroke:none"
         id="path18" />
      <path
         d="m 559.195,215.676 c -0.449,-0.352 -1.004,-0.528 -1.672,-0.528 h -2.168 v 3.309 h 2.168 c 0.61,0 1.161,-0.137 1.629,-0.406 0.469,-0.266 0.707,-0.617 0.707,-1.043 0,-0.539 -0.218,-0.985 -0.664,-1.332 z m 4.414,-4.555 c 2.676,1.024 4.012,3.012 4.012,5.961 0,1.344 -0.305,2.461 -0.922,3.348 -0.609,0.89 -1.386,1.597 -2.336,2.129 -0.941,0.543 -2.023,0.918 -3.246,1.136 -1.226,0.211 -2.426,0.321 -3.594,0.321 h -9.515 v -21.43 h 7.347 v 7.574 h 1.333 l 3.675,-7.574 h 8.34 l -5.094,8.535"
         style="fill:#050407;fill-opacity:1;fill-rule:nonzero;stroke:none"
         id="path20" />
    </g>
  </g>
</svg>
