<svg xmlns="http://www.w3.org/2000/svg" xmlns:xlink="http://www.w3.org/1999/xlink" version="1.1" width="180.612pt" height="61.239pt" viewBox="0 0 180.612 61.239">
<defs>
<clipPath id="clip_0">
<path transform="matrix(1,0,0,-1,0,61.239)" d="M0 0H76.915V58.908H0Z"/>
</clipPath>
<clipPath id="clip_1">
<path transform="matrix(1,0,0,-1,0,61.239)" d="M0 0H76.915V58.908H0Z"/>
</clipPath>
<clipPath id="clip_2">
<path transform="matrix(1,0,0,-1,0,61.239)" d="M0 0H76.915V58.908H0Z"/>
</clipPath>
<clipPath id="clip_3">
<path transform="matrix(1,0,0,-1,0,61.239)" d="M0 61.239H180.612V0H0Z"/>
</clipPath>
<clipPath id="clip_4">
<path transform="matrix(1,0,0,-1,0,61.239)" d="M0 61.239H180.612V0H0Z"/>
</clipPath>
<clipPath id="clip_5">
<path transform="matrix(1,0,0,-1,0,61.239)" d="M0 61.239H180.612V0H0Z"/>
</clipPath>
</defs>
<g id="layer_1" data-name="Vrstva 1">
<g clip-path="url(#clip_0)">
<path transform="matrix(1,0,0,-1,73.5092,38.5085)" d="M0 0C1.882 0 3.406 1.629 3.406 3.637 3.406 5.645 1.882 7.274 0 7.274-1.881 7.274-3.406 5.645-3.406 3.637-3.406 1.629-1.881 0 0 0" fill="#231f20"/>
</g>
<path transform="matrix(1,0,0,-1,0,61.239)" d="M.001 18.821H18.734999V20.004H.001Z" fill="#231f20"/>
<path transform="matrix(1,0,0,-1,0,61.239)" d="M.001 16.73H18.734999V17.911999H.001Z" fill="#231f20"/>
<path transform="matrix(1,0,0,-1,0,61.239)" d="M.001 14.639H18.734999V15.822H.001Z" fill="#231f20"/>
<path transform="matrix(1,0,0,-1,0,61.239)" d="M.001 12.548H18.734999V13.729H.001Z" fill="#231f20"/>
<path transform="matrix(1,0,0,-1,0,61.239)" d="M.001 10.455H18.734999V11.636H.001Z" fill="#231f20"/>
<path transform="matrix(1,0,0,-1,0,61.239)" d="M.001 8.365H18.734999V9.546H.001Z" fill="#231f20"/>
<path transform="matrix(1,0,0,-1,0,61.239)" d="M.001 6.273H18.734999V7.456H.001Z" fill="#231f20"/>
<path transform="matrix(1,0,0,-1,0,61.239)" d="M.001 4.182H18.734999V5.3640005H.001Z" fill="#231f20"/>
<path transform="matrix(1,0,0,-1,0,61.239)" d="M.001 2.091H18.734999V3.275H.001Z" fill="#231f20"/>
<path transform="matrix(1,0,0,-1,0,61.239)" d="M0 0H18.734V1.181H0Z" fill="#231f20"/>
<path transform="matrix(1,0,0,-1,.6669,12.746998)" d="M0 0V-5.234H10.945L-.667-21.189V-25.762H18.132V-20.173H6.424L18.084-4.472 18.132 0Z" fill="#231f20"/>
<g clip-path="url(#clip_1)">
<path transform="matrix(1,0,0,-1,29.2616,38.5085)" d="M0 0C-3.759 0-6.567 1.727-6.567 6.554V36.177H-.905V6.96C-.905 6.047-.428 5.64 .475 5.64H2.569V0" fill="#231f20"/>
</g>
<path transform="matrix(1,0,0,-1,38.0098,2.839798)" d="M0 0-4.378-6.605H.524L7.282 0ZM-2.902-35.669H2.7610002V-9.907999H-2.902Z" fill="#231f20"/>
<g clip-path="url(#clip_2)">
<path transform="matrix(1,0,0,-1,57.9985,12.4426)" d="M0 0C3.95 0 8.471-3.099 8.471-9.045V-26.066H2.807V-10.773C2.807-7.673 .904-5.842-1.57-5.842-4.093-5.842-5.949-7.673-5.949-10.773V-26.066H-11.612V-.304H-5.949V-2.286C-4.475-.812-2.38 0 0 0" fill="#231f20"/>
</g>
<g clip-path="url(#clip_3)">
<path transform="matrix(1,0,0,-1,98.2102,2.414299)" d="M0 0H1.182V-1.294L.973-1.085C1.236-.698 1.56-.403 1.946-.198 2.332 .007 2.755 .11 3.215 .11 3.807 .11 4.303-.017 4.706-.271 5.108-.526 5.404-.904 5.593-1.404L5.186-1.38C5.498-.895 5.884-.526 6.344-.271 6.804-.017 7.309 .11 7.859 .11 8.426 .11 8.905-.005 9.294-.234 9.685-.464 9.978-.803 10.176-1.251 10.372-1.698 10.471-2.246 10.471-2.895V-6.53H9.288V-2.92C9.288-2.263 9.157-1.773 8.894-1.448 8.631-1.124 8.237-.961 7.712-.961 7.334-.961 7.003-1.042 6.72-1.201 6.437-1.361 6.217-1.588 6.061-1.879 5.905-2.171 5.827-2.513 5.827-2.908V-6.53H4.644V-2.92C4.644-2.263 4.513-1.773 4.25-1.448 3.987-1.124 3.593-.961 3.068-.961 2.689-.961 2.359-1.042 2.076-1.201 1.792-1.361 1.573-1.588 1.417-1.879 1.26-2.171 1.182-2.513 1.182-2.908V-6.53H0Z" fill="#231f20"/>
<path transform="matrix(1,0,0,-1,112.6481,0)" d="M0 0 1.306-1.392H.53L1.848 0H3.117V-.099L1.552-1.688H.32L-1.269-.099V0ZM-1.454-5.088H3.881V-6.086H-1.454ZM-.813-8.63C-1.322-8.339-1.723-7.936-2.014-7.423-2.306-6.909-2.452-6.328-2.452-5.679-2.452-5.031-2.306-4.449-2.014-3.936-1.723-3.423-1.322-3.02-.813-2.729-.304-2.438 .275-2.291 .924-2.291 1.614-2.291 2.224-2.448 2.753-2.759 3.283-3.072 3.685-3.516 3.961-4.09 4.236-4.665 4.353-5.33 4.312-6.086H3.129C3.186-5.609 3.129-5.164 2.957-4.749 2.784-4.334 2.519-4.006 2.162-3.764 1.805-3.521 1.392-3.4 .924-3.4 .505-3.4 .131-3.497-.197-3.69-.525-3.883-.782-4.152-.967-4.497-1.152-4.842-1.244-5.236-1.244-5.679-1.244-6.123-1.152-6.517-.967-6.862-.782-7.207-.525-7.476-.197-7.669 .131-7.862 .505-7.958 .924-7.958 1.359-7.958 1.747-7.871 2.088-7.693 2.429-7.517 2.681-7.273 2.846-6.96H4.127C3.897-7.609 3.497-8.122 2.926-8.5 2.355-8.879 1.688-9.067 .924-9.067 .275-9.067-.304-8.921-.813-8.63" fill="#231f20"/>
<path transform="matrix(1,0,0,-1,119.4112,8.795597)" d="M0 0C-.403 .172-.719 .419-.949 .739-1.179 1.059-1.302 1.441-1.318 1.885H-.111C-.086 1.548 .065 1.289 .345 1.108 .624 .928 .994 .837 1.454 .837 1.93 .837 2.308 .909 2.587 1.053 2.867 1.196 3.006 1.412 3.006 1.7 3.006 1.873 2.959 2.008 2.865 2.107 2.77 2.204 2.607 2.291 2.378 2.365 2.148 2.439 1.811 2.508 1.367 2.575 .735 2.673 .232 2.804-.142 2.968-.516 3.132-.788 3.344-.961 3.603-1.133 3.862-1.22 4.188-1.22 4.582-1.22 4.993-1.103 5.344-.869 5.635-.635 5.927-.317 6.144 .087 6.288 .489 6.432 .94 6.504 1.442 6.504 1.951 6.504 2.394 6.424 2.771 6.264 3.149 6.103 3.445 5.874 3.659 5.574 3.873 5.274 3.991 4.919 4.016 4.509H2.821C2.78 4.796 2.636 5.022 2.39 5.186 2.144 5.35 1.815 5.432 1.404 5.432 .953 5.432 .601 5.356 .352 5.204 .101 5.052-.025 4.845-.025 4.582-.025 4.402 .027 4.253 .13 4.139 .232 4.024 .405 3.93 .647 3.855 .889 3.781 1.228 3.716 1.664 3.658 2.484 3.551 3.115 3.356 3.554 3.074 3.993 2.79 4.213 2.353 4.213 1.762 4.213 1.309 4.092 .933 3.849 .634 3.608 .334 3.277 .11 2.858-.037 2.439-.186 1.963-.259 1.43-.259 .878-.259 .402-.173 0 0" fill="#231f20"/>
<path transform="matrix(1,0,0,-1,126.1189,8.475697)" d="M0 0C-.374 .337-.56 .863-.56 1.577V7.601L.622 7.724V1.724C.622 1.322 .719 1.032 .912 .856 1.105 .68 1.418 .591 1.854 .591 2.052 .591 2.252 .603 2.458 .629V-.468C2.204-.492 1.953-.505 1.707-.505 .943-.505 .374-.337 0 0M-1.878 6.061H2.384V5.075H-1.878Z" fill="#231f20"/>
<path transform="matrix(1,0,0,-1,134.133,7.669098)" d="M0 0C.337 .193 .599 .464 .788 .813 .977 1.162 1.071 1.555 1.071 1.99 1.071 2.425 .977 2.817 .788 3.166 .599 3.516 .337 3.786 0 3.979-.338 4.172-.719 4.269-1.146 4.269-1.573 4.269-1.956 4.172-2.292 3.979-2.629 3.786-2.892 3.516-3.08 3.166-3.269 2.817-3.364 2.425-3.364 1.99-3.364 1.555-3.269 1.162-3.08 .813-2.892 .464-2.629 .193-2.292 0-1.956-.193-1.573-.289-1.146-.289-.719-.289-.338-.193 0 0M-2.914-.96C-3.435-.67-3.842-.267-4.134 .246-4.425 .76-4.571 1.341-4.571 1.99-4.571 2.638-4.425 3.22-4.134 3.733-3.842 4.246-3.435 4.649-2.914 4.941-2.393 5.231-1.803 5.378-1.146 5.378-.49 5.378 .1 5.231 .622 4.941 1.143 4.649 1.55 4.246 1.842 3.733 2.133 3.22 2.278 2.638 2.278 1.99 2.278 1.341 2.133 .76 1.842 .246 1.55-.267 1.143-.67 .622-.96 .1-1.252-.49-1.398-1.146-1.398-1.803-1.398-2.393-1.252-2.914-.96" fill="#231f20"/>
</g>
<text fill="#a88864" xml:space="preserve" transform="matrix(1 0 -0 1 0 61.239)" font-size="12.9009" font-family="CodeNextVariable"><tspan y="-41.3164" x="34.7158"> </tspan></text>
<g clip-path="url(#clip_4)">
<path transform="matrix(1,0,0,-1,98.2102,17.196698)" d="M0 0H1.182V-1.343L.985-1.06C1.174-.813 1.392-.602 1.638-.425 1.885-.249 2.158-.116 2.458-.025 2.757 .065 3.084 .11 3.437 .11 4.004 .11 4.49-.005 4.897-.234 5.303-.464 5.613-.806 5.827-1.257 6.04-1.708 6.147-2.255 6.147-2.895V-6.53H4.964V-2.945C4.964-2.287 4.819-1.793 4.527-1.46 4.236-1.127 3.802-.961 3.227-.961 2.817-.961 2.458-1.044 2.149-1.208 1.842-1.372 1.603-1.602 1.435-1.898 1.267-2.193 1.182-2.538 1.182-2.933V-6.53H0Z" fill="#231f20"/>
<path transform="matrix(1,0,0,-1,0,61.239)" d="M106.87 41.369H112.205V40.371H106.87ZM107.511 37.827C107.002 38.118 106.601 38.521 106.31 39.034 106.018 39.548 105.872 40.128 105.872 40.778 105.872 41.426 106.018 42.008 106.31 42.52 106.601 43.033 107.002 43.436 107.511 43.728 108.02 44.019 108.599 44.165 109.248 44.165 109.938 44.165 110.548 44.009 111.077 43.697 111.607 43.385 112.009 42.941 112.285 42.367 112.559 41.791 112.676 41.126 112.636 40.371H111.453C111.51 40.847 111.453 41.292 111.281 41.707 111.108 42.122 110.843 42.45 110.486 42.693 110.129 42.935 109.716 43.057 109.248 43.057 108.829 43.057 108.455 42.96 108.127 42.767 107.798 42.574 107.542 42.305 107.357 41.96 107.172 41.615 107.08 41.22 107.08 40.778 107.08 40.334 107.172 39.939 107.357 39.595 107.542 39.25 107.798 38.981 108.127 38.788 108.455 38.594 108.829 38.498 109.248 38.498 109.683 38.498 110.071 38.586 110.412 38.763 110.753 38.94 111.005 39.184 111.17 39.496H112.451C112.221 38.847 111.82 38.334 111.25 37.957 110.679 37.578 110.012 37.39 109.248 37.39 108.599 37.39 108.02 37.535 107.511 37.827" fill="#231f20"/>
<path transform="matrix(1,0,0,-1,115.6904,20.633999)" d="M0 0V.308L2.476 3.437H3.869V3.376L.899-.283V.629L4.078-3.031V-3.092H2.612ZM-1.478 5.531H-.296V-3.092H-1.478Z" fill="#231f20"/>
<path transform="matrix(1,0,0,-1,124.8077,22.4515)" d="M0 0C.337 .193 .599 .464 .788 .813 .977 1.162 1.071 1.555 1.071 1.99 1.071 2.425 .977 2.817 .788 3.166 .599 3.516 .337 3.786 0 3.979-.338 4.172-.719 4.269-1.146 4.269-1.573 4.269-1.956 4.172-2.292 3.979-2.629 3.786-2.892 3.516-3.08 3.166-3.269 2.817-3.364 2.425-3.364 1.99-3.364 1.555-3.269 1.162-3.08 .813-2.892 .464-2.629 .193-2.292 0-1.956-.193-1.573-.289-1.146-.289-.719-.289-.338-.193 0 0M-2.914-.96C-3.435-.67-3.842-.267-4.134 .246-4.425 .76-4.571 1.341-4.571 1.99-4.571 2.638-4.425 3.22-4.134 3.733-3.842 4.246-3.435 4.649-2.914 4.941-2.393 5.231-1.803 5.378-1.146 5.378-.49 5.378 .1 5.231 .622 4.941 1.143 4.649 1.55 4.246 1.842 3.733 2.133 3.22 2.278 2.638 2.278 1.99 2.278 1.341 2.133 .76 1.842 .246 1.55-.267 1.143-.67 .622-.96 .1-1.252-.49-1.398-1.146-1.398-1.803-1.398-2.393-1.252-2.914-.96" fill="#231f20"/>
<path transform="matrix(1,0,0,-1,128.7001,17.196698)" d="M0 0H1.182V-1.343L.985-1.06C1.174-.813 1.391-.602 1.638-.425 1.885-.249 2.158-.116 2.457-.025 2.757 .065 3.084 .11 3.436 .11 4.003 .11 4.49-.005 4.897-.234 5.303-.464 5.613-.806 5.826-1.257 6.04-1.708 6.147-2.255 6.147-2.895V-6.53H4.964V-2.945C4.964-2.287 4.818-1.793 4.527-1.46 4.236-1.127 3.802-.961 3.227-.961 2.816-.961 2.457-1.044 2.149-1.208 1.842-1.372 1.603-1.602 1.435-1.898 1.266-2.193 1.182-2.538 1.182-2.933V-6.53H0Z" fill="#231f20"/>
<path transform="matrix(1,0,0,-1,0,61.239)" d="M137.36 41.369H142.695V40.371H137.36ZM138 37.827C137.491 38.118 137.091 38.521 136.799 39.034 136.508 39.548 136.362 40.128 136.362 40.778 136.362 41.426 136.508 42.008 136.799 42.52 137.091 43.033 137.491 43.436 138 43.728 138.509 44.019 139.088 44.165 139.737 44.165 140.428 44.165 141.037 44.009 141.567 43.697 142.097 43.385 142.499 42.941 142.775 42.367 143.049 41.791 143.166 41.126 143.125 40.371H141.943C142 40.847 141.943 41.292 141.77 41.707 141.598 42.122 141.333 42.45 140.976 42.693 140.619 42.935 140.206 43.057 139.737 43.057 139.319 43.057 138.945 42.96 138.617 42.767 138.288 42.574 138.031 42.305 137.846 41.96 137.662 41.615 137.569 41.22 137.569 40.778 137.569 40.334 137.662 39.939 137.846 39.595 138.031 39.25 138.288 38.981 138.617 38.788 138.945 38.594 139.319 38.498 139.737 38.498 140.173 38.498 140.561 38.586 140.902 38.763 141.243 38.94 141.495 39.184 141.659 39.496H142.941C142.71 38.847 142.31 38.334 141.74 37.957 141.169 37.578 140.501 37.39 139.737 37.39 139.088 37.39 138.509 37.535 138 37.827" fill="#231f20"/>
<path transform="matrix(1,0,0,-1,146.6615,14.782398)" d="M0 0 1.306-1.392H.53L1.847 0H3.116V-.099L1.552-1.688H.32L-1.269-.099V0ZM-.813-8.636C-1.322-8.349-1.721-7.95-2.009-7.441-2.296-6.931-2.439-6.349-2.439-5.691-2.439-5.026-2.298-4.437-2.014-3.924-1.731-3.41-1.333-3.01-.82-2.723-.307-2.436 .279-2.291 .936-2.291 1.478-2.291 1.97-2.392 2.414-2.593 2.857-2.795 3.231-3.082 3.535-3.456 3.839-3.83 4.053-4.271 4.176-4.78H2.993C2.828-4.345 2.57-4.006 2.218-3.764 1.864-3.521 1.445-3.4 .96-3.4 .533-3.4 .154-3.497-.179-3.69-.512-3.883-.77-4.152-.955-4.497-1.14-4.842-1.232-5.24-1.232-5.691-1.232-6.135-1.14-6.53-.955-6.875-.77-7.22-.512-7.486-.179-7.675 .154-7.864 .533-7.958 .96-7.958 1.461-7.958 1.886-7.837 2.235-7.594 2.585-7.353 2.837-7.01 2.993-6.566H4.2C4.085-7.076 3.874-7.519 3.566-7.897 3.258-8.274 2.878-8.564 2.426-8.765 1.975-8.966 1.478-9.067 .936-9.067 .279-9.067-.304-8.923-.813-8.636" fill="#231f20"/>
<path transform="matrix(1,0,0,-1,152.3648,17.196698)" d="M0 0H1.182V-1.343L.985-1.06C1.174-.813 1.391-.602 1.638-.425 1.885-.249 2.158-.116 2.457-.025 2.757 .065 3.084 .11 3.436 .11 4.003 .11 4.49-.005 4.897-.234 5.303-.464 5.613-.806 5.826-1.257 6.04-1.708 6.147-2.255 6.147-2.895V-6.53H4.964V-2.945C4.964-2.287 4.818-1.793 4.527-1.46 4.236-1.127 3.802-.961 3.227-.961 2.816-.961 2.457-1.044 2.149-1.208 1.842-1.372 1.603-1.602 1.435-1.898 1.266-2.193 1.182-2.538 1.182-2.933V-6.53H0Z" fill="#231f20"/>
<path transform="matrix(1,0,0,-1,161.7637,16.4581)" d="M0 0 .887 1.614H2.378V1.515L1.208-.086H0ZM-1.047-9.116 .259-6.246 .345-7.046-2.426-.8V-.739H-1.109L-.074-3.203 1.023-5.839 .407-6.024 1.626-3.227 2.71-.739H4.016V-.8L.234-9.178H-1.047Z" fill="#231f20"/>
<path transform="matrix(1,0,0,-1,167.9482,23.418499)" d="M0 0C-.509 .287-.908 .686-1.195 1.195-1.483 1.705-1.626 2.287-1.626 2.945-1.626 3.61-1.485 4.199-1.201 4.712-.918 5.226-.519 5.626-.007 5.913 .506 6.2 1.092 6.345 1.749 6.345 2.291 6.345 2.784 6.244 3.227 6.043 3.67 5.841 4.044 5.554 4.348 5.18 4.652 4.806 4.866 4.365 4.989 3.856H3.807C3.642 4.291 3.383 4.63 3.031 4.872 2.677 5.115 2.259 5.236 1.774 5.236 1.347 5.236 .967 5.139 .634 4.946 .301 4.753 .043 4.485-.142 4.139-.326 3.794-.419 3.396-.419 2.945-.419 2.501-.326 2.107-.142 1.762 .043 1.417 .301 1.15 .634 .961 .967 .772 1.347 .678 1.774 .678 2.274 .678 2.7 .799 3.048 1.042 3.398 1.283 3.65 1.626 3.807 2.07H5.013C4.899 1.56 4.687 1.117 4.379 .74 4.071 .362 3.691 .072 3.24-.129 2.788-.33 2.291-.431 1.749-.431 1.092-.431 .509-.287 0 0" fill="#231f20"/>
<path transform="matrix(1,0,0,-1,174.4647,15.103199)" d="M0 0H1.182V-3.436L.986-3.154C1.174-2.907 1.392-2.696 1.638-2.519 1.885-2.342 2.156-2.209 2.452-2.119 2.747-2.028 3.055-1.983 3.376-1.983 3.975-1.983 4.48-2.098 4.891-2.328 5.301-2.558 5.614-2.896 5.827-3.344 6.041-3.792 6.147-4.34 6.147-4.989V-8.623H4.965V-5.038C4.965-4.381 4.819-3.887 4.527-3.554 4.236-3.221 3.803-3.055 3.227-3.055 2.817-3.055 2.458-3.137 2.149-3.301 1.842-3.465 1.604-3.696 1.435-3.991 1.267-4.287 1.182-4.632 1.182-5.026V-8.623H0Z" fill="#231f20"/>
</g>
<text fill="#a88864" xml:space="preserve" transform="matrix(1 0 -0 1 0 61.239)" font-size="12.9009" font-family="CodeNextVariable"><tspan y="-25.8359" x="77.8828 77.8828">  </tspan></text>
<g clip-path="url(#clip_5)">
<path transform="matrix(1,0,0,-1,98.2102,31.979998)" d="M0 0H1.182V-1.294L.973-1.085C1.236-.698 1.56-.403 1.946-.198 2.332 .007 2.755 .11 3.215 .11 3.807 .11 4.303-.017 4.706-.271 5.108-.526 5.404-.904 5.593-1.404L5.186-1.38C5.498-.895 5.884-.526 6.344-.271 6.804-.017 7.309 .11 7.859 .11 8.426 .11 8.905-.005 9.294-.234 9.685-.464 9.978-.803 10.176-1.251 10.372-1.698 10.471-2.246 10.471-2.895V-6.53H9.288V-2.92C9.288-2.263 9.157-1.773 8.894-1.448 8.631-1.124 8.237-.961 7.712-.961 7.334-.961 7.003-1.042 6.72-1.201 6.437-1.361 6.217-1.588 6.061-1.879 5.905-2.171 5.827-2.513 5.827-2.908V-6.53H4.644V-2.92C4.644-2.263 4.513-1.773 4.25-1.448 3.987-1.124 3.593-.961 3.068-.961 2.689-.961 2.359-1.042 2.076-1.201 1.792-1.361 1.573-1.588 1.417-1.879 1.26-2.171 1.182-2.513 1.182-2.908V-6.53H0Z" fill="#231f20"/>
<path transform="matrix(1,0,0,-1,114.7672,37.2348)" d="M0 0C.337 .193 .599 .464 .788 .813 .977 1.162 1.071 1.555 1.071 1.99 1.071 2.425 .977 2.817 .788 3.166 .599 3.516 .337 3.786 0 3.979-.337 4.172-.719 4.269-1.146 4.269-1.573 4.269-1.955 4.172-2.292 3.979-2.628 3.786-2.891 3.516-3.08 3.166-3.269 2.817-3.363 2.425-3.363 1.99-3.363 1.555-3.269 1.162-3.08 .813-2.891 .464-2.628 .193-2.292 0-1.955-.193-1.573-.289-1.146-.289-.719-.289-.337-.193 0 0M-2.914-.961C-3.435-.67-3.842-.267-4.133 .246-4.425 .76-4.571 1.341-4.571 1.99-4.571 2.638-4.425 3.22-4.133 3.733-3.842 4.246-3.435 4.649-2.914 4.941-2.392 5.231-1.803 5.378-1.146 5.378-.489 5.378 .1 5.231 .622 4.941 1.143 4.649 1.55 4.246 1.842 3.733 2.133 3.22 2.279 2.638 2.279 1.99 2.279 1.341 2.133 .76 1.842 .246 1.55-.267 1.143-.67 .622-.961 .1-1.252-.489-1.398-1.146-1.398-1.803-1.398-2.392-1.252-2.914-.961" fill="#231f20"/>
<path transform="matrix(1,0,0,-1,119.8178,29.565699)" d="M0 0 1.306-1.392H.53L1.848 0H3.117V-.099L1.553-1.688H.321L-1.269-.099V0ZM-1.897-8.204 2.132-2.944 2.427-3.462H.936-1.651V-2.414H3.388V-3.117L-.677-8.426-.924-7.885H.838 3.487V-8.944H-1.897Z" fill="#231f20"/>
<path transform="matrix(1,0,0,-1,124.7452,31.979998)" d="M0 0H1.182V-1.343L.986-1.06C1.174-.813 1.392-.602 1.638-.425 1.885-.249 2.158-.116 2.458-.025 2.757 .065 3.084 .11 3.437 .11 4.004 .11 4.49-.005 4.897-.234 5.303-.464 5.614-.806 5.827-1.257 6.041-1.708 6.147-2.255 6.147-2.895V-6.53H4.965V-2.945C4.965-2.287 4.819-1.793 4.527-1.46 4.236-1.127 3.803-.961 3.227-.961 2.817-.961 2.458-1.044 2.149-1.208 1.842-1.372 1.604-1.602 1.435-1.898 1.267-2.193 1.182-2.538 1.182-2.933V-6.53H0Z" fill="#231f20"/>
<path transform="matrix(1,0,0,-1,136.9781,37.2348)" d="M0 0C.337 .193 .6 .464 .789 .813 .977 1.162 1.071 1.555 1.071 1.99 1.071 2.425 .977 2.817 .789 3.166 .6 3.516 .337 3.786 0 3.979-.337 4.172-.719 4.269-1.146 4.269-1.573 4.269-1.955 4.172-2.291 3.979-2.628 3.786-2.891 3.516-3.08 3.166-3.268 2.817-3.363 2.425-3.363 1.99-3.363 1.555-3.268 1.162-3.08 .813-2.891 .464-2.628 .193-2.291 0-1.955-.193-1.573-.289-1.146-.289-.719-.289-.337-.193 0 0M-2.913-.961C-3.435-.67-3.842-.267-4.133 .246-4.425 .76-4.57 1.341-4.57 1.99-4.57 2.638-4.425 3.22-4.133 3.733-3.842 4.246-3.435 4.649-2.913 4.941-2.392 5.231-1.803 5.378-1.146 5.378-.489 5.378 .101 5.231 .622 4.941 1.143 4.649 1.55 4.246 1.842 3.733 2.134 3.22 2.279 2.638 2.279 1.99 2.279 1.341 2.134 .76 1.842 .246 1.55-.267 1.143-.67 .622-.961 .101-1.252-.489-1.398-1.146-1.398-1.803-1.398-2.392-1.252-2.913-.961" fill="#231f20"/>
<path transform="matrix(1,0,0,-1,141.7461,38.361299)" d="M0 0C-.403 .172-.719 .419-.949 .739-1.179 1.059-1.302 1.441-1.319 1.885H-.111C-.087 1.548 .065 1.289 .344 1.108 .624 .928 .993 .837 1.453 .837 1.929 .837 2.307 .909 2.587 1.053 2.866 1.196 3.006 1.412 3.006 1.7 3.006 1.873 2.958 2.008 2.864 2.107 2.77 2.204 2.607 2.291 2.377 2.365 2.148 2.439 1.811 2.508 1.367 2.575 .735 2.673 .231 2.804-.142 2.968-.516 3.132-.789 3.344-.961 3.603-1.134 3.862-1.22 4.188-1.22 4.582-1.22 4.993-1.103 5.344-.869 5.635-.635 5.927-.317 6.144 .086 6.288 .488 6.432 .94 6.504 1.441 6.504 1.95 6.504 2.394 6.424 2.771 6.264 3.149 6.103 3.445 5.874 3.658 5.574 3.872 5.274 3.991 4.919 4.015 4.509H2.821C2.78 4.796 2.636 5.022 2.389 5.186 2.143 5.35 1.815 5.432 1.404 5.432 .952 5.432 .601 5.356 .351 5.204 .1 5.052-.025 4.845-.025 4.582-.025 4.402 .026 4.253 .129 4.139 .231 4.024 .404 3.93 .646 3.855 .889 3.781 1.227 3.716 1.663 3.658 2.484 3.551 3.115 3.356 3.554 3.074 3.993 2.79 4.213 2.353 4.213 1.762 4.213 1.309 4.092 .933 3.849 .634 3.607 .334 3.277 .11 2.857-.037 2.439-.186 1.962-.259 1.429-.259 .878-.259 .402-.173 0 0" fill="#231f20"/>
<path transform="matrix(1,0,0,-1,148.4538,38.041399)" d="M0 0C-.374 .337-.56 .863-.56 1.577V7.601L.622 7.724V1.724C.622 1.322 .718 1.032 .911 .856 1.104 .68 1.418 .591 1.854 .591 2.051 .591 2.252 .603 2.457 .629V-.468C2.203-.492 1.953-.505 1.706-.505 .942-.505 .373-.337 0 0M-1.879 6.061H2.384V5.075H-1.879Z" fill="#231f20"/>
<path transform="matrix(1,0,0,-1,0,61.239)" d="M152.438 29.259H153.62001V22.729H152.438ZM152.426 29.998 153.005 31.648H154.398V31.55L153.535 29.912H152.426Z" fill="#231f20"/>
</g>
</g>
</svg>
