<svg width="1009" height="218" viewBox="0 0 1009 218" fill="none" xmlns="http://www.w3.org/2000/svg">
<path d="M114.548 81.0795C112.748 79.7795 110.548 79.1795 108.248 79.5795C105.648 79.9795 103.348 81.5795 101.748 83.7795C96.2481 91.5795 90.548 99.2796 84.648 106.68C81.548 110.58 78.048 114.38 74.748 117.98L71.9481 120.98C67.1481 126.18 62.148 131.58 57.148 136.68C53.348 140.58 49.248 144.28 45.348 147.88C43.948 149.18 42.648 150.38 41.248 151.68C38.248 154.48 35.148 157.28 32.048 160.28L28.748 163.28L39.348 176.48C39.848 176.18 40.248 175.88 40.548 175.58C42.448 173.88 44.348 172.18 46.148 170.38C50.848 166.08 55.7481 161.58 60.4481 156.98L64.348 153.08C75.648 141.98 87.448 130.38 97.348 117.68C103.948 109.18 110.348 100.58 116.348 92.4795C117.448 90.9795 117.948 88.8796 117.648 86.6796C117.348 84.4796 116.048 82.2795 114.548 81.0795Z" fill="white"/>
<path d="M58.1478 193.98C59.1478 194.88 60.0478 195.68 61.0478 196.58C63.6478 198.98 66.4478 201.38 69.2478 203.58C72.4478 206.08 75.7478 208.58 78.9478 210.88C81.9478 213.08 84.8478 215.28 87.7478 217.48C88.0478 217.68 88.2478 217.78 88.3478 217.88C88.3478 217.88 88.5478 217.78 88.7478 217.58C90.4478 216.28 92.2478 214.98 93.9478 213.68C96.3478 211.98 98.8478 210.18 101.148 208.28C102.748 206.98 104.348 205.68 105.948 204.38C112.448 199.08 119.248 193.58 125.348 187.68C130.548 182.68 135.448 176.88 140.148 171.38C141.348 169.98 142.548 168.48 143.848 167.08C150.348 159.48 156.148 150.68 161.548 140.38C170.248 123.58 174.948 109.18 176.248 95.0798C177.148 85.7798 176.948 78.1798 175.648 71.0798C173.948 61.8798 170.448 52.6798 165.348 43.8798C159.948 34.5798 153.048 26.4798 144.648 19.6798C138.248 14.4798 130.548 9.97978 121.948 6.37978C113.048 2.67978 103.448 0.579796 93.5478 0.0797964C87.7478 -0.220204 81.8478 0.37979 76.0478 0.97979C67.2478 1.87979 58.5478 4.4798 49.3478 9.0798C39.2478 14.0798 30.3478 20.7798 23.0478 28.6798C15.9478 36.4798 10.5478 44.6798 6.64785 53.6798C1.74785 64.9798 -0.352152 76.3798 0.0478475 88.7798C0.347848 96.3798 1.44785 103.88 3.44785 111.58C3.94785 113.48 4.64784 115.48 5.24784 117.38C5.24784 117.48 5.24785 117.48 5.34785 117.58L5.44785 117.48C8.14785 114.78 10.7478 112.08 13.4478 109.28C17.9478 104.68 22.4478 100.08 26.8478 95.4798C28.9478 93.2798 31.0478 90.9798 33.0478 88.7798C34.1478 87.4798 35.3478 86.1798 36.5478 84.9798C40.5478 80.6798 44.5478 76.2798 48.5478 71.9798L58.3478 61.2798C59.3478 60.1798 60.3478 59.0798 61.3478 57.9798C63.8478 55.2798 66.3478 52.5798 68.7478 49.7798C75.7478 41.7798 83.7478 33.6798 94.5478 29.1798C105.648 24.4798 117.048 24.5798 128.348 29.5798C135.548 32.7798 141.848 37.7798 147.648 45.0798C152.748 51.4798 156.548 58.7798 159.048 66.7798C161.848 75.9798 162.648 83.7798 161.548 91.2798C161.348 92.5798 161.248 93.8798 161.048 95.1798C160.748 97.7798 160.448 100.38 159.848 102.98C157.148 114.38 152.448 125.78 145.748 137.68C138.748 149.98 129.748 161.78 118.948 172.78C113.048 178.78 106.548 184.48 100.348 189.98C97.8478 192.18 95.2478 194.18 92.7478 195.98C91.6478 196.78 90.5478 197.58 89.4478 198.48L88.2478 199.38L75.9478 189.58L77.8478 188.08C78.1478 187.78 78.4478 187.58 78.7478 187.38C79.2478 186.98 79.6478 186.68 80.0478 186.28C82.0478 184.18 84.1478 182.08 86.2478 179.88C91.8478 174.18 97.5478 168.18 103.048 162.28C109.448 155.28 115.548 147.98 120.648 141.88C130.448 130.08 136.848 120.28 141.348 110.18C145.048 101.88 147.148 94.1798 147.648 86.5798C148.448 76.0798 146.348 67.1798 141.448 59.4798C137.448 53.1798 132.648 48.9798 126.948 46.5798C122.848 44.8798 118.348 44.2798 112.448 44.4798C108.248 44.6798 104.148 45.5798 99.9478 47.4798C91.4478 51.2798 84.8478 58.0798 79.3478 64.0798C76.2478 67.4798 73.1478 71.0798 70.1478 74.4798C67.3478 77.6798 64.5478 80.8798 61.7478 84.0798C54.4478 92.0798 48.4478 98.5798 42.8478 104.38C39.7478 107.58 36.4478 110.68 33.2478 113.78C31.7478 115.18 30.2478 116.68 28.7478 118.08L23.8478 122.78C20.1478 126.38 16.3478 130.08 12.5478 133.68C12.2478 133.98 12.2478 134.08 12.2478 134.08C12.2478 134.08 12.2478 134.28 12.5478 134.68C13.2478 136.08 14.0478 137.48 14.7478 138.88C15.6478 140.58 16.4478 142.28 17.4478 143.98C18.1478 145.18 18.8478 146.38 19.6478 147.58C20.6478 146.68 21.6478 145.78 22.5478 144.88C25.9478 141.78 29.1478 138.88 32.2478 135.78C44.0478 123.98 55.5478 112.28 67.2478 100.28C69.3478 98.1798 71.3478 95.8798 73.2478 93.5798L74.7478 91.7798C76.3478 89.8798 77.9478 88.0798 79.5478 86.1798C82.7478 82.3798 86.0478 78.4798 89.5478 74.7798C93.5478 70.4798 97.5478 66.7798 101.548 63.7798C107.148 59.4798 113.248 58.0798 119.748 59.6798C127.548 61.5798 132.448 71.9798 132.948 78.7798C133.748 89.8798 130.848 100.58 123.948 111.58C119.248 119.08 114.148 126.28 108.648 133.08C102.648 140.58 96.0478 148.18 87.1478 157.98C82.6478 162.98 77.7478 167.68 73.0478 172.28L70.0478 175.18C68.2478 176.98 66.2478 178.68 64.3478 180.38C63.3478 181.28 62.3478 182.18 61.2478 183.08C59.0478 184.98 56.9478 186.98 54.7478 188.98L53.7478 189.88L54.0478 190.18C55.3478 191.48 56.7478 192.78 58.1478 193.98ZM81.1478 19.2798C73.9478 23.5798 67.4478 28.9798 61.1478 35.7798C56.8478 40.4798 52.5478 45.3798 48.3478 49.9798C46.0478 52.5798 43.7478 55.1798 41.4478 57.6798C38.2478 61.2798 35.0478 64.7798 31.8478 68.2798C28.5478 71.8798 25.2478 75.4798 21.9478 79.0798L20.0478 81.0798C19.8478 81.3798 19.5478 81.5798 19.2478 81.8798L15.0478 85.6798L15.3478 80.7798C17.4478 44.8798 51.0478 17.5798 79.9478 15.5798L88.2478 14.9798L81.1478 19.2798Z" fill="white"/>
<path d="M290.448 150.68C296.848 144.78 300.948 137.08 302.948 127.18L298.648 126.28C293.348 125.18 288.048 124.08 282.748 123.08C281.948 122.98 281.648 122.88 280.948 124.68L280.748 125.28C278.848 129.68 276.648 134.58 273.048 137.78C267.248 142.88 259.748 145.18 251.948 144.18C243.848 143.18 236.548 138.68 231.648 131.88C222.348 118.68 225.648 98.7796 238.648 89.3796C246.048 83.9796 256.548 82.6796 265.448 85.9796C273.548 88.9796 279.148 95.3796 281.148 103.98C281.248 104.58 281.448 104.78 281.448 104.88C281.448 104.78 281.748 104.78 282.548 104.58C287.548 103.28 292.548 102.18 297.848 100.98L302.648 99.8796C302.648 99.8796 302.648 99.8796 302.648 99.7796C302.648 99.0796 302.748 98.4796 302.648 98.0796C299.548 87.5796 293.948 79.5796 285.648 73.5796C277.148 67.4796 267.148 64.5796 254.548 64.5796C254.148 64.5796 253.848 64.5796 253.448 64.5796C240.948 64.7796 230.448 68.7796 221.148 76.7796C208.148 88.0796 202.748 103.18 205.148 121.68C207.248 138.08 216.748 150.98 232.548 158.78C241.148 162.98 250.648 164.48 261.648 163.38C273.048 162.28 282.548 158.08 290.448 150.68Z" fill="white"/>
<path d="M409.248 121.88C409.448 109.68 409.348 97.1795 409.348 85.1795C409.348 79.8795 409.348 74.5795 409.348 69.2795V66.9795H387.948V69.6795C387.948 74.0795 387.948 78.4795 387.948 82.7795C387.948 94.1795 388.048 105.979 387.848 117.579C387.748 121.979 387.048 126.579 385.648 130.779C383.248 138.179 377.648 142.879 370.348 143.779C362.048 144.779 355.448 141.979 351.048 135.579C347.748 130.879 346.148 125.28 346.148 118.68C346.048 106.78 346.048 94.7795 346.048 83.1795V67.0795H324.648V83.3795C324.648 95.2795 324.648 107.58 324.748 119.68C324.748 124.48 325.248 128.68 326.148 132.38C329.848 147.48 338.748 157.279 352.448 161.579C359.548 163.779 366.148 164.479 372.748 163.579C378.548 162.779 384.648 161.68 390.148 158.18C402.448 150.18 408.948 137.98 409.248 121.88Z" fill="white"/>
<path d="M434.248 67.0796V161.78H503.348V143.08H455.948V67.0796H434.248Z" fill="white"/>
<path d="M580.448 67.0796H496.148V85.5796H527.448V161.58H549.148V85.3796H580.448V67.0796Z" fill="white"/>
<path d="M672.148 152.98C680.248 144.98 684.348 134.98 684.448 123.48C684.448 110.88 684.448 98.1796 684.448 85.5796V67.0796H663.048V78.6796C663.048 92.5796 663.048 106.38 663.048 120.08C663.048 122.68 662.748 125.18 662.248 127.48C660.048 137.18 652.548 143.88 643.548 144.18C638.048 144.38 632.848 142.38 628.748 138.48C624.448 134.38 621.848 128.48 621.848 122.78C621.748 110.38 621.748 98.0796 621.748 85.6796V67.2796H599.548C599.548 70.4796 599.548 73.7796 599.548 76.9796C599.548 85.2796 599.448 93.9796 599.648 102.38L599.748 106.78C599.848 114.88 600.048 123.38 601.248 131.38C603.148 143.58 609.748 152.88 620.848 158.78C629.048 163.18 638.048 164.78 648.348 163.58C658.348 162.38 666.148 158.98 672.148 152.98Z" fill="white"/>
<path d="M738.549 127.879C740.649 128.079 742.549 128.279 743.749 129.579C750.149 136.579 756.349 143.879 762.449 150.879C765.249 154.179 768.049 157.379 770.949 160.679C771.549 161.379 772.249 161.679 772.449 161.679C779.649 161.779 786.949 161.779 794.749 161.779H798.249L768.149 127.579L770.449 126.979C793.649 120.479 795.949 103.479 793.749 90.2794C791.449 76.5794 780.749 67.6794 765.849 67.0794C754.149 66.5794 742.149 66.6794 730.549 66.7794C725.449 66.7794 720.249 66.8794 715.149 66.8794H712.949V161.579H734.249V127.179L736.049 127.579C736.949 127.779 737.749 127.779 738.549 127.879ZM734.749 109.079L734.349 108.679L734.249 107.979V84.7794H735.749C737.149 84.7794 738.549 84.7794 740.049 84.7794C743.249 84.7794 746.549 84.6794 749.749 84.8794L751.449 84.9794C755.749 85.1794 760.149 85.3794 764.349 86.2794C769.749 87.4794 773.749 93.0794 773.249 98.6794C772.849 103.879 767.849 109.979 761.849 110.179C758.949 110.279 755.949 110.279 753.049 110.279C749.749 110.279 746.449 110.279 743.249 110.179C740.949 110.179 738.649 110.079 736.349 110.079C735.449 109.979 734.949 109.379 734.749 109.079Z" fill="white"/>
<path d="M888.048 122.78V105.68H841.748V84.5797H892.448V67.1797H820.348V161.58H893.348V143.18H841.848V122.78H888.048Z" fill="white"/>
<path d="M934.348 147.58C934.948 146.08 935.848 143.78 939.048 143.78H939.148C950.848 143.88 962.748 143.88 974.248 143.78H974.748C977.248 143.78 978.548 144.78 979.348 147.18C980.648 150.98 982.148 154.78 983.648 158.38C984.048 159.48 984.548 160.48 984.948 161.58H1008.15L968.548 66.7798H963.748C957.748 66.7798 952.048 66.7798 946.248 66.8798C945.848 66.8798 944.848 67.5798 944.648 68.1798C941.648 74.7798 938.748 81.6798 936.248 87.5798C929.648 103.48 923.048 119.28 916.448 135.18L911.048 148.18C909.448 152.08 907.748 156.08 906.048 160.18L905.348 161.78H928.748L930.048 158.28C931.548 154.68 932.948 151.08 934.348 147.58ZM955.348 93.3798H958.448L970.848 125.08H943.348L955.348 93.3798Z" fill="white"/>
</svg>
